<svg fill="currentColor" xmlns="http://www.w3.org/2000/svg" viewBox="0 0 168.4 89.85">
  <path class="cls-1" d="M143.31,54.1a11.1,11.1,0,0,0,1.58,3.59,7.87,7.87,0,0,0,2.81,2.56,9.78,9.78,0,0,0,8.45,0A8,8,0,0,0,159,57.69a11.08,11.08,0,0,0,1.57-3.59A17,17,0,0,0,161,50a18.3,18.3,0,0,0-.49-4.28A11.38,11.38,0,0,0,159,42a8,8,0,0,0-2.82-2.58,9.78,9.78,0,0,0-8.45,0A7.84,7.84,0,0,0,144.89,42a11.39,11.39,0,0,0-1.58,3.68,18.3,18.3,0,0,0-.49,4.28,17,17,0,0,0,.49,4.1M136.58,43a16.63,16.63,0,0,1,3.24-5.6A14.7,14.7,0,0,1,145,33.66a18.36,18.36,0,0,1,13.87,0A14.84,14.84,0,0,1,164,37.42a16.78,16.78,0,0,1,3.23,5.6,20.77,20.77,0,0,1,1.13,7,20.1,20.1,0,0,1-1.13,6.83A16.36,16.36,0,0,1,164,62.34,14.9,14.9,0,0,1,158.87,66,18.62,18.62,0,0,1,145,66a14.76,14.76,0,0,1-5.18-3.68,16.22,16.22,0,0,1-3.24-5.51A20.35,20.35,0,0,1,135.45,50a21,21,0,0,1,1.13-7M119.74,60.88a9.93,9.93,0,0,0,2.06-.21,5,5,0,0,0,1.74-.7,3.44,3.44,0,0,0,1.19-1.34,4.56,4.56,0,0,0,.45-2.16,4.32,4.32,0,0,0-1.46-3.68,6.16,6.16,0,0,0-3.84-1.1h-8v9.19Zm-.43-14.22a5.25,5.25,0,0,0,3.24-.94,3.52,3.52,0,0,0,1.27-3,3.9,3.9,0,0,0-.42-1.92,3.2,3.2,0,0,0-1.13-1.18,4.8,4.8,0,0,0-1.62-.58,10.67,10.67,0,0,0-1.9-.16h-6.9v7.83Zm.94-13.56a21,21,0,0,1,4.37.42A9.65,9.65,0,0,1,128,34.9a6.55,6.55,0,0,1,2.18,2.56,9.12,9.12,0,0,1,.77,3.95,7.31,7.31,0,0,1-1.15,4.22,8.29,8.29,0,0,1-3.4,2.77A8.06,8.06,0,0,1,131,51.52a9.27,9.27,0,0,1,1.53,5.37,9.18,9.18,0,0,1-1,4.39,8.44,8.44,0,0,1-2.65,3,11.9,11.9,0,0,1-3.8,1.74,17.38,17.38,0,0,1-4.39.56H104.48V33.1ZM80.38,53.7l4.37-12.34h.09L89.07,53.7Zm1.36-26.19a3.54,3.54,0,0,1,.8-2.32,2.66,2.66,0,0,1,2.16-1,2.72,2.72,0,0,1,2.18,1,3.71,3.71,0,0,1,0,4.65,2.72,2.72,0,0,1-2.18,1,2.66,2.66,0,0,1-2.16-1,3.56,3.56,0,0,1-.8-2.33m6.9,5.59H86a5.33,5.33,0,0,0,1-.31,5.81,5.81,0,0,0,1.83-1.22A5.46,5.46,0,0,0,90,29.74a5.92,5.92,0,0,0,0-4.48,5.7,5.7,0,0,0-1.25-1.81A6.17,6.17,0,0,0,87,22.23a5.92,5.92,0,0,0-4.48,0,5.92,5.92,0,0,0-1.83,1.22,5.78,5.78,0,0,0-1.22,1.81,5.71,5.71,0,0,0,3,7.53,5.68,5.68,0,0,0,1,.31H81.09L68.41,66.61h7.42l2.63-7.46H91l2.53,7.46h7.66ZM52.73,75.3a9.64,9.64,0,0,1-9.63,9.63H34.76a7.34,7.34,0,0,0-5.53,2.29,7.39,7.39,0,0,0-5.53-2.29H15.36A9.64,9.64,0,0,1,5.73,75.3V29a.71.71,0,0,1,.7-.71H52a.71.71,0,0,1,.7.7ZM52,26.07H6.43a3,3,0,0,0-3,3V75.3A11.89,11.89,0,0,0,15.36,87.19H23.7a5.75,5.75,0,0,1,4.54,2.19,1.22,1.22,0,0,0,1,.47h0a1.24,1.24,0,0,0,1-.47A5.54,5.54,0,0,1,31.8,88a5.75,5.75,0,0,1,3-.8H43.1A11.89,11.89,0,0,0,55,75.3V29a3,3,0,0,0-3-3M49.47,56.89a2.2,2.2,0,0,0,0-2.36A1.53,1.53,0,0,0,47.65,54a3.2,3.2,0,0,0-1.77,1.67,10,10,0,0,0-.62,1.76c-.11.43-.24,1-.24,1l.14,0,.13,0A6.45,6.45,0,0,1,46,56.83c.3-.49.91-.9,1.47-.4a1.27,1.27,0,0,1,.24,1.51c-.1.18-.28.51-.44.75s-.43.87,0,1.28a.89.89,0,0,0,1.09.26.83.83,0,0,0,.45-.47s-.55.34-.88-.06c-.14-.16-.28-.55.29-1.25.19-.23,1-1.12,1.31-1.56m-2.08-4.58a1.72,1.72,0,0,0-.75.14,1.56,1.56,0,0,0-.54.36,8.7,8.7,0,0,1-.06,1c-.08.46-.23,1-.23,1a5.67,5.67,0,0,1,.66-.78,2.47,2.47,0,0,1,.67-.43s0-.38.11-.7.14-.6.14-.6m-2.24,3.52a8.83,8.83,0,0,0,.25-4,5,5,0,0,0-.81-1.63,5,5,0,0,0-.81,1.63,8.83,8.83,0,0,0,.25,4l.56,2.57.56-2.57M45,71s-.09.22-1.17.49-1.55-.94-1.65-1.22c-.43-1.23-1.26-1.35-2-1.61s-2.8-.82-3.17-.93c-1.1-.31-1-.63-.89-.8s1,0,1.51.21a4.33,4.33,0,0,0,1.79.31c.8-.1.91-1,.7-1.66s-5.3-14.69-5.3-14.69h1.43s.52-2.12.86-3a7.42,7.42,0,0,1,1.94-3.28c1.32-.85,1.71,0,1.79.24a1.15,1.15,0,0,1-.23,1.25,1.39,1.39,0,0,0,.45.11,1.32,1.32,0,0,0,1-.48,1.47,1.47,0,0,0,.07-1.75,1.93,1.93,0,0,0,1.37-1.48c.51-1.63-1.25-2.82-1.25-2.82s.07.11-.06.9-1.49,1.14-2.14,1.3a6.66,6.66,0,0,0-3.27,2.24,11.08,11.08,0,0,0-1.41,3H23.06a11.08,11.08,0,0,0-1.41-3A6.66,6.66,0,0,0,18.38,42c-.65-.16-2-.51-2.14-1.3s-.06-.9-.06-.9S14.42,41,14.93,42.65a1.93,1.93,0,0,0,1.37,1.48,1.47,1.47,0,0,0,.07,1.75,1.32,1.32,0,0,0,1,.48,1.39,1.39,0,0,0,.45-.11A1.15,1.15,0,0,1,17.59,45c.07-.23.47-1.09,1.79-.24A7.42,7.42,0,0,1,21.32,48c.34.89.86,3,.86,3h1.43s-5.13,14.19-5.3,14.69-.1,1.56.7,1.66a4.33,4.33,0,0,0,1.79-.31c.52-.17,1.31-.53,1.51-.21s.21.49-.89.8c-.37.11-2.47.68-3.17.93s-1.53.38-2,1.61c-.1.28-.48,1.52-1.65,1.22S13.47,71,13.47,71a4.86,4.86,0,0,0,1.69,2.2,2.5,2.5,0,0,0,3.14-.6,1.6,1.6,0,0,0,1.54.34,1.76,1.76,0,0,0,1-.63,2.27,2.27,0,0,0,.2-.35s-1.07,0-1.28-.51c-.11-.28-.1-.69.94-1.36.33-.21,1.92-1.1,2.58-1.55s1.59-1.14,1.16-2a2,2,0,0,0-1-.93l2.64-10,3.21,5.28h0l3.21-5.28,2.64,10a2,2,0,0,0-1,.93c-.43.85.48,1.54,1.16,2s2.25,1.34,2.58,1.55c1,.67,1.05,1.08.94,1.36-.22.53-1.28.51-1.28.51a2.27,2.27,0,0,0,.2.35,1.76,1.76,0,0,0,1,.63,1.6,1.6,0,0,0,1.54-.34,2.5,2.5,0,0,0,3.14.6A4.94,4.94,0,0,0,45,71M32.35,50.61l-3.12,5.46h0L26.1,50.61h6.25ZM34.11,36.8a2.2,2.2,0,0,0,0-2.36,1.52,1.52,0,0,0-1.83-.56,3.2,3.2,0,0,0-1.78,1.67,13.07,13.07,0,0,0-.62,1.75c-.11.44-.23,1-.23,1l.14,0,.13,0a6.59,6.59,0,0,1,.68-1.67c.3-.49.91-.9,1.47-.4a1.29,1.29,0,0,1,.24,1.52c-.1.17-.28.51-.44.75s-.43.86,0,1.28a.9.9,0,0,0,1.1.25.8.8,0,0,0,.45-.46s-.55.33-.88-.06c-.14-.16-.28-.55.29-1.25.19-.23,1-1.13,1.31-1.57m-4.32-1.06a8.83,8.83,0,0,0,.25-4,5,5,0,0,0-.81-1.63,5,5,0,0,0-.81,1.63,8.83,8.83,0,0,0,.25,4l.56,2.58.56-2.58M27.87,43a3.33,3.33,0,0,0,.7-1.29,3,3,0,0,0,.06-.79l-.27-.08a1.84,1.84,0,0,1-.68,1.39,1.07,1.07,0,0,1-1.42,0c-.09-.07-.66-.56-1.07-.39a.37.37,0,0,0-.25.41,1.65,1.65,0,0,0,.07.26.43.43,0,0,1,.43-.26c.31,0,.55.53.65.66s.46.6.83.6a1.24,1.24,0,0,0,.95-.56m2.33.13a2.94,2.94,0,0,1-.53-.8A2.81,2.81,0,0,1,29.44,41H29a2.81,2.81,0,0,1-.23,1.39,2.94,2.94,0,0,1-.53.8,4.44,4.44,0,0,0,.34.89,6,6,0,0,0,.63.88,6,6,0,0,0,.63-.88,4.44,4.44,0,0,0,.34-.89m-1-2.69c.7,0,1.27-.39,1.27-.87s-.57-.87-1.27-.87S28,39.1,28,39.58s.57.87,1.27.87m1.55,1.79a1.87,1.87,0,0,1-.69-1.39l-.26.08a3,3,0,0,0,.06.79,3.33,3.33,0,0,0,.7,1.29,1.24,1.24,0,0,0,.95.56c.37,0,.73-.47.83-.6s.34-.62.65-.66a.43.43,0,0,1,.43.26,1.65,1.65,0,0,0,.07-.26.37.37,0,0,0-.25-.41c-.41-.17-1,.32-1.07.39a1.07,1.07,0,0,1-1.42,0m-4.61-8.36a1.52,1.52,0,0,0-1.83.56,2.2,2.2,0,0,0,0,2.36c.3.44,1.12,1.34,1.31,1.57.57.7.43,1.09.29,1.25-.33.39-.88.06-.88.06a.8.8,0,0,0,.45.46.88.88,0,0,0,1.09-.25c.4-.42.12-1,0-1.28s-.34-.58-.44-.75a1.27,1.27,0,0,1,.24-1.51c.56-.51,1.17-.1,1.47.39a6.59,6.59,0,0,1,.68,1.67l.13,0,.14,0s-.13-.59-.24-1a10.77,10.77,0,0,0-.62-1.75,3.16,3.16,0,0,0-1.77-1.67M14.43,55.83a8.83,8.83,0,0,0,.25-4,5,5,0,0,0-.81-1.63,5,5,0,0,0-.81,1.63,8.83,8.83,0,0,0,.25,4l.56,2.57.56-2.57m-1.78-1s-.15-.54-.23-1a8.7,8.7,0,0,1-.06-1,1.56,1.56,0,0,0-.54-.36,1.77,1.77,0,0,0-.76-.14,5.56,5.56,0,0,1,.15.6c.07.32.11.7.11.7A2.47,2.47,0,0,1,12,54a6.59,6.59,0,0,1,.66.78M10.81,54A1.53,1.53,0,0,0,9,54.53a2.18,2.18,0,0,0,0,2.36c.3.44,1.12,1.33,1.31,1.56.57.7.43,1.09.29,1.25-.33.4-.88.06-.88.06a.83.83,0,0,0,.45.47A.89.89,0,0,0,11.25,60c.4-.41.12-1,0-1.28s-.34-.57-.44-.75A1.27,1.27,0,0,1,11,56.43c.56-.5,1.17-.09,1.47.4a6.45,6.45,0,0,1,.68,1.67l.13,0,.14,0s-.13-.6-.24-1a10.9,10.9,0,0,0-.62-1.76A3.2,3.2,0,0,0,10.81,54M9.58,62.4a1.78,1.78,0,0,0,.07.25.45.45,0,0,1,.43-.26c.31,0,.55.53.65.66s.46.61.83.61a1.23,1.23,0,0,0,.95-.57,3.35,3.35,0,0,0,.7-1.28,3,3,0,0,0,.06-.8L13,60.94a1.83,1.83,0,0,1-.68,1.38,1.08,1.08,0,0,1-1.42.06c-.09-.08-.66-.56-1.07-.4a.37.37,0,0,0-.25.42m8.58,0a.37.37,0,0,0-.25-.42c-.41-.16-1,.32-1.07.4a1.08,1.08,0,0,1-1.42-.06,1.85,1.85,0,0,1-.69-1.38l-.26.07a2.63,2.63,0,0,0,.06.8,3.35,3.35,0,0,0,.7,1.28,1.23,1.23,0,0,0,.95.57c.37,0,.73-.47.83-.61s.34-.61.65-.66a.45.45,0,0,1,.43.26,1.78,1.78,0,0,0,.07-.25m-3-2.74c0-.48-.57-.87-1.27-.87s-1.27.39-1.27.87.57.87,1.27.87,1.27-.39,1.27-.87m1.39-6.75c.06-.32.14-.6.14-.6a1.73,1.73,0,0,0-.75.14,1.56,1.56,0,0,0-.54.36,8.7,8.7,0,0,1-.06,1c-.08.46-.23,1-.23,1a5.67,5.67,0,0,1,.66-.78,2.47,2.47,0,0,1,.67-.43s0-.38.11-.7m.4,1.05a3.2,3.2,0,0,0-1.77,1.67,11.92,11.92,0,0,0-.63,1.76c-.1.43-.23,1-.23,1l.14,0,.13,0a6.45,6.45,0,0,1,.68-1.67c.3-.49.91-.9,1.47-.4A1.27,1.27,0,0,1,17,57.94c-.1.18-.28.51-.44.75s-.43.87,0,1.28a.89.89,0,0,0,1.09.26.83.83,0,0,0,.45-.47s-.55.34-.88-.06c-.14-.16-.28-.55.29-1.25.19-.23,1-1.12,1.31-1.56a2.2,2.2,0,0,0,0-2.36A1.53,1.53,0,0,0,16.93,54m-4,9.27a4.44,4.44,0,0,0,.34.89,6,6,0,0,0,.63.88,6,6,0,0,0,.63-.88,4.44,4.44,0,0,0,.34-.89,3.15,3.15,0,0,1-.53-.8A2.82,2.82,0,0,1,14.08,61h-.42a2.82,2.82,0,0,1-.23,1.39,3.15,3.15,0,0,1-.53.8m14.45,8.13a7.26,7.26,0,0,1,.66.79s-.15-.54-.23-1a8.47,8.47,0,0,1-.06-1,1.76,1.76,0,0,0-1.29-.5s.08.28.14.6.11.69.11.69a2.47,2.47,0,0,1,.67.43m-3,.5a2.18,2.18,0,0,0,0,2.35c.3.44,1.12,1.34,1.31,1.57.57.7.43,1.09.29,1.25-.33.39-.88.06-.88.06a.8.8,0,0,0,.45.46.88.88,0,0,0,1.09-.25c.4-.41.12-1,0-1.28s-.34-.58-.44-.75a1.27,1.27,0,0,1,.24-1.51c.56-.5,1.17-.1,1.47.39a6.59,6.59,0,0,1,.68,1.68l.13,0,.14,0s-.13-.6-.24-1A11.12,11.12,0,0,0,27.94,73a3.16,3.16,0,0,0-1.77-1.67,1.53,1.53,0,0,0-1.83.57m.6,7.86A1.65,1.65,0,0,0,25,80a.43.43,0,0,1,.43-.26c.31,0,.55.53.65.66s.46.6.83.6a1.2,1.2,0,0,0,.95-.56,3.33,3.33,0,0,0,.7-1.29,3,3,0,0,0,.06-.79l-.27-.07a1.83,1.83,0,0,1-.68,1.38,1.08,1.08,0,0,1-1.42.06c-.09-.08-.66-.57-1.07-.4a.37.37,0,0,0-.25.41m3.32.83a4.66,4.66,0,0,0,.34.9,6.74,6.74,0,0,0,.63.88,6.74,6.74,0,0,0,.63-.88,4.66,4.66,0,0,0,.34-.9,3,3,0,0,1-.53-.79,2.82,2.82,0,0,1-.23-1.39H29a2.82,2.82,0,0,1-.23,1.39,3,3,0,0,1-.53.79m2.33-.13a1.2,1.2,0,0,0,.95.56c.37,0,.73-.47.83-.6s.34-.62.65-.66a.43.43,0,0,1,.43.26,1.65,1.65,0,0,0,.07-.26.37.37,0,0,0-.25-.41c-.41-.17-1,.32-1.07.4a1.08,1.08,0,0,1-1.42-.06,1.85,1.85,0,0,1-.69-1.38l-.26.07a3,3,0,0,0,.06.79,3.33,3.33,0,0,0,.7,1.29m-1.36-4.3c-.7,0-1.27.39-1.27.87s.57.87,1.27.87,1.27-.39,1.27-.87-.57-.87-1.27-.87m0-.39.56-2.58a8.83,8.83,0,0,0,.25-4,5,5,0,0,0-.81-1.62,5,5,0,0,0-.81,1.62,8.83,8.83,0,0,0,.25,4l.56,2.58m2.66-5.49c.06-.32.14-.6.14-.6a1.76,1.76,0,0,0-1.29.5,8.47,8.47,0,0,1-.06,1c-.08.47-.23,1-.23,1a6.17,6.17,0,0,1,.66-.79,2.47,2.47,0,0,1,.67-.43s0-.37.11-.69m2.22,4a2.18,2.18,0,0,0,0-2.35,1.53,1.53,0,0,0-1.83-.57A3.2,3.2,0,0,0,30.51,73a13.59,13.59,0,0,0-.62,1.75c-.11.44-.23,1-.23,1l.14,0,.13,0a6.59,6.59,0,0,1,.68-1.68c.3-.49.91-.89,1.47-.39a1.27,1.27,0,0,1,.24,1.51c-.1.17-.28.51-.44.75s-.43.87,0,1.28a.9.9,0,0,0,1.1.25.8.8,0,0,0,.45-.46s-.55.33-.88-.06c-.14-.16-.28-.55.29-1.25.19-.23,1-1.13,1.31-1.57M45.22,64.12a4.44,4.44,0,0,0,.34-.89,3.15,3.15,0,0,1-.53-.8A2.82,2.82,0,0,1,44.8,61h-.42a2.82,2.82,0,0,1-.23,1.39,3.15,3.15,0,0,1-.53.8,4.44,4.44,0,0,0,.34.89,6,6,0,0,0,.63.88,6,6,0,0,0,.63-.88m-.63-5.33c-.7,0-1.27.39-1.27.87s.57.87,1.27.87,1.27-.39,1.27-.87-.57-.87-1.27-.87m-4,3.19a.37.37,0,0,0-.25.42,1.78,1.78,0,0,0,.07.25.45.45,0,0,1,.43-.26c.31,0,.55.53.65.66s.46.61.83.61a1.23,1.23,0,0,0,.95-.57,3.35,3.35,0,0,0,.7-1.28A2.63,2.63,0,0,0,44,61l-.27-.07A1.83,1.83,0,0,1,43,62.32a1.08,1.08,0,0,1-1.42.06c-.09-.08-.66-.56-1.07-.4M42.71,54a5.67,5.67,0,0,1,.66.78s-.15-.54-.23-1a8.7,8.7,0,0,1-.06-1,1.56,1.56,0,0,0-.54-.36,1.73,1.73,0,0,0-.75-.14s.08.28.14.6.11.7.11.7a2.47,2.47,0,0,1,.67.43m1.21,3.35a10.9,10.9,0,0,0-.62-1.76A3.2,3.2,0,0,0,41.53,54a1.53,1.53,0,0,0-1.83.57,2.18,2.18,0,0,0,0,2.36c.3.44,1.12,1.33,1.31,1.56.57.7.43,1.09.29,1.25-.33.4-.88.06-.88.06a.83.83,0,0,0,.45.47A.89.89,0,0,0,42,60c.4-.41.12-1,0-1.28s-.34-.57-.44-.75a1.27,1.27,0,0,1,.24-1.51c.56-.5,1.17-.09,1.47.4a6.45,6.45,0,0,1,.68,1.67l.13,0,.14,0s-.13-.6-.24-1m2,5.7a1.23,1.23,0,0,0,.95.57c.37,0,.73-.47.83-.61s.34-.61.65-.66a.45.45,0,0,1,.43.26,1.78,1.78,0,0,0,.07-.25.37.37,0,0,0-.25-.42c-.42-.16-1,.32-1.07.4a1.08,1.08,0,0,1-1.42-.06,1.83,1.83,0,0,1-.68-1.38l-.27.07a2.63,2.63,0,0,0,.06.8,3.35,3.35,0,0,0,.7,1.28M32,32.23a1.63,1.63,0,0,0-.75.13,1.65,1.65,0,0,0-.54.37,8.57,8.57,0,0,1-.06,1c-.08.47-.23,1-.23,1a6.39,6.39,0,0,1,.66-.78,2.47,2.47,0,0,1,.67-.43s0-.38.11-.7.14-.59.14-.59m-4,2.5s-.15-.53-.23-1a8.57,8.57,0,0,1-.06-1,1.65,1.65,0,0,0-.54-.37,1.63,1.63,0,0,0-.75-.13s.08.27.14.59.11.7.11.7a2.47,2.47,0,0,1,.67.43,7.58,7.58,0,0,1,.66.78M53.72,10.12a.74.74,0,0,1,.51,0c.55.22.76,1.08.47,1.91a1.62,1.62,0,0,1-1.09,1.15l-2.27,5h0a2,2,0,0,1,2,2h0a2,2,0,0,1-2,2H7.07a2,2,0,0,1-2-2h0a2,2,0,0,1,2-2h0l-2.27-5a1.62,1.62,0,0,1-1.09-1.15c-.29-.83-.08-1.69.46-1.91a.7.7,0,0,1,.4-.05C4.44,5.66,4.28,3.81,1.86,3,4,1.63,5.86,2,7,4.64c.34-.67.45-1,1.12-1.34A7.05,7.05,0,0,1,6.42,9.64,8.14,8.14,0,0,1,12.2,7.42a1.36,1.36,0,0,1-.55,1.11,7.38,7.38,0,0,1,2.56,2.78,7.39,7.39,0,0,1-2.56,2.79,1.34,1.34,0,0,1,.55,1.11A8.1,8.1,0,0,1,6.42,13c.78,1.89,3.34,3.68,4.45,3.68.94,0,3.47-1.44,5.24-3.9a1.79,1.79,0,0,1,1.08-3.34A1.82,1.82,0,0,1,18.77,11a1.78,1.78,0,0,1-.9,1.73c1.77,2.46,4.3,3.9,5.24,3.9A5.68,5.68,0,0,0,27.56,13a8.11,8.11,0,0,1-5.79,2.23,1.36,1.36,0,0,1,.56-1.11,7.31,7.31,0,0,1-2.56-2.79,7.29,7.29,0,0,1,2.56-2.78,1.37,1.37,0,0,1-.56-1.11,8.14,8.14,0,0,1,5.79,2.22,8.08,8.08,0,0,1-2.22-5.78,1.37,1.37,0,0,1,1.11.55,7.26,7.26,0,0,1,2.78-2.55A7.26,7.26,0,0,1,32,4.41a1.37,1.37,0,0,1,1.11-.55A8.08,8.08,0,0,1,30.9,9.64a8.14,8.14,0,0,1,5.79-2.22,1.37,1.37,0,0,1-.56,1.11,7.29,7.29,0,0,1,2.56,2.78,7.31,7.31,0,0,1-2.56,2.79,1.36,1.36,0,0,1,.56,1.11A8.11,8.11,0,0,1,30.9,13a5.68,5.68,0,0,0,4.45,3.68c.94,0,3.47-1.44,5.24-3.9a1.79,1.79,0,0,1,1.08-3.34A1.82,1.82,0,0,1,43.25,11a1.78,1.78,0,0,1-.9,1.73c1.77,2.46,4.3,3.9,5.24,3.9,1.11,0,3.67-1.79,4.45-3.68a8.1,8.1,0,0,1-5.78,2.23,1.34,1.34,0,0,1,.55-1.11,7.31,7.31,0,0,1-2.56-2.79,7.29,7.29,0,0,1,2.56-2.78,1.36,1.36,0,0,1-.55-1.11A8.14,8.14,0,0,1,52,9.64,7.05,7.05,0,0,1,50.37,3.3c.67.34.78.67,1.11,1.34,1.12-2.67,3-3,5.12-1.67-2.42.84-2.81,2.7-2.88,7.15M57.59,1.4a6,6,0,0,0-3.23-1,4.37,4.37,0,0,0-3.12,1.31l0,0a1.85,1.85,0,0,0-2.64,1.25,9.12,9.12,0,0,0-.2,2.87,11.16,11.16,0,0,0-2.1-.2A1.86,1.86,0,0,0,44.4,7.42a3.21,3.21,0,0,0,.06.63L44,8.54a3.62,3.62,0,0,0-2.08-1l-.4,0a3.61,3.61,0,0,0-2.48,1l-.51-.49a3.21,3.21,0,0,0,.06-.63,1.85,1.85,0,0,0-1.85-1.86,11.3,11.3,0,0,0-1.86.15A11.27,11.27,0,0,0,35,3.86,1.86,1.86,0,0,0,33.12,2a3.36,3.36,0,0,0-.63.06A7.5,7.5,0,0,0,30.06.2,1.8,1.8,0,0,0,28.4.2,7.5,7.5,0,0,0,26,2.06,3.36,3.36,0,0,0,25.34,2a1.86,1.86,0,0,0-1.86,1.86,11.27,11.27,0,0,0,.15,1.85,11.3,11.3,0,0,0-1.86-.15,1.85,1.85,0,0,0-1.85,1.86,3.21,3.21,0,0,0,.06.63l-.51.49a3.65,3.65,0,0,0-2.08-1l-.4,0a3.61,3.61,0,0,0-2.48,1L14,8.05a3.21,3.21,0,0,0,.06-.63A1.86,1.86,0,0,0,12.2,5.56a11.16,11.16,0,0,0-2.1.2,9.12,9.12,0,0,0-.2-2.87A1.85,1.85,0,0,0,7.26,1.64l0,0A4.37,4.37,0,0,0,4.1.35a6.07,6.07,0,0,0-3.24,1,1.85,1.85,0,0,0,.39,3.32c1,.34,1.27.76,1.46,4.22A3.52,3.52,0,0,0,2,12.66a3.79,3.79,0,0,0,1.44,1.92l1.19,2.63a3.84,3.84,0,0,0-1.41,2.9v.07h0v0A3.86,3.86,0,0,0,7.07,24H51.39a3.87,3.87,0,0,0,3.85-3.83v-.06a3.83,3.83,0,0,0-1.41-2.93L55,14.58a3.79,3.79,0,0,0,1.44-1.92,3.46,3.46,0,0,0-.85-3.84c.15-3.43.65-3.77,1.6-4.1a1.87,1.87,0,0,0,1.24-1.54,1.85,1.85,0,0,0-.86-1.78"/>
</svg>
