<svg id="Layer_1" data-name="Layer 1" xmlns="http://www.w3.org/2000/svg" viewBox="0 0 30 30"><defs><style>.cls-1{fill:#0061ad;}</style></defs><title>business</title><path id="Path_96" data-name="Path 96" class="cls-1" d="M30,10.37a3.81,3.81,0,0,1-.37.43c-.84.74-1.7,1.47-2.54,2.2a.9.9,0,0,0-.25.33c-.59,1.21-1.17,2.43-1.74,3.65a.31.31,0,0,0,0,.25,2.08,2.08,0,0,1-.77,2.83,2,2,0,0,1-.95.27l-.12,0a2.12,2.12,0,0,1-.61,1.48,2,2,0,0,1-1.5.62A2.1,2.1,0,0,1,19,24.56a2,2,0,0,1-1.35,2A2.09,2.09,0,0,1,15.36,26a2.15,2.15,0,0,1-2.26.87A2.05,2.05,0,0,1,11.5,25a2.11,2.11,0,0,1-2.4-2.1A2.1,2.1,0,0,1,7,20.55,2.1,2.1,0,0,1,5.72,17L4.07,14.81a7.52,7.52,0,0,1-.47-.64,8.78,8.78,0,0,0-1.79-1.76c-.51-.46-1-.89-1.55-1.34A2.27,2.27,0,0,1,0,10.72v-.31c.49-.62,1-1.25,1.48-1.87L5.56,3.48l.07-.08a.6.6,0,0,1,.83-.21l.07.06,3.09,2a1.08,1.08,0,0,0,.29.13c1,.29,2.05.57,3.08.84a.69.69,0,0,0,.35,0l3-.84a1.68,1.68,0,0,1,.5-.07h3.81a.93.93,0,0,0,.4-.12C22,4.53,23,3.9,24,3.28a.63.63,0,0,1,.88,0,.66.66,0,0,1,.12.17l4.84,6.29c.08.1.14.21.21.31ZM16.13,25.08l.27.22a.88.88,0,0,0,1,.08.86.86,0,0,0,.47-.83,1.1,1.1,0,0,0-.37-.73c-.43-.42-.85-.85-1.27-1.28a.59.59,0,0,1-.1-.73.58.58,0,0,1,.67-.25.87.87,0,0,1,.32.22c.45.44.88.89,1.32,1.32a.89.89,0,0,0,1.27,0,1,1,0,0,0,.2-.29.94.94,0,0,0-.26-1.08l-1.55-1.56-.9-.91A.57.57,0,0,1,17,18.7a.59.59,0,0,1,.7-.44.57.57,0,0,1,.32.2c.6.59,1.2,1.2,1.8,1.81.25.25.49.51.75.75a.89.89,0,0,0,1.26,0,.75.75,0,0,0,.18-.28.92.92,0,0,0-.27-1.07q-1.84-1.84-3.67-3.71a.58.58,0,0,1-.12-.83L18,15a.59.59,0,0,1,.83,0,.19.19,0,0,1,.06.07L21.7,18c.32.32.63.65,1,1a.89.89,0,0,0,1.26,0,.83.83,0,0,0,.2-.32.93.93,0,0,0-.3-1l-6.77-6.77a.6.6,0,0,0-.31-.15c-.72-.06-1.44-.09-2.17-.16a.39.39,0,0,0-.44.25c-.41.76-.85,1.52-1.28,2.28a2.11,2.11,0,0,1-2.25,1.07A2.09,2.09,0,0,1,9,11.6a1.79,1.79,0,0,1,.26-.66c.44-.8.89-1.58,1.34-2.38L11.46,7,9.85,6.55a.28.28,0,0,0-.23.11L4.4,13a.2.2,0,0,0,0,.28l0,0c.36.47.71.95,1.06,1.43l1.1,1.47A2.09,2.09,0,0,1,10,17.43a2.09,2.09,0,0,1,2.54,2.05c1.63.35,2.15,1,2.06,2.56a2.1,2.1,0,0,1,1.52,3Zm8-8.83.11-.23,1.43-3a.33.33,0,0,0-.05-.39q-2.4-3-4.78-6.07a.35.35,0,0,0-.31-.15H16.85a1.12,1.12,0,0,0-.36,0L12.63,7.62a.55.55,0,0,0-.29.23c-.39.66-.76,1.34-1.14,2s-.65,1.12-.95,1.69a.88.88,0,0,0,.28,1.23.94.94,0,0,0,.4.13.89.89,0,0,0,.91-.52L13.4,9.62a.68.68,0,0,1,.72-.38c1,.08,1.92.14,2.88.2a1.1,1.1,0,0,1,.74.33Q20.85,12.89,24,16a1.32,1.32,0,0,1,.16.25Zm-20.65-4L8.64,6,6.27,4.48l-4.86,6ZM21.87,6l4.66,5.93,2.07-1.78L24.25,4.48ZM8.18,20.72a1,1,0,0,0,.52.94.83.83,0,0,0,1-.12c.51-.48,1-1,1.48-1.48a.89.89,0,0,0-1.3-1.23c-.47.46-.94.91-1.38,1.39a1.89,1.89,0,0,0-.28.5Zm2.93,3.15a1,1,0,0,0,.79-.33c.41-.41.82-.81,1.23-1.23a2.11,2.11,0,0,0,.19-.23.9.9,0,0,0-.15-1.18.87.87,0,0,0-1.17,0c-.51.49-1,1-1.5,1.51a.8.8,0,0,0-.12.94.84.84,0,0,0,.73.52Zm-3.77-4.5a1.35,1.35,0,0,0,.44-.2,6.57,6.57,0,0,0,.88-.87.89.89,0,0,0-1.27-1.24,11.09,11.09,0,0,0-.84.84.83.83,0,0,0-.12,1,.94.94,0,0,0,.91.52Zm6.33,6.35a1.14,1.14,0,0,0,.39-.14,9.26,9.26,0,0,0,1-1,.84.84,0,0,0-.14-1.14.87.87,0,0,0-1.14-.05,9.66,9.66,0,0,0-.9.91.8.8,0,0,0-.07.93.9.9,0,0,0,.87.49Z"/></svg>