<svg fill="currentColor" data-name="Layer 1" xmlns="http://www.w3.org/2000/svg" viewBox="0 0 30 30"><defs><style>.cls-1{fill:#0061ad;}</style></defs><title>contact-info</title><g id="Group_156" data-name="Group 156"><path id="Path_95" data-name="Path 95" class="cls-1" d="M9.51,13.73a4.42,4.42,0,1,0-7.52,0A3.35,3.35,0,0,0,0,17v4.34A1.67,1.67,0,0,0,1.68,23H9.81a1.67,1.67,0,0,0,1.67-1.67V17A3.36,3.36,0,0,0,9.51,13.73ZM2.87,11.42a2.88,2.88,0,1,1,2.88,2.87,2.89,2.89,0,0,1-2.88-2.87ZM10,21.33a.13.13,0,0,1-.13.13H1.68a.13.13,0,0,1-.13-.13V17a1.87,1.87,0,0,1,.89-1.76A2.8,2.8,0,0,1,3.11,15a4.4,4.4,0,0,0,5.28,0,2.87,2.87,0,0,1,.68.28A1.88,1.88,0,0,1,10,17Z"/><circle id="Ellipse_3" data-name="Ellipse 3" class="cls-1" cx="15.75" cy="10.74" r="1.54"/><rect id="Rectangle_607" data-name="Rectangle 607" class="cls-1" x="18.79" y="9.96" width="8.74" height="1.55"/><circle id="Ellipse_4" data-name="Ellipse 4" class="cls-1" cx="15.75" cy="15.41" r="1.54"/><rect id="Rectangle_608" data-name="Rectangle 608" class="cls-1" x="18.79" y="14.64" width="11.21" height="1.54"/><rect id="Rectangle_609" data-name="Rectangle 609" class="cls-1" x="14.22" y="19.26" width="15.78" height="1.54"/></g></svg>
