<svg fill="currentColor" data-name="Layer 1" xmlns="http://www.w3.org/2000/svg" viewBox="0 0 30 30"><defs><style>.cls-1{fill:#0061ad;}</style></defs><title>customers</title><path id="Path_92" data-name="Path 92" class="cls-1" d="M27.89,13.79a4.09,4.09,0,1,0-7.31-2.54,4,4,0,0,0,.88,2.54,3.14,3.14,0,0,0-1.91,1.86,3.31,3.31,0,0,0-1.39-1,4.1,4.1,0,1,0-6.43,0,3.46,3.46,0,0,0-1.18.74,3.1,3.1,0,0,0-2-2.19A4.09,4.09,0,1,0,1.23,10.7a4,4,0,0,0,.89,2.53A3.15,3.15,0,0,0,0,16.37v4A1.58,1.58,0,0,0,1.56,22H9.1a1.54,1.54,0,0,0,.52-.09,1.55,1.55,0,0,0,1.55,1.54h7.55a1.56,1.56,0,0,0,1.47-1.07,1.36,1.36,0,0,0,.71.17h7.54A1.56,1.56,0,0,0,30,21v-4A3.15,3.15,0,0,0,27.89,13.79Zm-3.22-5.2a2.67,2.67,0,1,1-1.39,4.94,2.66,2.66,0,0,1,1.39-4.94ZM15,9.48a2.67,2.67,0,0,1,1.39,4.95,2.67,2.67,0,0,1-2.78,0A2.67,2.67,0,0,1,15,9.48ZM5.33,8A2.66,2.66,0,0,1,6.72,13,2.6,2.6,0,0,1,4,13,2.66,2.66,0,0,1,5.33,8Zm3.9,12.36a.12.12,0,0,1-.12.13H1.56a.12.12,0,0,1-.12-.13v-4a1.72,1.72,0,0,1,.82-1.63,2.44,2.44,0,0,1,1.15-.34h.18a4.1,4.1,0,0,0,3.49,0h.18a2.44,2.44,0,0,1,1.15.34,1.72,1.72,0,0,1,.82,1.63Zm9.62,1.46a.13.13,0,0,1-.13.12H11.18a.12.12,0,0,1-.13-.12v-4a1.73,1.73,0,0,1,.82-1.63A2.6,2.6,0,0,1,13,15.85h.18a4.08,4.08,0,0,0,1.75.4,4,4,0,0,0,1.74-.4h.19a2.56,2.56,0,0,1,1.14.34,1.76,1.76,0,0,1,.83,1.63Zm9.72-.9a.13.13,0,0,1-.12.13H20.9a.14.14,0,0,1-.13-.13v-4a1.77,1.77,0,0,1,.83-1.64A2.55,2.55,0,0,1,22.74,15h.19a4,4,0,0,0,1.74.39A4.07,4.07,0,0,0,26.42,15h.18a2.59,2.59,0,0,1,1.15.33,1.75,1.75,0,0,1,.82,1.64Z"/></svg>
