<svg fill="currentColor" xmlns="http://www.w3.org/2000/svg" viewBox="0 0 30 29.99">
  <path d="M7.21,30l-.62-.16A3.72,3.72,0,0,1,3.88,26.2V10.33l-.32-.06A1.86,1.86,0,0,1,2,8.42,20.5,20.5,0,0,1,2.06,6.2,2.73,2.73,0,0,1,4.79,3.76c.83,0,1.66,0,2.49,0h.37a10.42,10.42,0,0,1,0-1.25A2.79,2.79,0,0,1,10.52,0h9.2a2.82,2.82,0,0,1,2.9,2.91v.84h2.45a5.63,5.63,0,0,1,.82,0,2.7,2.7,0,0,1,2.29,2.37,16.3,16.3,0,0,1,0,2.42c0,.95-.72,1.55-1.85,1.74v.37c0,5.11,0,10.23,0,15.35A3.79,3.79,0,0,1,23.14,30L23,30ZM5.74,10.32V26.14a1.87,1.87,0,0,0,2,2H22.5a1.88,1.88,0,0,0,2-2V10.32ZM26.38,8.43V6.78c0-.84-.33-1.17-1.17-1.17H4.74a.9.9,0,0,0-.86.78c0,.67,0,1.34,0,2ZM20.75,3.74c0-.31,0-.59,0-.87a.94.94,0,0,0-1-1H10.5a.91.91,0,0,0-1,.75,8.51,8.51,0,0,0,0,1.13Z"/>
  <path d="M7.87,19.22V14c0-.66.31-1,1-1h1.45a.83.83,0,0,1,.89.9q0,5.32,0,10.65a.83.83,0,0,1-.89.89H8.77a.83.83,0,0,1-.9-.91Z"/>
  <path d="M13.47,19.22V14a.85.85,0,0,1,1-1h1.43a.84.84,0,0,1,.9.91V24.54a.84.84,0,0,1-.91.9h-1.5a.83.83,0,0,1-.9-.91Z"/>
  <path d="M22.38,19.24v5.23a.85.85,0,0,1-1,1H20a.83.83,0,0,1-.89-.87V13.87a.83.83,0,0,1,.87-.87h1.55a.84.84,0,0,1,.89.9Z"/>
</svg>
