<svg fill="currentColor" xmlns="http://www.w3.org/2000/svg" viewBox="0 0 30 29.99">
  <path class="cls-1" d="M27.31,0A2.44,2.44,0,0,1,29,.8c2.05,2.06-.32,4.11-.32,4.11l-.7.71L24.3,1.91l.63-.63A3.57,3.57,0,0,1,27.31,0h0m-4.6,3.49,3.73,3.73L13.71,20.09,8.65,21.35l1.26-5.06,12.8-12.8"/>
  <path class="cls-1" d="M27.44,8.21l-.7.72V27.66a.67.67,0,0,1-.66.66H2.34a.66.66,0,0,1-.66-.66V3.92a.66.66,0,0,1,.66-.66H21l.76-.77.59-.58.21-.21.11-.11H2.12A2.12,2.12,0,0,0,0,3.7V27.88A2.13,2.13,0,0,0,2.12,30H26.29a2.13,2.13,0,0,0,2.12-2.12V7.23l-.39.4Z"/>
</svg>
