<svg fill="currentColor" data-name="Layer 1" xmlns="http://www.w3.org/2000/svg" viewBox="0 0 30 30"><defs><style>.cls-1{fill:#e93171;}</style></defs><title>expand</title><path id="Path_129" data-name="Path 129" class="cls-1" d="M0,0H30V30H0ZM28.23,1.77H1.77V28.23H28.23Z"/><path id="Path_130" data-name="Path 130" class="cls-1" d="M26.57,8.56H24.83V6.46l-4.87,5-1.27-1.27,4.88-4.93H21.46V3.46h5.12Z"/><path id="Path_131" data-name="Path 131" class="cls-1" d="M24.82,23.47v-2h1.75v5.1H21.46V24.8h2.05l-4.84-4.89,1.26-1.26,4.8,4.88Z"/><path id="Path_132" data-name="Path 132" class="cls-1" d="M5.18,6.52v2H3.43V3.46H8.54V5.2h-2l4.84,4.88-1.26,1.26L5.26,6.47Z"/><path id="Path_133" data-name="Path 133" class="cls-1" d="M6.41,24.8H8.55v1.73H3.43V21.44H5.16v2l0,0,4.9-4.87,1.21,1.21Z"/></svg>
