<svg fill="currentColor" xmlns="http://www.w3.org/2000/svg" viewBox="0 0 30 30"><defs><style>.cls-1{fill:#0061ad;}</style></defs><title>fees</title><g id="Group_153" data-name="Group 153"><path id="Path_93" data-name="Path 93" class="cls-1" d="M20.49,5.49a9.51,9.51,0,0,0-7.24,3.34H2.14a.73.73,0,0,0-.73.73h0v1.5a.73.73,0,0,0,.73.73h9.39c-.08.23-.15.46-.22.7H.73a.73.73,0,0,0-.73.73H0v1.5a.73.73,0,0,0,.73.73H11c0,.27,0,.53.07.8H1.58A.72.72,0,0,0,.85,17h0v1.49a.73.73,0,0,0,.73.73H12c.13.26.26.51.41.75H1.58a.73.73,0,0,0-.73.73h0v1.49a.73.73,0,0,0,.73.74H15.21A9.51,9.51,0,1,0,20.49,5.49Zm0,17A7.52,7.52,0,1,1,28,15a7.53,7.53,0,0,1-7.51,7.52Z"/><path id="Path_94" data-name="Path 94" class="cls-1" d="M19.59,12.29a1.81,1.81,0,0,1,1.27-.45,2.71,2.71,0,0,1,.8.11,6.26,6.26,0,0,1,.82.31l.62-1.48a5.08,5.08,0,0,0-2.24-.52,3.8,3.8,0,0,0-2.57.9A3.85,3.85,0,0,0,17,13.58h-.85V14.7h.74V15a2.55,2.55,0,0,0,0,.39h-.75v1.13h.87a3.63,3.63,0,0,0,3.82,3.18,4,4,0,0,0,1.87-.37V17.74a4.43,4.43,0,0,1-1.75.37,1.83,1.83,0,0,1-2-1.55H21.1V15.43H18.84V14.7H21.5V13.58H18.94A2.14,2.14,0,0,1,19.59,12.29Z"/></g></svg>
