<svg fill="currentColor" xmlns="http://www.w3.org/2000/svg" viewBox="0 0 30 30">
  <path d="M24.38,30H5.63a1.15,1.15,0,0,1-.72-1.21c0-1.67,0-3.35,0-5v-.32H2.77A2.81,2.81,0,0,1,.11,21.39,3.58,3.58,0,0,0,0,21V9.9a6.68,6.68,0,0,1,.37-1A2.73,2.73,0,0,1,2.77,7.5H4.92V1.09A1,1,0,0,1,6,0H24a1,1,0,0,1,1.07,1.09V7.5h2.15a2.8,2.8,0,0,1,2.66,2c0,.12.07.24.11.36V21a1.27,1.27,0,0,0-.06.18A2.85,2.85,0,0,1,28.69,23a2.79,2.79,0,0,1-1.49.44H25.08v.38c0,1.66,0,3.31,0,5A1.15,1.15,0,0,1,24.38,30Zm.7-8.48.08,0H27a1,1,0,0,0,1.09-1.09q0-5,0-10a.94.94,0,0,0-1-1Q15,9.36,3,9.38a1,1,0,0,0-1.08,1.08c0,1,0,2,0,3,0,2.37,0,4.73,0,7.09a.89.89,0,0,0,.78,1c.74,0,1.49,0,2.26,0V16.09A1,1,0,0,1,6,15H24a.94.94,0,0,1,1,1v5.49ZM6.82,16.89V28.1H23.19V16.89Zm0-9.41H23.18V1.89H6.81Z"/>
  <path d="M24.38,12.17a.93.93,0,0,0,.93.95.94.94,0,1,0-.93-.95Z"/>
  <path d="M24.38,12.17a.94.94,0,1,1,.93.95A.93.93,0,0,1,24.38,12.17Z"/>
  <path d="M15,20.64H9.64a.93.93,0,0,1-.91-1.22.94.94,0,0,1,1-.65H20.32a.93.93,0,0,1,1,.81.91.91,0,0,1-1,1.07Z"/>
  <path d="M15,24.39H9.67a.9.9,0,0,1-.88-.51.93.93,0,0,1,.11-1,1,1,0,0,1,.83-.35h10.7a.94.94,0,0,1,.41,1.77,1.62,1.62,0,0,1-.54.1Z"/>
</svg>
