<svg fill="currentColor"  xmlns="http://www.w3.org/2000/svg" viewBox="0 0 30 30"><defs><style>.cls-1{fill:#0061ad;}</style></defs><title>service-instructions</title><path id="Path_101" data-name="Path 101" class="cls-1" d="M25.61,4.39A14.93,14.93,0,0,0,15,0h0A15,15,0,1,0,25.61,4.39Zm-1,20.22a13.59,13.59,0,0,1-19.22,0,13.59,13.59,0,0,1,0-19.22,13.48,13.48,0,0,1,9.61-4h0A13.59,13.59,0,0,1,28.59,15,13.48,13.48,0,0,1,24.61,24.61Z"/><path id="Path_102" data-name="Path 102" class="cls-1" d="M10.94,24.73h8.12V22.54H16.84V12.16h-5.9v2.19h2.23v8.19H10.94Z"/><circle id="Ellipse_5" data-name="Ellipse 5" class="cls-1" cx="15" cy="8.03" r="2.76"/></svg>
