<svg fill="currentColor"  xmlns="http://www.w3.org/2000/svg" viewBox="0 0 30 30"><defs><style>.cls-1{fill:#0061ad;}</style></defs><title>service-package</title><path id="Path_97" data-name="Path 97" class="cls-1" d="M20,6.45a15.35,15.35,0,0,0-3.69-.58c-.58,0-.47,0-.48-.5a.74.74,0,0,0,0-.21c0-.23.07-.33.29-.41a1.89,1.89,0,0,0,1.16-2.16,1.84,1.84,0,0,0-1.68-1.53,2,2,0,0,0-2.1.84,2,2,0,0,0,.57,2.68,1.54,1.54,0,0,0,.34.17.34.34,0,0,1,.26.38c0,.72,0,.7-.72.75a13.1,13.1,0,0,0-8,3,11.23,11.23,0,0,0-3.7,6.48s0,.1,0,.14,0,0-.07.07c-.22-.23-.45-.46-.69-.67a.83.83,0,0,0-.53-.2.55.55,0,0,0-.5.61.58.58,0,0,0,.13.3A2.74,2.74,0,0,0,3,16.84c1,0,2,0,3,0h.28c-.23.52-.44,1-.67,1.51a.36.36,0,0,1-.15.12l-1.16.48-.43-.86a.55.55,0,0,0-.7-.35l-.07,0c-.87.3-1.74.59-2.59.91-.19.07-.32.26-.48.4v9.49A.64.64,0,0,0,.8,29a.69.69,0,0,0,.19-.1L6.88,26c.48-.23.57-.51.34-1l-.46-.95L7,23.92l3.71-1.85a7.07,7.07,0,0,1,2.82-.7A37.52,37.52,0,0,0,20,20.32c.66-.16,1.34-.28,2-.45a14.94,14.94,0,0,0,1.75-.58A1.84,1.84,0,0,0,24.85,17a1.49,1.49,0,0,0-.05-.21h.47c.74,0,1.48,0,2.22,0a2.49,2.49,0,0,0,2.28-1.12,3.4,3.4,0,0,1,.23-.3V15c-.41-.53-.76-.53-1.18,0-.14.18-.31.34-.51.56-.09-.4-.16-.72-.24-1a11.48,11.48,0,0,0-3.24-5.47A12.91,12.91,0,0,0,20,6.45ZM24.11,10a9.31,9.31,0,0,1,2.11,3c.34.76.56,1.57.83,2.37a1.55,1.55,0,0,1,0,.31H18.15a.42.42,0,0,1-.42-.22,1.77,1.77,0,0,0-1.56-.89c-1.81,0-3.63,0-5.45,0a5.56,5.56,0,0,0-3.13,1,.66.66,0,0,1-.32.12H3.52l-.1,0a10.18,10.18,0,0,1,1-3A10,10,0,0,1,11.53,7.4,17.67,17.67,0,0,1,15.88,7a12.77,12.77,0,0,1,3.74.54A15,15,0,0,1,24.11,10ZM4.77,20c.45-.19.86-.38,1.27-.53a1,1,0,0,0,.65-.69,6.61,6.61,0,0,1,.72-1.43,4.06,4.06,0,0,1,3.47-1.63c1.72,0,3.45,0,5.18,0a.71.71,0,0,1,.78.63v.06a.72.72,0,0,1-.7.72H11.39a.58.58,0,0,0-.59.57.59.59,0,0,0,.58.59h0a1.76,1.76,0,0,0,.23,0H16A1.85,1.85,0,0,0,17.93,17a.3.3,0,0,1,.19-.16h4.95a.71.71,0,0,1,.68.73.45.45,0,0,1,0,.16.75.75,0,0,1-.5.52,16.07,16.07,0,0,1-2.87.79,39,39,0,0,1-7,1.17,8.8,8.8,0,0,0-3.71,1.05c-1,.54-2.11,1.06-3.16,1.59l-.3.14Zm-3.6,7.46V19.82a.28.28,0,0,1,.1-.21L3,19l3,6.11ZM15.28,3.71c-.57,0-.84-.19-.89-.63a.69.69,0,0,1,.47-.83c.61-.12,1,0,1.2.34.3.56-.09,1.12-.78,1.12Z"/></svg>
