<svg fill="currentColor"  xmlns="http://www.w3.org/2000/svg" viewBox="0 0 30 30"><defs><style>.cls-1{fill:#0061ad;}</style></defs><title>software</title><path id="Path_105" data-name="Path 105" class="cls-1" d="M28.59,20.51h-.26s0-.06,0-.09,0-.2,0-.31V6.71c0-1.49-.77-2.32-2.13-2.32H3.77c-1.36,0-2.11.84-2.11,2.35V20.25a1.15,1.15,0,0,0,0,.26H1.25A1.16,1.16,0,0,0,0,21.59a3.61,3.61,0,0,0,3.2,4,2.26,2.26,0,0,0,.45,0H26.34A3.56,3.56,0,0,0,30,22.13v-.19C30,20.94,29.58,20.51,28.59,20.51ZM2.93,13.81V6.65c0-.34.07-.65.39-.78a1.42,1.42,0,0,1,.54-.08H26.17c.72,0,.91.21.91,1V20a2.33,2.33,0,0,0,0,.46H20.75a.6.6,0,0,0-.08-.47l0-.05c-.17-.28-.05-.51.28-.52h.53a1.35,1.35,0,0,0,1.39-1.32v-.06c0-.24,0-.47,0-.71h0c0-.29,0-.57,0-.86a1.33,1.33,0,0,0-1.29-1.25c-.22,0-.43,0-.65,0a.4.4,0,0,1-.29-.2.41.41,0,0,1,.07-.34,6.14,6.14,0,0,1,.43-.45,1.33,1.33,0,0,0,0-1.89c-.34-.36-.69-.71-1-1.05a1.36,1.36,0,0,0-1.93,0v0c-.14.14-.28.28-.43.41a.41.41,0,0,1-.34.06.44.44,0,0,1-.19-.29,5.86,5.86,0,0,1,0-.59,1.35,1.35,0,0,0-1.34-1.35H14.25A1.33,1.33,0,0,0,12.9,10.9v0a5.72,5.72,0,0,1,0,.59.42.42,0,0,1-.19.29.41.41,0,0,1-.34-.07,4.07,4.07,0,0,1-.42-.41,1.39,1.39,0,0,0-1.93,0c-.36.35-.72.7-1.07,1.07a1.34,1.34,0,0,0,0,1.87,4.44,4.44,0,0,1,.43.44.45.45,0,0,1,.08.37.46.46,0,0,1-.3.19H8.53a1.32,1.32,0,0,0-1.34,1.29c0,.54,0,1.07,0,1.6a1.3,1.3,0,0,0,1.08,1.27,7.5,7.5,0,0,0,.82,0c.34,0,.46.24.28.54a.68.68,0,0,0-.11.5H2.9a1.53,1.53,0,0,0,0-.3Zm7.4,6.7a1.38,1.38,0,0,0-1-2.11c-.23,0-.47,0-.71,0a.3.3,0,0,1-.32-.27.09.09,0,0,1,0-.07V16.66a.28.28,0,0,1,.25-.32.11.11,0,0,1,.08,0h.59a1.33,1.33,0,0,0,1.25-.85A1.31,1.31,0,0,0,10.17,14c-.13-.15-.29-.29-.43-.44a.28.28,0,0,1-.06-.4l.06-.06c.33-.33.65-.66,1-1a.31.31,0,0,1,.43-.06l.06.07c.16.15.32.32.49.47a1.31,1.31,0,0,0,1.39.21,1.29,1.29,0,0,0,.87-1.1A5.56,5.56,0,0,0,14,11c0-.24.09-.37.35-.36h1.36c.24,0,.34.11.34.34s0,.48,0,.71a1.31,1.31,0,0,0,.88,1.13,1.33,1.33,0,0,0,1.39-.23c.17-.14.32-.3.47-.45a.32.32,0,0,1,.44-.08.23.23,0,0,1,.07.07l1,1a.29.29,0,0,1,.07.42l-.07.06c-.14.14-.29.28-.42.42a1.3,1.3,0,0,0-.26,1.48,1.32,1.32,0,0,0,1.24.86c.19,0,.39,0,.59,0a.29.29,0,0,1,.34.25.14.14,0,0,1,0,.09V18a.31.31,0,0,1-.34.35,6,6,0,0,0-.74,0,1.29,1.29,0,0,0-1.11.89,1.24,1.24,0,0,0,.12,1.21H10.33Zm16.08,3.83c-1.31,0-2.63,0-3.94,0H3.75a2.3,2.3,0,0,1-2.44-2.16c0-.12,0-.25,0-.38H28.68a2.28,2.28,0,0,1-2,2.53Z"/><path id="Path_106" data-name="Path 106" class="cls-1" d="M17.66,17.35A2.66,2.66,0,1,0,15,20,2.65,2.65,0,0,0,17.66,17.35ZM15,18.93a1.57,1.57,0,1,1,0-3.14h0a1.57,1.57,0,0,1,1.57,1.58h0A1.59,1.59,0,0,1,15,18.93Z"/><path id="Path_107" data-name="Path 107" class="cls-1" d="M17.48,22.43h-5a.66.66,0,0,0-.71.61v0a.65.65,0,0,0,.68.62h0c.82,0,1.65,0,2.47,0h0c.83,0,1.65,0,2.48,0a.65.65,0,0,0,.72-.59v0a.66.66,0,0,0-.68-.64Z"/></svg>
