<svg id="Layer_1" data-name="Layer 1" xmlns="http://www.w3.org/2000/svg" viewBox="0 0 30 30"><defs><style>.cls-1{fill:#0061ad;}</style></defs><title>tag</title><path id="Path_98" data-name="Path 98" class="cls-1" d="M16.6.27a3.69,3.69,0,0,0-2,1L.49,15.43a3.26,3.26,0,0,0-.86,1.38,6.19,6.19,0,0,0-.13.62"/><path id="Path_99" data-name="Path 99" class="cls-1" d="M30,12.89a4.55,4.55,0,0,1-1.55,2.51Q21.87,22,15.31,28.53A4.2,4.2,0,0,1,12.83,30h-.59a3.47,3.47,0,0,1-2-1Q5.62,24.38,1,19.75a3.17,3.17,0,0,1-.85-1.37C.08,18.17,0,18,0,17.75v-.58c.05-.21.08-.42.14-.63A3.27,3.27,0,0,1,1,15.17Q8.07,8.11,15.12,1a3.84,3.84,0,0,1,2-1H28.36c.29.12.57.26.85.41A2.12,2.12,0,0,1,30,1.64ZM28.82,7.27h0V2.15a.84.84,0,0,0-1-1H17.64a2.27,2.27,0,0,0-1.7.71L1.84,16a2,2,0,0,0-.19,2.76,1.89,1.89,0,0,0,.2.2l9.21,9.21a2,2,0,0,0,2.76.19l.17-.18q7.08-7.05,14.13-14.12a2.31,2.31,0,0,0,.7-1.71c0-1.69,0-3.38,0-5.07Z"/><path id="Path_100" data-name="Path 100" class="cls-1" d="M24.65,2.89a2.15,2.15,0,1,1-2.14,2.18V5A2.15,2.15,0,0,1,24.65,2.89Zm1,2.14a1,1,0,0,0-1-1,1,1,0,0,0-1,.95h0a1,1,0,0,0,1,1h0A1,1,0,0,0,25.63,5Z"/></svg>