<svg fill="currentColor" xmlns="http://www.w3.org/2000/svg" xmlns:xlink="http://www.w3.org/1999/xlink" x="0px" y="0px" viewBox="0 0 224 89.2" style="enable-background:new 0 0 224 89.2;" xml:space="preserve">
  <path class="st0" d="M220.2,63.6c-2.5,2.2-6,3.3-10.4,3.3c-4.5,0-8-1.1-10.5-3.3c-2.5-2.2-3.7-5.5-3.7-10.1V32.9h7.3v20.7
	c0,0.9,0.1,1.8,0.2,2.7c0.2,0.9,0.5,1.6,1,2.3c0.5,0.7,1.2,1.2,2.1,1.6c0.9,0.4,2.1,0.6,3.6,0.6c2.6,0,4.4-0.6,5.4-1.7
	c1-1.2,1.5-3,1.5-5.5V32.9h7.3v20.7C224,58,222.8,61.4,220.2,63.6 M169.9,32.9v13.8l13-13.8h9.1L179,46l14.3,20.1h-9.2l-10-15
	l-4.2,4.2v10.7h-7.3V32.9H169.9z M144.7,47.9c1.7,0,2.9-0.4,3.8-1.1c0.8-0.7,1.3-2,1.3-3.6c0-1.6-0.4-2.8-1.3-3.5
	c-0.8-0.7-2.1-1.1-3.8-1.1h-8v9.4H144.7z M147.3,32.9c1.5,0,2.8,0.2,4,0.7c1.2,0.5,2.2,1.1,3.1,2c0.9,0.8,1.5,1.8,2,2.9
	c0.4,1.1,0.7,2.3,0.7,3.6c0,2-0.4,3.7-1.2,5.1c-0.8,1.4-2.2,2.5-4,3.3v0.1c0.9,0.2,1.6,0.6,2.2,1.1c0.6,0.5,1.1,1.1,1.4,1.8
	c0.4,0.7,0.6,1.5,0.8,2.3c0.2,0.8,0.3,1.7,0.4,2.5c0,0.5,0.1,1.1,0.1,1.9c0,0.7,0.1,1.4,0.2,2.2c0.1,0.7,0.2,1.5,0.4,2.1
	c0.2,0.7,0.4,1.2,0.8,1.7h-7.3c-0.4-1.1-0.7-2.3-0.7-3.8c-0.1-1.5-0.2-2.9-0.4-4.2c-0.2-1.7-0.8-3-1.6-3.8c-0.8-0.8-2.1-1.2-4-1.2
	h-7.3v13h-7.3V32.9H147.3z M119.8,63.6c-2.5,2.2-6,3.3-10.4,3.3c-4.5,0-8-1.1-10.5-3.3c-2.5-2.2-3.7-5.5-3.7-10.1V32.9h7.3v20.7
	c0,0.9,0.1,1.8,0.2,2.7c0.2,0.9,0.5,1.6,1,2.3c0.5,0.7,1.2,1.2,2.1,1.6c0.9,0.4,2.1,0.6,3.6,0.6c2.6,0,4.4-0.6,5.4-1.7
	c1-1.2,1.5-3,1.5-5.5V32.9h7.3v20.7C123.6,58,122.4,61.4,119.8,63.6 M64.3,39v-6.1h27.3V39h-10v27.1h-7.3V39H64.3z M52.3,74.7
	c0,5.3-4.3,9.6-9.6,9.6h-8.3c-2.3,0-4.3,0.9-5.5,2.3c-1.2-1.4-3.2-2.3-5.5-2.3h-8.3c-5.3,0-9.6-4.3-9.6-9.6V28.8
	c0-0.4,0.3-0.7,0.7-0.7H29v0h22.6c0.4,0,0.7,0.3,0.7,0.7V74.7z M51.6,25.9H29v0H6.4c-1.6,0-2.9,1.3-2.9,2.9v45.9
	c0,6.5,5.3,11.8,11.8,11.8h8.3c1.1,0,2.2,0.3,2.9,0.8c0.6,0.4,1.1,0.8,1.6,1.4c0.2,0.3,0.6,0.5,1,0.5v0c0.4,0,0.7-0.1,1-0.5
	c0.4-0.6,1-1,1.6-1.4c0.8-0.5,1.8-0.8,2.9-0.8h8.3c6.5,0,11.8-5.3,11.8-11.8V28.8C54.6,27.2,53.3,25.9,51.6,25.9 M49.1,56.5
	c0.2-0.3,0.6-1.4,0-2.3c-0.3-0.5-1-0.9-1.8-0.6c-0.4,0.2-1.2,0.5-1.8,1.7c-0.2,0.4-0.5,1.2-0.6,1.7c-0.1,0.4-0.2,1-0.2,1
	s0.1,0,0.1,0c0.1,0,0.1,0,0.1,0s0.2-1,0.7-1.7c0.3-0.5,0.9-0.9,1.5-0.4c0.3,0.3,0.6,0.9,0.2,1.5c-0.1,0.2-0.3,0.5-0.4,0.7
	c-0.2,0.2-0.4,0.9,0,1.3c0.2,0.2,0.5,0.5,1.1,0.3c0.3-0.1,0.4-0.5,0.4-0.5s-0.5,0.3-0.9-0.1c-0.1-0.2-0.3-0.5,0.3-1.2
	C48,57.8,48.8,56.9,49.1,56.5 M47,51.9c0,0-0.4,0-0.7,0.1c-0.4,0.2-0.5,0.4-0.5,0.4s0,0.6-0.1,1c-0.1,0.5-0.2,1-0.2,1
	s0.4-0.5,0.7-0.8c0.3-0.3,0.7-0.4,0.7-0.4s0-0.4,0.1-0.7C47,52.2,47,51.9,47,51.9 M44.8,55.4c0.5-2,0.5-3,0.3-4
	c-0.1-0.8-0.8-1.6-0.8-1.6s-0.7,0.9-0.8,1.6c-0.2,1-0.2,2,0.3,4c0.1,0.5,0.6,2.6,0.6,2.6S44.7,55.9,44.8,55.4 M44.7,70.4
	c0,0-0.1,0.2-1.2,0.5c-1.2,0.3-1.5-0.9-1.6-1.2c-0.4-1.2-1.2-1.3-1.9-1.6c-0.7-0.2-2.8-0.8-3.1-0.9c-1.1-0.3-1-0.6-0.9-0.8
	c0.2-0.3,1,0,1.5,0.2c0.8,0.3,1.4,0.4,1.8,0.3c0.8-0.1,0.9-1,0.7-1.6c-0.2-0.5-5.3-14.6-5.3-14.6H36c0,0,0.5-2.1,0.9-3
	c0.8-2.2,1.7-3.1,1.9-3.3c1.3-0.8,1.7,0,1.8,0.2c0.3,0.8-0.2,1.2-0.2,1.2s0.2,0.1,0.5,0.1c0.4,0,0.7-0.2,1-0.5
	c0.7-0.8,0.1-1.7,0.1-1.7s1-0.2,1.4-1.5c0.5-1.6-1.2-2.8-1.2-2.8s0.1,0.1-0.1,0.9c-0.1,0.8-1.5,1.1-2.1,1.3
	c-1.5,0.4-2.6,1.5-3.2,2.2c-0.8,0.9-1.4,3-1.4,3H29h0h-6.1c0,0-0.6-2.1-1.4-3c-0.6-0.7-1.7-1.9-3.2-2.2c-0.6-0.2-2-0.5-2.1-1.3
	c-0.1-0.8-0.1-0.9-0.1-0.9s-1.7,1.2-1.2,2.8c0.4,1.3,1.4,1.5,1.4,1.5s-0.6,1,0.1,1.7c0.3,0.3,0.6,0.5,1,0.5c0.2,0,0.5-0.1,0.5-0.1
	s-0.5-0.4-0.2-1.2c0.1-0.2,0.5-1.1,1.8-0.2c0.3,0.2,1.1,1,1.9,3.3c0.3,0.9,0.9,3,0.9,3h1.4c0,0-5.1,14.1-5.3,14.6
	c-0.2,0.6-0.1,1.5,0.7,1.6c0.4,0.1,1,0,1.8-0.3c0.5-0.2,1.3-0.5,1.5-0.2c0.1,0.2,0.2,0.5-0.9,0.8c-0.4,0.1-2.4,0.7-3.1,0.9
	c-0.7,0.3-1.5,0.4-1.9,1.6c-0.1,0.3-0.5,1.5-1.6,1.2c-1.1-0.3-1.2-0.5-1.2-0.5s0.7,1.7,1.7,2.2c1.9,1,3.1-0.6,3.1-0.6
	s0.5,0.6,1.5,0.3c0.4-0.1,0.7-0.3,1-0.6c0.1-0.1,0.2-0.3,0.2-0.3s-1.1,0-1.3-0.5c-0.1-0.3-0.1-0.7,0.9-1.4c0.3-0.2,1.9-1.1,2.6-1.5
	c0.7-0.5,1.6-1.1,1.1-2c-0.3-0.7-1-0.9-1-0.9l2.6-10l3.2,5.2h0l3.2-5.2l2.6,10c0,0-0.7,0.3-1,0.9c-0.4,0.8,0.5,1.5,1.1,2
	c0.7,0.4,2.2,1.3,2.6,1.5c1,0.7,1,1.1,0.9,1.4c-0.2,0.5-1.3,0.5-1.3,0.5s0.1,0.2,0.2,0.3c0.2,0.3,0.6,0.5,1,0.6
	c1,0.2,1.5-0.3,1.5-0.3s1.2,1.6,3.1,0.6C44,72.1,44.7,70.4,44.7,70.4 M32.1,50.2L29,55.7h0l-3.1-5.4H29h0H32.1z M33.9,36.5
	c0.2-0.3,0.6-1.4,0-2.3c-0.3-0.5-1-0.9-1.8-0.6c-0.4,0.2-1.2,0.5-1.8,1.7c-0.2,0.4-0.5,1.2-0.6,1.7c-0.1,0.4-0.2,1-0.2,1
	s0.1,0,0.1,0c0.1,0,0.1,0,0.1,0s0.2-1,0.7-1.7c0.3-0.5,0.9-0.9,1.5-0.4c0.3,0.3,0.6,0.9,0.2,1.5c-0.1,0.2-0.3,0.5-0.4,0.7
	c-0.2,0.2-0.4,0.9,0,1.3c0.2,0.2,0.5,0.5,1.1,0.3c0.3-0.1,0.4-0.5,0.4-0.5s-0.5,0.3-0.9-0.1c-0.1-0.2-0.3-0.5,0.3-1.2
	C32.7,37.9,33.6,37,33.9,36.5 M29.6,35.5c0.5-2,0.5-3,0.3-4c-0.2-0.8-0.8-1.6-0.8-1.6s-0.7,0.9-0.8,1.6c-0.2,1-0.2,2,0.3,4
	C28.6,36,29,38,29,38S29.5,36,29.6,35.5 M27.7,42.7c0.1-0.1,0.5-0.6,0.7-1.3c0.1-0.4,0.1-0.8,0.1-0.8l-0.3-0.1c0,0,0,0.9-0.7,1.4
	c-0.4,0.3-0.8,0.5-1.4,0.1c-0.1-0.1-0.7-0.6-1.1-0.4c-0.1,0.1-0.3,0.2-0.2,0.4c0,0.1,0.1,0.3,0.1,0.3s0.1-0.3,0.4-0.3
	c0.3,0,0.5,0.5,0.6,0.7c0.1,0.1,0.5,0.6,0.8,0.6C26.9,43.2,27.3,43.2,27.7,42.7 M30,42.8c0,0-0.3-0.3-0.5-0.8
	c-0.3-0.7-0.2-1.4-0.2-1.4s-0.1,0-0.1,0c0,0-0.1,0-0.1,0s-0.1,0-0.1,0c0,0-0.1,0-0.1,0s0.1,0.7-0.2,1.4c-0.2,0.5-0.5,0.8-0.5,0.8
	s0.1,0.5,0.3,0.9c0.3,0.5,0.6,0.9,0.6,0.9s0.4-0.4,0.6-0.9C29.9,43.3,30,42.8,30,42.8 M29,40.1c0.7,0,1.3-0.4,1.3-0.9
	c0-0.5-0.6-0.9-1.3-0.9c-0.7,0-1.3,0.4-1.3,0.9C27.8,39.8,28.3,40.1,29,40.1 M30.6,41.9c-0.7-0.5-0.7-1.4-0.7-1.4l-0.3,0.1
	c0,0,0,0.4,0.1,0.8c0.2,0.6,0.6,1.1,0.7,1.3c0.4,0.5,0.7,0.6,0.9,0.6c0.4,0,0.7-0.5,0.8-0.6c0.1-0.1,0.3-0.6,0.6-0.7
	c0.3,0,0.4,0.3,0.4,0.3s0.1-0.2,0.1-0.3c0-0.2-0.1-0.4-0.2-0.4c-0.4-0.2-1,0.3-1.1,0.4C31.4,42.4,30.9,42.2,30.6,41.9 M26,33.6
	c-0.8-0.3-1.5,0.1-1.8,0.6c-0.6,1-0.2,2,0,2.3c0.3,0.4,1.1,1.3,1.3,1.6c0.6,0.7,0.4,1.1,0.3,1.2c-0.3,0.4-0.9,0.1-0.9,0.1
	s0.1,0.3,0.4,0.5c0.6,0.2,0.9,0,1.1-0.3c0.4-0.4,0.1-1,0-1.3c-0.2-0.2-0.3-0.6-0.4-0.7c-0.3-0.6-0.1-1.2,0.2-1.5
	c0.6-0.5,1.2-0.1,1.5,0.4c0.4,0.7,0.7,1.7,0.7,1.7s0.1,0,0.1,0c0.1,0,0.1,0,0.1,0s-0.1-0.6-0.2-1c-0.1-0.6-0.4-1.3-0.6-1.7
	C27.2,34.1,26.3,33.8,26,33.6 M14.3,55.4c0.5-2,0.5-3,0.3-4c-0.2-0.8-0.8-1.6-0.8-1.6s-0.7,0.9-0.8,1.6c-0.2,1-0.2,2,0.3,4
	c0.1,0.5,0.6,2.6,0.6,2.6S14.2,55.9,14.3,55.4 M12.6,54.4c0,0-0.2-0.5-0.2-1c-0.1-0.4-0.1-1-0.1-1s-0.2-0.2-0.5-0.4
	c-0.4-0.2-0.7-0.1-0.7-0.1s0.1,0.3,0.1,0.6c0.1,0.3,0.1,0.7,0.1,0.7s0.4,0.1,0.7,0.4C12.2,53.9,12.6,54.4,12.6,54.4 M10.7,53.6
	c-0.8-0.3-1.5,0.1-1.8,0.6c-0.6,1-0.2,2,0,2.3c0.3,0.4,1.1,1.3,1.3,1.6c0.6,0.7,0.4,1.1,0.3,1.2c-0.3,0.4-0.9,0.1-0.9,0.1
	s0.1,0.3,0.4,0.5c0.6,0.2,0.9,0,1.1-0.3c0.4-0.4,0.1-1,0-1.3c-0.2-0.2-0.3-0.6-0.4-0.7c-0.3-0.6-0.1-1.2,0.2-1.5
	c0.6-0.5,1.2-0.1,1.5,0.4c0.4,0.7,0.7,1.7,0.7,1.7s0.1,0,0.1,0c0.1,0,0.1,0,0.1,0s-0.1-0.6-0.2-1c-0.1-0.6-0.4-1.3-0.6-1.7
	C11.9,54.1,11.1,53.7,10.7,53.6 M9.5,61.9c0,0.1,0.1,0.3,0.1,0.3s0.1-0.3,0.4-0.3c0.3,0,0.5,0.5,0.6,0.7c0.1,0.1,0.5,0.6,0.8,0.6
	c0.2,0,0.5-0.1,0.9-0.6c0.1-0.1,0.5-0.6,0.7-1.3c0.1-0.4,0.1-0.8,0.1-0.8l-0.3-0.1c0,0,0,0.9-0.7,1.4c-0.4,0.3-0.8,0.5-1.4,0.1
	c-0.1-0.1-0.7-0.6-1.1-0.4C9.6,61.6,9.5,61.7,9.5,61.9 M18,61.9c0-0.2-0.1-0.4-0.2-0.4c-0.4-0.2-1,0.3-1.1,0.4
	c-0.6,0.4-1,0.2-1.4-0.1c-0.7-0.5-0.7-1.4-0.7-1.4l-0.3,0.1c0,0,0,0.4,0.1,0.8c0.2,0.6,0.6,1.1,0.7,1.3c0.4,0.5,0.7,0.6,0.9,0.6
	c0.4,0,0.7-0.5,0.8-0.6c0.1-0.1,0.3-0.6,0.6-0.7c0.3,0,0.4,0.3,0.4,0.3S18,62,18,61.9 M15,59.2c0-0.5-0.6-0.9-1.3-0.9
	c-0.7,0-1.3,0.4-1.3,0.9c0,0.5,0.6,0.9,1.3,0.9C14.5,60.1,15,59.7,15,59.2 M16.4,52.5c0.1-0.3,0.1-0.6,0.1-0.6s-0.4,0-0.7,0.1
	c-0.4,0.2-0.5,0.4-0.5,0.4s0,0.6-0.1,1c-0.1,0.5-0.2,1-0.2,1s0.4-0.5,0.7-0.8c0.3-0.3,0.7-0.4,0.7-0.4S16.3,52.8,16.4,52.5
	 M16.8,53.6c-0.4,0.2-1.2,0.5-1.8,1.7c-0.2,0.4-0.5,1.2-0.6,1.7c-0.1,0.4-0.2,1-0.2,1s0.1,0,0.1,0c0.1,0,0.1,0,0.1,0s0.2-1,0.7-1.7
	c0.3-0.5,0.9-0.9,1.5-0.4c0.3,0.3,0.6,0.9,0.2,1.5c-0.1,0.2-0.3,0.5-0.4,0.7c-0.2,0.2-0.4,0.9,0,1.3c0.2,0.2,0.5,0.5,1.1,0.3
	c0.3-0.1,0.4-0.5,0.4-0.5s-0.5,0.3-0.9-0.1c-0.1-0.2-0.3-0.5,0.3-1.2c0.2-0.2,1-1.1,1.3-1.6c0.2-0.3,0.6-1.4,0-2.3
	C18.3,53.7,17.6,53.2,16.8,53.6 M12.8,62.8c0,0,0.1,0.5,0.3,0.9c0.3,0.5,0.6,0.9,0.6,0.9s0.4-0.4,0.6-0.9c0.2-0.4,0.3-0.9,0.3-0.9
	s-0.3-0.3-0.5-0.8c-0.3-0.7-0.2-1.4-0.2-1.4s-0.1,0-0.1,0c0,0-0.1,0-0.1,0s-0.1,0-0.1,0c0,0-0.1,0-0.1,0s0.1,0.7-0.2,1.4
	C13.1,62.4,12.8,62.8,12.8,62.8 M27.1,70.8c0.3,0.3,0.7,0.8,0.7,0.8s-0.2-0.5-0.2-1c-0.1-0.4-0.1-1-0.1-1s-0.2-0.2-0.5-0.4
	c-0.4-0.2-0.7-0.1-0.7-0.1s0.1,0.3,0.1,0.6c0.1,0.3,0.1,0.7,0.1,0.7S26.8,70.6,27.1,70.8 M24.2,71.3c-0.6,1-0.2,2,0,2.3
	c0.3,0.4,1.1,1.3,1.3,1.6c0.6,0.7,0.4,1.1,0.3,1.2c-0.3,0.4-0.9,0.1-0.9,0.1s0.1,0.3,0.4,0.5c0.6,0.2,0.9,0,1.1-0.3
	c0.4-0.4,0.1-1,0-1.3c-0.2-0.2-0.3-0.6-0.4-0.7c-0.3-0.6-0.1-1.2,0.2-1.5c0.6-0.5,1.2-0.1,1.5,0.4c0.4,0.7,0.7,1.7,0.7,1.7
	s0.1,0,0.1,0c0.1,0,0.1,0,0.1,0s-0.1-0.6-0.2-1c-0.1-0.6-0.4-1.3-0.6-1.7c-0.6-1.2-1.4-1.5-1.8-1.7C25.2,70.4,24.5,70.9,24.2,71.3
	 M24.8,79.1c0,0.1,0.1,0.3,0.1,0.3s0.1-0.3,0.4-0.3c0.3,0,0.5,0.5,0.6,0.7c0.1,0.1,0.5,0.6,0.8,0.6c0.2,0,0.5-0.1,0.9-0.6
	c0.1-0.1,0.5-0.6,0.7-1.3c0.1-0.4,0.1-0.8,0.1-0.8l-0.3-0.1c0,0,0,0.9-0.7,1.4c-0.4,0.3-0.8,0.5-1.4,0.1C26,79,25.4,78.6,25,78.7
	C24.9,78.8,24.7,78.9,24.8,79.1 M28.1,80c0,0,0.1,0.5,0.3,0.9c0.3,0.5,0.6,0.9,0.6,0.9s0.4-0.4,0.6-0.9C29.9,80.5,30,80,30,80
	s-0.3-0.3-0.5-0.8c-0.3-0.7-0.2-1.4-0.2-1.4s-0.1,0-0.1,0c0,0-0.1,0-0.1,0s-0.1,0-0.1,0c0,0-0.1,0-0.1,0s0.1,0.7-0.2,1.4
	C28.4,79.6,28.1,80,28.1,80 M30.4,79.8c0.4,0.5,0.7,0.6,0.9,0.6c0.4,0,0.7-0.5,0.8-0.6c0.1-0.1,0.3-0.6,0.6-0.7
	c0.3,0,0.4,0.3,0.4,0.3s0.1-0.2,0.1-0.3c0-0.2-0.1-0.4-0.2-0.4c-0.4-0.2-1,0.3-1.1,0.4c-0.6,0.4-1,0.2-1.4-0.1
	c-0.7-0.5-0.7-1.4-0.7-1.4l-0.3,0.1c0,0,0,0.4,0.1,0.8C29.8,79.2,30.2,79.7,30.4,79.8 M29,75.6c-0.7,0-1.3,0.4-1.3,0.9
	s0.6,0.9,1.3,0.9c0.7,0,1.3-0.4,1.3-0.9S29.7,75.6,29,75.6 M29,75.2c0,0,0.4-2.1,0.6-2.6c0.5-2,0.5-3,0.3-4C29.7,67.9,29,67,29,67
	s-0.7,0.9-0.8,1.6c-0.2,1-0.2,2,0.3,4C28.6,73.1,29,75.2,29,75.2 M31.7,69.7c0.1-0.3,0.1-0.6,0.1-0.6s-0.4,0-0.7,0.1
	c-0.4,0.2-0.5,0.4-0.5,0.4s0,0.6-0.1,1c-0.1,0.5-0.2,1-0.2,1s0.4-0.5,0.7-0.8c0.3-0.3,0.7-0.4,0.7-0.4S31.6,70,31.7,69.7 M33.9,73.7
	c0.2-0.3,0.6-1.4,0-2.3c-0.3-0.5-1-0.9-1.8-0.6c-0.4,0.2-1.2,0.5-1.8,1.7c-0.2,0.4-0.5,1.2-0.6,1.7c-0.1,0.4-0.2,1-0.2,1
	s0.1,0,0.1,0c0.1,0,0.1,0,0.1,0s0.2-1,0.7-1.7c0.3-0.5,0.9-0.9,1.5-0.4c0.3,0.3,0.6,0.9,0.2,1.5c-0.1,0.2-0.3,0.5-0.4,0.7
	c-0.2,0.2-0.4,0.9,0,1.3c0.2,0.2,0.5,0.5,1.1,0.3c0.3-0.1,0.4-0.5,0.4-0.5s-0.5,0.3-0.9-0.1c-0.1-0.2-0.3-0.5,0.3-1.2
	C32.7,75,33.6,74.1,33.9,73.7 M44.9,63.6c0.2-0.4,0.3-0.9,0.3-0.9s-0.3-0.3-0.5-0.8c-0.3-0.7-0.2-1.4-0.2-1.4s-0.1,0-0.1,0
	c0,0-0.1,0-0.1,0s-0.1,0-0.1,0s-0.1,0-0.1,0s0.1,0.7-0.2,1.4c-0.2,0.5-0.5,0.8-0.5,0.8s0.1,0.5,0.3,0.9c0.3,0.5,0.6,0.9,0.6,0.9
	S44.6,64.1,44.9,63.6 M44.3,58.4c-0.7,0-1.3,0.4-1.3,0.9c0,0.5,0.6,0.9,1.3,0.9c0.7,0,1.3-0.4,1.3-0.9C45.5,58.7,45,58.4,44.3,58.4
	 M40.2,61.5c-0.1,0.1-0.3,0.2-0.2,0.4c0,0.1,0.1,0.3,0.1,0.3s0.1-0.3,0.4-0.3c0.3,0,0.5,0.5,0.6,0.7c0.1,0.1,0.5,0.6,0.8,0.6
	c0.2,0,0.5-0.1,0.9-0.6c0.1-0.1,0.5-0.6,0.7-1.3c0.1-0.4,0.1-0.8,0.1-0.8l-0.3-0.1c0,0,0,0.9-0.7,1.4c-0.4,0.3-0.8,0.5-1.4,0.1
	C41.2,61.8,40.7,61.4,40.2,61.5 M42.4,53.6c0.3,0.3,0.7,0.8,0.7,0.8s-0.2-0.5-0.2-1c-0.1-0.4-0.1-1-0.1-1s-0.2-0.2-0.5-0.4
	c-0.4-0.2-0.7-0.1-0.7-0.1s0.1,0.3,0.1,0.6c0.1,0.3,0.1,0.7,0.1,0.7S42.1,53.4,42.4,53.6 M43.6,57c-0.1-0.6-0.4-1.3-0.6-1.7
	c-0.6-1.2-1.4-1.5-1.8-1.7c-0.8-0.3-1.5,0.1-1.8,0.6c-0.6,1-0.2,2,0,2.3c0.3,0.4,1.1,1.3,1.3,1.6c0.6,0.7,0.4,1.1,0.3,1.2
	c-0.3,0.4-0.9,0.1-0.9,0.1s0.1,0.3,0.4,0.5c0.6,0.2,0.9,0,1.1-0.3c0.4-0.4,0.1-1,0-1.3c-0.2-0.2-0.3-0.6-0.4-0.7
	c-0.3-0.6-0.1-1.2,0.2-1.5c0.6-0.5,1.2-0.1,1.5,0.4c0.4,0.7,0.7,1.7,0.7,1.7s0.1,0,0.1,0c0.1,0,0.1,0,0.1,0S43.7,57.4,43.6,57
	 M45.6,62.6c0.4,0.5,0.7,0.6,0.9,0.6c0.4,0,0.7-0.5,0.8-0.6c0.1-0.1,0.3-0.6,0.6-0.7c0.3,0,0.4,0.3,0.4,0.3s0.1-0.2,0.1-0.3
	c0-0.2-0.1-0.4-0.2-0.4c-0.4-0.2-1,0.3-1.1,0.4c-0.6,0.4-1,0.2-1.4-0.1c-0.7-0.5-0.7-1.4-0.7-1.4l-0.3,0.1c0,0,0,0.4,0.1,0.8
	C45.1,62,45.5,62.5,45.6,62.6 M31.8,32c0,0-0.4,0-0.7,0.1c-0.4,0.2-0.5,0.4-0.5,0.4s0,0.6-0.1,1c-0.1,0.5-0.2,1-0.2,1
	s0.4-0.5,0.7-0.8c0.3-0.3,0.7-0.4,0.7-0.4s0-0.4,0.1-0.7C31.7,32.3,31.8,32,31.8,32 M27.8,34.5c0,0-0.2-0.5-0.2-1
	c-0.1-0.4-0.1-1-0.1-1s-0.2-0.2-0.5-0.4C26.6,32,26.2,32,26.2,32s0.1,0.3,0.1,0.6c0.1,0.3,0.1,0.7,0.1,0.7s0.4,0.1,0.7,0.4
	C27.5,34,27.8,34.5,27.8,34.5 M53.3,10c0.2-0.1,0.3,0,0.5,0c0.5,0.2,0.8,1.1,0.5,1.9c-0.2,0.6-0.6,1.1-1.1,1.1l-2.3,5h0
	c1.1,0,2,0.9,2,2v0v0v0c0,1.1-0.9,2-2,2H7c-1.1,0-2-0.9-2-2c0,0,0,0,0,0v0c0,0,0,0,0,0c0-1.1,0.9-2,2-2h0l-2.3-5
	C4.4,13,3.9,12.6,3.7,12c-0.3-0.8-0.1-1.7,0.5-1.9C4.3,10,4.5,10,4.6,10C4.4,5.6,4.2,3.8,1.8,2.9c2.1-1.3,4-1,5.1,1.7
	c0.3-0.7,0.4-1,1.1-1.3c0.6,2.4-0.1,4.3-1.7,6.3c1.7-1.7,3.9-2.2,5.7-2.2c0,0.3-0.1,0.8-0.6,1.1c1.4,1.1,2,1.7,2.5,2.8
	c-0.6,1.1-1.1,1.7-2.5,2.8c0.4,0.3,0.6,0.8,0.6,1.1c-1.9,0-4.1-0.6-5.7-2.2c0.8,1.9,3.3,3.6,4.4,3.6c0.9,0,3.4-1.4,5.2-3.9
	c-0.5-0.3-0.9-0.9-0.9-1.5c0-1,0.9-1.9,2-1.8c0.8,0.1,1.5,0.8,1.6,1.6c0.1,0.7-0.3,1.4-0.9,1.7c1.8,2.4,4.3,3.9,5.2,3.9
	c1.1,0,3.9-1.4,4.4-3.6c-1.7,1.7-3.9,2.2-5.7,2.2c0-0.3,0.1-0.8,0.6-1.1c-1.4-1.1-2-1.7-2.5-2.8c0.6-1.1,1.1-1.7,2.5-2.8
	c-0.4-0.3-0.6-0.8-0.6-1.1c1.9,0,4.1,0.6,5.7,2.2c-1.7-1.7-2.2-3.9-2.2-5.7c0.3,0,0.8,0.1,1.1,0.6c1.1-1.4,1.7-2,2.8-2.5
	c1.1,0.6,1.7,1.1,2.8,2.5c0.3-0.4,0.8-0.6,1.1-0.6c0,1.9-0.6,4.1-2.2,5.7c1.7-1.7,3.9-2.2,5.7-2.2c0,0.3-0.1,0.8-0.6,1.1
	c1.4,1.1,2,1.7,2.5,2.8c-0.6,1.1-1.1,1.7-2.5,2.8c0.4,0.3,0.6,0.8,0.6,1.1c-1.9,0-4.1-0.6-5.7-2.2c0.6,2.2,3.3,3.6,4.4,3.6
	c0.9,0,3.4-1.4,5.2-3.9c-0.5-0.3-0.9-0.9-0.9-1.5c0-1,0.9-1.9,2-1.8c0.8,0.1,1.5,0.8,1.6,1.6c0.1,0.7-0.3,1.4-0.9,1.7
	c1.8,2.4,4.3,3.9,5.2,3.9c1.1,0,3.6-1.8,4.4-3.6c-1.7,1.7-3.9,2.2-5.7,2.2c0-0.3,0.1-0.8,0.6-1.1c-1.4-1.1-2-1.7-2.5-2.8
	c0.6-1.1,1.1-1.7,2.5-2.8c-0.4-0.3-0.6-0.8-0.6-1.1c1.9,0,4.1,0.6,5.7,2.2c-1.5-2-2.2-3.9-1.7-6.3c0.7,0.3,0.8,0.7,1.1,1.3
	c1.1-2.7,3-3,5.1-1.7C53.8,3.8,53.4,5.6,53.3,10 M57.2,1.4c-1.1-0.7-2.2-1-3.2-1c-0.8,0-2,0.2-3.1,1.3c0,0,0,0,0,0
	c-0.5-0.3-1.1-0.3-1.6,0c-0.5,0.2-0.9,0.7-1,1.3c-0.2,1-0.3,1.9-0.2,2.8c-0.7-0.1-1.4-0.2-2.1-0.2c-1,0-1.8,0.8-1.8,1.8
	c0,0.2,0,0.4,0.1,0.6c-0.2,0.2-0.3,0.3-0.5,0.5c-0.6-0.5-1.3-0.9-2.1-1c-0.1,0-0.3,0-0.4,0c-1,0-1.8,0.4-2.5,1
	c-0.2-0.2-0.3-0.3-0.5-0.5c0-0.2,0.1-0.4,0.1-0.6c0-1-0.8-1.8-1.8-1.8c-0.6,0-1.2,0-1.8,0.1c0.1-0.6,0.1-1.2,0.1-1.8
	c0-1-0.8-1.8-1.8-1.8c-0.2,0-0.4,0-0.6,0.1c-0.7-0.8-1.4-1.3-2.4-1.9c-0.5-0.3-1.1-0.3-1.6,0c-1,0.5-1.7,1-2.4,1.9
	C25.6,2,25.4,2,25.1,2c-1,0-1.8,0.8-1.8,1.8c0,0.6,0.1,1.2,0.1,1.8c-0.6-0.1-1.2-0.1-1.8-0.1c-1,0-1.8,0.8-1.8,1.8
	c0,0.2,0,0.4,0.1,0.6c-0.2,0.2-0.3,0.3-0.5,0.5c-0.6-0.5-1.3-0.9-2.1-1c-0.1,0-0.3,0-0.4,0c-1,0-1.8,0.4-2.5,1
	c-0.2-0.2-0.3-0.3-0.5-0.5c0-0.2,0.1-0.4,0.1-0.6c0-1-0.8-1.8-1.8-1.8c-0.7,0-1.4,0.1-2.1,0.2c0.1-0.9,0-1.9-0.2-2.8
	c-0.1-0.6-0.5-1-1-1.3c-0.5-0.2-1.1-0.2-1.6,0c0,0,0,0,0,0C6.1,0.6,4.8,0.3,4.1,0.3c-1,0-2.1,0.4-3.2,1C0.3,1.8-0.1,2.5,0,3.2
	c0.1,0.7,0.6,1.3,1.2,1.5c1,0.3,1.3,0.8,1.5,4.2C1.8,9.7,1.5,11.1,2,12.6c0.3,0.8,0.8,1.5,1.4,1.9l1.2,2.6c-0.8,0.7-1.4,1.7-1.4,2.9
	c0,0,0,0,0,0.1v0v0c0,2.1,1.7,3.8,3.8,3.8h44c2.1,0,3.8-1.7,3.8-3.8c0,0,0,0,0,0c0,0,0,0,0,0c0-1.2-0.6-2.2-1.4-2.9l1.2-2.6
	c0.6-0.4,1.1-1.1,1.4-1.9c0.5-1.5,0.2-3-0.8-3.8c0.1-3.4,0.6-3.7,1.6-4.1c0.7-0.2,1.1-0.8,1.2-1.5S57.8,1.8,57.2,1.4"/>
</svg>
