<svg id="Layer_1" data-name="Layer 1" xmlns="http://www.w3.org/2000/svg" viewBox="0 0 30 30"><title>user</title><g id="Group_266" data-name="Group 266"><path id="Path_134" data-name="Path 134" d="M25.61,4.39A14.93,14.93,0,0,0,15,0h0A15,15,0,1,0,25.61,4.39Zm-1,20.22a13.59,13.59,0,0,1-19.22,0,13.59,13.59,0,0,1,0-19.22,13.48,13.48,0,0,1,9.61-4h0A13.59,13.59,0,0,1,28.59,15a13.48,13.48,0,0,1-4,9.61Z"/><path id="Path_135" data-name="Path 135" d="M18.48,13.82a4.08,4.08,0,1,0-7.56-2.14,4,4,0,0,0,.61,2.14,3.12,3.12,0,0,0-1.84,3v4a1.54,1.54,0,0,0,1.55,1.55h7.52a1.54,1.54,0,0,0,1.55-1.55v-4A3.13,3.13,0,0,0,18.48,13.82Zm-6.14-2.14a2.66,2.66,0,0,1,5.32,0A2.65,2.65,0,0,1,15,14.35a2.67,2.67,0,0,1-2.66-2.67Zm6.55,9.17a.13.13,0,0,1-.13.13H11.24a.13.13,0,0,1-.13-.13v-4a1.78,1.78,0,0,1,.82-1.63,2.44,2.44,0,0,1,.63-.25,4.08,4.08,0,0,0,4.88,0,2.44,2.44,0,0,1,.63.25,1.76,1.76,0,0,1,.82,1.63Z"/></g></svg>