<svg xmlns="http://www.w3.org/2000/svg" xmlns:xlink="http://www.w3.org/1999/xlink"><symbol fill="currentColor" viewBox="0 0 168.4 89.85" id="abo" xmlns="http://www.w3.org/2000/svg"><path class="acls-1" d="M143.31 54.1a11.1 11.1 0 001.58 3.59 7.87 7.87 0 002.81 2.56 9.78 9.78 0 008.45 0 8 8 0 002.85-2.56 11.08 11.08 0 001.57-3.59A17 17 0 00161 50a18.3 18.3 0 00-.49-4.28A11.38 11.38 0 00159 42a8 8 0 00-2.82-2.58 9.78 9.78 0 00-8.45 0 7.84 7.84 0 00-2.84 2.58 11.39 11.39 0 00-1.58 3.68 18.3 18.3 0 00-.49 4.28 17 17 0 00.49 4.1M136.58 43a16.63 16.63 0 013.24-5.6 14.7 14.7 0 015.18-3.74 18.36 18.36 0 0113.87 0 14.84 14.84 0 015.13 3.76 16.78 16.78 0 013.23 5.6 20.77 20.77 0 011.13 7 20.1 20.1 0 01-1.13 6.83 16.36 16.36 0 01-3.23 5.49 14.9 14.9 0 01-5.13 3.66A18.62 18.62 0 01145 66a14.76 14.76 0 01-5.18-3.68 16.22 16.22 0 01-3.24-5.51 20.35 20.35 0 01-1.13-6.81 21 21 0 011.13-7m-16.84 17.88a9.93 9.93 0 002.06-.21 5 5 0 001.74-.7 3.44 3.44 0 001.19-1.34 4.56 4.56 0 00.45-2.16 4.32 4.32 0 00-1.46-3.68 6.16 6.16 0 00-3.84-1.1h-8v9.19zm-.43-14.22a5.25 5.25 0 003.24-.94 3.52 3.52 0 001.27-3 3.9 3.9 0 00-.42-1.92 3.2 3.2 0 00-1.13-1.18 4.8 4.8 0 00-1.62-.58 10.67 10.67 0 00-1.9-.16h-6.9v7.83zm.94-13.56a21 21 0 014.37.42A9.65 9.65 0 01128 34.9a6.55 6.55 0 012.18 2.56 9.12 9.12 0 01.77 3.95 7.31 7.31 0 01-1.15 4.22 8.29 8.29 0 01-3.4 2.77 8.06 8.06 0 014.6 3.12 9.27 9.27 0 011.53 5.37 9.18 9.18 0 01-1 4.39 8.44 8.44 0 01-2.65 3 11.9 11.9 0 01-3.8 1.74 17.38 17.38 0 01-4.39.56h-16.21V33.1zM80.38 53.7l4.37-12.34h.09l4.23 12.34zm1.36-26.19a3.54 3.54 0 01.8-2.32 2.66 2.66 0 012.16-1 2.72 2.72 0 012.18 1 3.71 3.71 0 010 4.65 2.72 2.72 0 01-2.18 1 2.66 2.66 0 01-2.16-1 3.56 3.56 0 01-.8-2.33m6.9 5.59H86a5.33 5.33 0 001-.31 5.81 5.81 0 001.83-1.22A5.46 5.46 0 0090 29.74a5.92 5.92 0 000-4.48 5.7 5.7 0 00-1.25-1.81A6.17 6.17 0 0087 22.23a5.92 5.92 0 00-4.48 0 5.92 5.92 0 00-1.83 1.22 5.78 5.78 0 00-1.22 1.81 5.71 5.71 0 003 7.53 5.68 5.68 0 001 .31h-2.38L68.41 66.61h7.42l2.63-7.46H91l2.53 7.46h7.66zM52.73 75.3a9.64 9.64 0 01-9.63 9.63h-8.34a7.34 7.34 0 00-5.53 2.29 7.39 7.39 0 00-5.53-2.29h-8.34a9.64 9.64 0 01-9.63-9.63V29a.71.71 0 01.7-.71H52a.71.71 0 01.7.7zM52 26.07H6.43a3 3 0 00-3 3V75.3a11.89 11.89 0 0011.93 11.89h8.34a5.75 5.75 0 014.54 2.19 1.22 1.22 0 001 .47 1.24 1.24 0 001-.47A5.54 5.54 0 0131.8 88a5.75 5.75 0 013-.8h8.3A11.89 11.89 0 0055 75.3V29a3 3 0 00-3-3m-2.53 30.89a2.2 2.2 0 000-2.36 1.53 1.53 0 00-1.82-.53 3.2 3.2 0 00-1.77 1.67 10 10 0 00-.62 1.76c-.11.43-.24 1-.24 1h.27a6.45 6.45 0 01.71-1.6c.3-.49.91-.9 1.47-.4a1.27 1.27 0 01.24 1.51c-.1.18-.28.51-.44.75s-.43.87 0 1.28a.89.89 0 001.09.26.83.83 0 00.45-.47s-.55.34-.88-.06c-.14-.16-.28-.55.29-1.25.19-.23 1-1.12 1.31-1.56m-2.08-4.58a1.72 1.72 0 00-.75.14 1.56 1.56 0 00-.54.36 8.7 8.7 0 01-.06 1c-.08.46-.23 1-.23 1a5.67 5.67 0 01.66-.78 2.47 2.47 0 01.67-.43s0-.38.11-.7.14-.6.14-.6m-2.24 3.52a8.83 8.83 0 00.25-4 5 5 0 00-.81-1.63 5 5 0 00-.81 1.63 8.83 8.83 0 00.25 4l.56 2.57.56-2.57M45 71s-.09.22-1.17.49-1.55-.94-1.65-1.22c-.43-1.23-1.26-1.35-2-1.61s-2.8-.82-3.17-.93c-1.1-.31-1-.63-.89-.8s1 0 1.51.21a4.33 4.33 0 001.79.31c.8-.1.91-1 .7-1.66s-5.3-14.69-5.3-14.69h1.43s.52-2.12.86-3a7.42 7.42 0 011.94-3.28c1.32-.85 1.71 0 1.79.24a1.15 1.15 0 01-.23 1.25 1.39 1.39 0 00.45.11 1.32 1.32 0 001-.48 1.47 1.47 0 00.07-1.75 1.93 1.93 0 001.37-1.48c.51-1.63-1.25-2.82-1.25-2.82s.07.11-.06.9-1.49 1.14-2.14 1.3a6.66 6.66 0 00-3.27 2.24 11.08 11.08 0 00-1.41 3H23.06a11.08 11.08 0 00-1.41-3A6.66 6.66 0 0018.38 42c-.65-.16-2-.51-2.14-1.3s-.06-.9-.06-.9-1.76 1.2-1.25 2.85a1.93 1.93 0 001.37 1.48 1.47 1.47 0 00.07 1.75 1.32 1.32 0 001 .48 1.39 1.39 0 00.45-.11 1.15 1.15 0 01-.23-1.25c.07-.23.47-1.09 1.79-.24A7.42 7.42 0 0121.32 48c.34.89.86 3 .86 3h1.43s-5.13 14.19-5.3 14.69-.1 1.56.7 1.66a4.33 4.33 0 001.79-.31c.52-.17 1.31-.53 1.51-.21s.21.49-.89.8c-.37.11-2.47.68-3.17.93s-1.53.38-2 1.61c-.1.28-.48 1.52-1.65 1.22S13.47 71 13.47 71a4.86 4.86 0 001.69 2.2 2.5 2.5 0 003.14-.6 1.6 1.6 0 001.54.34 1.76 1.76 0 001-.63 2.27 2.27 0 00.2-.35s-1.07 0-1.28-.51c-.11-.28-.1-.69.94-1.36.33-.21 1.92-1.1 2.58-1.55s1.59-1.14 1.16-2a2 2 0 00-1-.93l2.64-10 3.21 5.28 3.21-5.28 2.64 10a2 2 0 00-1 .93c-.43.85.48 1.54 1.16 2s2.25 1.34 2.58 1.55c1 .67 1.05 1.08.94 1.36-.22.53-1.28.51-1.28.51a2.27 2.27 0 00.2.35 1.76 1.76 0 001 .63 1.6 1.6 0 001.54-.34 2.5 2.5 0 003.14.6A4.94 4.94 0 0045 71M32.35 50.61l-3.12 5.46-3.13-5.46h6.25zm1.76-13.81a2.2 2.2 0 000-2.36 1.52 1.52 0 00-1.83-.56 3.2 3.2 0 00-1.78 1.67 13.07 13.07 0 00-.62 1.75c-.11.44-.23 1-.23 1h.27a6.59 6.59 0 01.68-1.67c.3-.49.91-.9 1.47-.4a1.29 1.29 0 01.24 1.52c-.1.17-.28.51-.44.75s-.43.86 0 1.28a.9.9 0 001.1.25.8.8 0 00.45-.46s-.55.33-.88-.06c-.14-.16-.28-.55.29-1.25.19-.23 1-1.13 1.31-1.57m-4.32-1.06a8.83 8.83 0 00.25-4 5 5 0 00-.81-1.63 5 5 0 00-.81 1.63 8.83 8.83 0 00.25 4l.56 2.58.56-2.58M27.87 43a3.33 3.33 0 00.7-1.29 3 3 0 00.06-.79l-.27-.08a1.84 1.84 0 01-.68 1.39 1.07 1.07 0 01-1.42 0c-.09-.07-.66-.56-1.07-.39a.37.37 0 00-.25.41 1.65 1.65 0 00.07.26.43.43 0 01.43-.26c.31 0 .55.53.65.66s.46.6.83.6a1.24 1.24 0 00.95-.56m2.33.13a2.94 2.94 0 01-.53-.8 2.81 2.81 0 01-.23-1.28H29a2.81 2.81 0 01-.23 1.39 2.94 2.94 0 01-.53.8 4.44 4.44 0 00.34.89 6 6 0 00.63.88 6 6 0 00.63-.88 4.44 4.44 0 00.34-.89m-1-2.69c.7 0 1.27-.39 1.27-.87s-.57-.87-1.27-.87-1.18.34-1.18.82.57.87 1.27.87m1.55 1.79a1.87 1.87 0 01-.69-1.39l-.26.08a3 3 0 00.06.79 3.33 3.33 0 00.7 1.29 1.24 1.24 0 00.95.56c.37 0 .73-.47.83-.6s.34-.62.65-.66a.43.43 0 01.43.26 1.65 1.65 0 00.07-.26.37.37 0 00-.25-.41c-.41-.17-1 .32-1.07.39a1.07 1.07 0 01-1.42 0m-4.61-8.36a1.52 1.52 0 00-1.83.56 2.2 2.2 0 000 2.36c.3.44 1.12 1.34 1.31 1.57.57.7.43 1.09.29 1.25-.33.39-.88.06-.88.06a.8.8 0 00.45.46.88.88 0 001.09-.25c.4-.42.12-1 0-1.28s-.34-.58-.44-.75a1.27 1.27 0 01.24-1.51c.56-.51 1.17-.1 1.47.39a6.59 6.59 0 01.68 1.67h.27s-.13-.59-.24-1a10.77 10.77 0 00-.62-1.75 3.16 3.16 0 00-1.77-1.67m-11.8 21.79a8.83 8.83 0 00.25-4 5 5 0 00-.81-1.63 5 5 0 00-.81 1.63 8.83 8.83 0 00.25 4l.56 2.57.56-2.57m-1.78-1s-.15-.54-.23-1a8.7 8.7 0 01-.06-1 1.56 1.56 0 00-.54-.36 1.77 1.77 0 00-.76-.14 5.56 5.56 0 01.15.6c.07.32.11.7.11.7A2.47 2.47 0 0112 54a6.59 6.59 0 01.66.78M10.81 54a1.53 1.53 0 00-1.81.53 2.18 2.18 0 000 2.36c.3.44 1.12 1.33 1.31 1.56.57.7.43 1.09.29 1.25-.33.4-.88.06-.88.06a.83.83 0 00.45.47.89.89 0 001.08-.23c.4-.41.12-1 0-1.28s-.34-.57-.44-.75a1.27 1.27 0 01.19-1.54c.56-.5 1.17-.09 1.47.4a6.45 6.45 0 01.68 1.67h.27s-.13-.6-.24-1a10.9 10.9 0 00-.62-1.76A3.2 3.2 0 0010.81 54m-1.23 8.4a1.78 1.78 0 00.07.25.45.45 0 01.43-.26c.31 0 .55.53.65.66s.46.61.83.61a1.23 1.23 0 00.95-.57 3.35 3.35 0 00.7-1.28 3 3 0 00.06-.8l-.27-.07a1.83 1.83 0 01-.68 1.38 1.08 1.08 0 01-1.42.06c-.09-.08-.66-.56-1.07-.4a.37.37 0 00-.25.42m8.58 0a.37.37 0 00-.25-.42c-.41-.16-1 .32-1.07.4a1.08 1.08 0 01-1.42-.06 1.85 1.85 0 01-.69-1.38l-.26.07a2.63 2.63 0 00.06.8 3.35 3.35 0 00.7 1.28 1.23 1.23 0 00.95.57c.37 0 .73-.47.83-.61s.34-.61.65-.66a.45.45 0 01.43.26 1.78 1.78 0 00.07-.25m-3-2.74c0-.48-.57-.87-1.27-.87s-1.27.39-1.27.87.57.87 1.27.87 1.27-.39 1.27-.87m1.39-6.75c.06-.32.14-.6.14-.6a1.73 1.73 0 00-.75.14 1.56 1.56 0 00-.54.36 8.7 8.7 0 01-.06 1c-.08.46-.23 1-.23 1a5.67 5.67 0 01.66-.78 2.47 2.47 0 01.67-.43s0-.38.11-.7m.4 1.05a3.2 3.2 0 00-1.77 1.67 11.92 11.92 0 00-.63 1.76c-.1.43-.23 1-.23 1h.27a6.45 6.45 0 01.68-1.67c.3-.49.91-.9 1.47-.4a1.27 1.27 0 01.26 1.63c-.1.18-.28.51-.44.75s-.43.87 0 1.28a.89.89 0 001.09.26.83.83 0 00.45-.47s-.55.34-.88-.06c-.14-.16-.28-.55.29-1.25.19-.23 1-1.12 1.31-1.56a2.2 2.2 0 000-2.36 1.53 1.53 0 00-1.89-.53m-4 9.27a4.44 4.44 0 00.34.89 6 6 0 00.63.88 6 6 0 00.63-.88 4.44 4.44 0 00.34-.89 3.15 3.15 0 01-.53-.8 2.82 2.82 0 01-.26-1.47h-.42a2.82 2.82 0 01-.23 1.39 3.15 3.15 0 01-.53.8m14.45 8.13a7.26 7.26 0 01.66.79s-.15-.54-.23-1a8.47 8.47 0 01-.06-1 1.76 1.76 0 00-1.29-.5s.08.28.14.6.11.69.11.69a2.47 2.47 0 01.67.43m-3 .5a2.18 2.18 0 000 2.35c.3.44 1.12 1.34 1.31 1.57.57.7.43 1.09.29 1.25-.33.39-.88.06-.88.06a.8.8 0 00.45.46.88.88 0 001.09-.25c.4-.41.12-1 0-1.28s-.34-.58-.44-.75a1.27 1.27 0 01.24-1.51c.56-.5 1.17-.1 1.47.39a6.59 6.59 0 01.68 1.68h.27s-.13-.6-.24-1a11.12 11.12 0 00-.65-1.8 3.16 3.16 0 00-1.77-1.67 1.53 1.53 0 00-1.83.57m.6 7.86A1.65 1.65 0 0025 80a.43.43 0 01.43-.26c.31 0 .55.53.65.66s.46.6.83.6a1.2 1.2 0 00.95-.56 3.33 3.33 0 00.7-1.29 3 3 0 00.06-.79l-.27-.07a1.83 1.83 0 01-.68 1.38 1.08 1.08 0 01-1.42.06c-.09-.08-.66-.57-1.07-.4a.37.37 0 00-.25.41m3.32.83a4.66 4.66 0 00.34.9 6.74 6.74 0 00.63.88 6.74 6.74 0 00.63-.88 4.66 4.66 0 00.34-.9 3 3 0 01-.53-.79 2.82 2.82 0 01-.23-1.39H29a2.82 2.82 0 01-.23 1.39 3 3 0 01-.53.79m2.33-.13a1.2 1.2 0 00.95.56c.37 0 .73-.47.83-.6s.34-.62.65-.66a.43.43 0 01.43.26 1.65 1.65 0 00.07-.26.37.37 0 00-.25-.41c-.41-.17-1 .32-1.07.4a1.08 1.08 0 01-1.42-.06 1.85 1.85 0 01-.69-1.38l-.26.07a3 3 0 00.06.79 3.33 3.33 0 00.7 1.29m-1.36-4.3c-.7 0-1.27.39-1.27.87s.57.87 1.27.87 1.27-.39 1.27-.87-.57-.87-1.27-.87m0-.39l.56-2.58a8.83 8.83 0 00.25-4 5 5 0 00-.81-1.62 5 5 0 00-.81 1.62 8.83 8.83 0 00.25 4l.56 2.58m2.66-5.49c.06-.32.14-.6.14-.6a1.76 1.76 0 00-1.29.5 8.47 8.47 0 01-.06 1c-.08.47-.23 1-.23 1a6.17 6.17 0 01.66-.79 2.47 2.47 0 01.67-.43s0-.37.11-.69m2.22 4a2.18 2.18 0 000-2.35 1.53 1.53 0 00-1.83-.57A3.2 3.2 0 0030.51 73a13.59 13.59 0 00-.62 1.75c-.11.44-.23 1-.23 1h.27a6.59 6.59 0 01.68-1.68c.3-.49.91-.89 1.47-.39a1.27 1.27 0 01.24 1.51c-.1.17-.28.51-.44.75s-.43.87 0 1.28a.9.9 0 001.1.25.8.8 0 00.45-.46s-.55.33-.88-.06c-.14-.16-.28-.55.29-1.25.19-.23 1-1.13 1.31-1.57m11.07-10.01a4.44 4.44 0 00.34-.89 3.15 3.15 0 01-.53-.8A2.82 2.82 0 0144.8 61h-.42a2.82 2.82 0 01-.23 1.39 3.15 3.15 0 01-.53.8 4.44 4.44 0 00.34.89 6 6 0 00.63.88 6 6 0 00.63-.88m-.63-5.33c-.7 0-1.27.39-1.27.87s.57.87 1.27.87 1.27-.39 1.27-.87-.57-.87-1.27-.87m-4 3.19a.37.37 0 00-.25.42 1.78 1.78 0 00.07.25.45.45 0 01.43-.26c.31 0 .55.53.65.66s.46.61.83.61a1.23 1.23 0 00.95-.57 3.35 3.35 0 00.7-1.28A2.63 2.63 0 0044 61l-.27-.07a1.83 1.83 0 01-.73 1.39 1.08 1.08 0 01-1.42.06c-.09-.08-.66-.56-1.07-.4m2.2-7.98a5.67 5.67 0 01.66.78s-.15-.54-.23-1a8.7 8.7 0 01-.06-1 1.56 1.56 0 00-.54-.36 1.73 1.73 0 00-.75-.14s.08.28.14.6.11.7.11.7a2.47 2.47 0 01.67.43m1.21 3.35a10.9 10.9 0 00-.62-1.76 3.2 3.2 0 00-1.77-1.6 1.53 1.53 0 00-1.83.57 2.18 2.18 0 000 2.36c.3.44 1.12 1.33 1.31 1.56.57.7.43 1.09.29 1.25-.33.4-.88.06-.88.06a.83.83 0 00.45.47A.89.89 0 0042 60c.4-.41.12-1 0-1.28s-.34-.57-.44-.75a1.27 1.27 0 01.24-1.51c.56-.5 1.17-.09 1.47.4a6.45 6.45 0 01.68 1.67h.27s-.13-.6-.24-1m2 5.7a1.23 1.23 0 00.95.57c.37 0 .73-.47.83-.61s.34-.61.65-.66a.45.45 0 01.43.26 1.78 1.78 0 00.07-.25.37.37 0 00-.25-.42c-.42-.16-1 .32-1.07.4a1.08 1.08 0 01-1.42-.06 1.83 1.83 0 01-.68-1.38l-.27.07a2.63 2.63 0 00.06.8 3.35 3.35 0 00.7 1.28M32 32.23a1.63 1.63 0 00-.75.13 1.65 1.65 0 00-.54.37 8.57 8.57 0 01-.06 1c-.08.47-.23 1-.23 1a6.39 6.39 0 01.66-.78 2.47 2.47 0 01.67-.43s0-.38.11-.7.14-.59.14-.59m-4 2.5s-.15-.53-.23-1a8.57 8.57 0 01-.06-1 1.65 1.65 0 00-.54-.37 1.63 1.63 0 00-.75-.13s.08.27.14.59.11.7.11.7a2.47 2.47 0 01.67.43 7.58 7.58 0 01.66.78m25.72-24.61a.74.74 0 01.51 0c.55.22.76 1.08.47 1.91a1.62 1.62 0 01-1.09 1.15l-2.27 5a2 2 0 012 2 2 2 0 01-2 2H7.07a2 2 0 01-2-2 2 2 0 012-2l-2.27-5a1.62 1.62 0 01-1.09-1.15c-.29-.83-.08-1.69.46-1.91a.7.7 0 01.4-.05C4.44 5.66 4.28 3.81 1.86 3 4 1.63 5.86 2 7 4.64c.34-.67.45-1 1.12-1.34a7.05 7.05 0 01-1.7 6.34 8.14 8.14 0 015.78-2.22 1.36 1.36 0 01-.55 1.11 7.38 7.38 0 012.56 2.78 7.39 7.39 0 01-2.56 2.79 1.34 1.34 0 01.55 1.11A8.1 8.1 0 016.42 13c.78 1.89 3.34 3.68 4.45 3.68.94 0 3.47-1.44 5.24-3.9a1.79 1.79 0 011.08-3.34A1.82 1.82 0 0118.77 11a1.78 1.78 0 01-.9 1.73c1.77 2.46 4.3 3.9 5.24 3.9A5.68 5.68 0 0027.56 13a8.11 8.11 0 01-5.79 2.23 1.36 1.36 0 01.56-1.11 7.31 7.31 0 01-2.56-2.79 7.29 7.29 0 012.56-2.78 1.37 1.37 0 01-.56-1.11 8.14 8.14 0 015.79 2.22 8.08 8.08 0 01-2.22-5.78 1.37 1.37 0 011.11.55 7.26 7.26 0 012.78-2.55A7.26 7.26 0 0132 4.41a1.37 1.37 0 011.11-.55 8.08 8.08 0 01-2.21 5.78 8.14 8.14 0 015.79-2.22 1.37 1.37 0 01-.56 1.11 7.29 7.29 0 012.56 2.78 7.31 7.31 0 01-2.56 2.79 1.36 1.36 0 01.56 1.11A8.11 8.11 0 0130.9 13a5.68 5.68 0 004.45 3.68c.94 0 3.47-1.44 5.24-3.9a1.79 1.79 0 011.08-3.34A1.82 1.82 0 0143.25 11a1.78 1.78 0 01-.9 1.73c1.77 2.46 4.3 3.9 5.24 3.9 1.11 0 3.67-1.79 4.45-3.68a8.1 8.1 0 01-5.78 2.23 1.34 1.34 0 01.55-1.11 7.31 7.31 0 01-2.56-2.79 7.29 7.29 0 012.56-2.78 1.36 1.36 0 01-.55-1.11A8.14 8.14 0 0152 9.64a7.05 7.05 0 01-1.63-6.34c.67.34.78.67 1.11 1.34 1.12-2.67 3-3 5.12-1.67-2.42.84-2.81 2.7-2.88 7.15m3.87-8.72a6 6 0 00-3.23-1 4.37 4.37 0 00-3.12 1.31 1.85 1.85 0 00-2.64 1.25 9.12 9.12 0 00-.2 2.87 11.16 11.16 0 00-2.1-.2 1.86 1.86 0 00-1.9 1.79 3.21 3.21 0 00.06.63l-.46.49a3.62 3.62 0 00-2.08-1h-.4a3.61 3.61 0 00-2.48 1l-.51-.49a3.21 3.21 0 00.06-.63 1.85 1.85 0 00-1.85-1.86 11.3 11.3 0 00-1.86.15A11.27 11.27 0 0035 3.86 1.86 1.86 0 0033.12 2a3.36 3.36 0 00-.63.06A7.5 7.5 0 0030.06.2a1.8 1.8 0 00-1.66 0A7.5 7.5 0 0026 2.06a3.36 3.36 0 00-.66-.06 1.86 1.86 0 00-1.86 1.86 11.27 11.27 0 00.15 1.85 11.3 11.3 0 00-1.86-.15 1.85 1.85 0 00-1.85 1.86 3.21 3.21 0 00.06.63l-.51.49a3.65 3.65 0 00-2.08-1h-.4a3.61 3.61 0 00-2.48 1L14 8.05a3.21 3.21 0 00.06-.63 1.86 1.86 0 00-1.86-1.86 11.16 11.16 0 00-2.1.2 9.12 9.12 0 00-.2-2.87 1.85 1.85 0 00-2.64-1.25A4.37 4.37 0 004.1.35a6.07 6.07 0 00-3.24 1 1.85 1.85 0 00.39 3.32c1 .34 1.27.76 1.46 4.22A3.52 3.52 0 002 12.66a3.79 3.79 0 001.44 1.92l1.19 2.63a3.84 3.84 0 00-1.41 2.9v.07A3.86 3.86 0 007.07 24h44.32a3.87 3.87 0 003.85-3.83v-.06a3.83 3.83 0 00-1.41-2.93l1.17-2.6a3.79 3.79 0 001.44-1.92 3.46 3.46 0 00-.85-3.84c.15-3.43.65-3.77 1.6-4.1a1.87 1.87 0 001.24-1.54 1.85 1.85 0 00-.86-1.78"/></symbol><symbol fill="currentColor" id="business" viewBox="0 0 30 30" xmlns="http://www.w3.org/2000/svg"><defs><style>.bcls-1{fill:#0061ad}</style></defs><path id="bPath_96" data-name="Path 96" class="bcls-1" d="M30 10.37a3.81 3.81 0 01-.37.43c-.84.74-1.7 1.47-2.54 2.2a.9.9 0 00-.25.33c-.59 1.21-1.17 2.43-1.74 3.65a.31.31 0 000 .25 2.08 2.08 0 01-.77 2.83 2 2 0 01-.95.27h-.12a2.12 2.12 0 01-.61 1.48 2 2 0 01-1.5.62A2.1 2.1 0 0119 24.56a2 2 0 01-1.35 2 2.09 2.09 0 01-2.29-.56 2.15 2.15 0 01-2.26.87A2.05 2.05 0 0111.5 25a2.11 2.11 0 01-2.4-2.1A2.1 2.1 0 017 20.55 2.1 2.1 0 015.72 17l-1.65-2.19a7.52 7.52 0 01-.47-.64 8.78 8.78 0 00-1.79-1.76c-.51-.46-1-.89-1.55-1.34a2.27 2.27 0 01-.26-.35v-.31c.49-.62 1-1.25 1.48-1.87l4.08-5.06.07-.08a.6.6 0 01.83-.21l.07.06 3.09 2a1.08 1.08 0 00.29.13c1 .29 2.05.57 3.08.84a.69.69 0 00.35 0l3-.84a1.68 1.68 0 01.5-.07h3.81a.93.93 0 00.4-.12C22 4.53 23 3.9 24 3.28a.63.63 0 01.88 0 .66.66 0 01.12.17l4.84 6.29c.08.1.14.21.21.31zM16.13 25.08l.27.22a.88.88 0 001 .08.86.86 0 00.47-.83 1.1 1.1 0 00-.37-.73c-.43-.42-.85-.85-1.27-1.28a.59.59 0 01-.1-.73.58.58 0 01.67-.25.87.87 0 01.32.22c.45.44.88.89 1.32 1.32a.89.89 0 001.27 0 1 1 0 00.2-.29.94.94 0 00-.26-1.08l-1.55-1.56-.9-.91a.57.57 0 01-.2-.56.59.59 0 01.7-.44.57.57 0 01.32.2c.6.59 1.2 1.2 1.8 1.81.25.25.49.51.75.75a.89.89 0 001.26 0 .75.75 0 00.18-.28.92.92 0 00-.27-1.07q-1.84-1.84-3.67-3.71a.58.58 0 01-.12-.83L18 15a.59.59 0 01.83 0 .19.19 0 01.06.07L21.7 18c.32.32.63.65 1 1a.89.89 0 001.26 0 .83.83 0 00.2-.32.93.93 0 00-.3-1l-6.77-6.77a.6.6 0 00-.31-.15c-.72-.06-1.44-.09-2.17-.16a.39.39 0 00-.44.25c-.41.76-.85 1.52-1.28 2.28a2.11 2.11 0 01-2.25 1.07A2.09 2.09 0 019 11.6a1.79 1.79 0 01.26-.66c.44-.8.89-1.58 1.34-2.38L11.46 7l-1.61-.45a.28.28 0 00-.23.11L4.4 13a.2.2 0 000 .28c.36.47.71.95 1.06 1.43l1.1 1.47A2.09 2.09 0 0110 17.43a2.09 2.09 0 012.54 2.05c1.63.35 2.15 1 2.06 2.56a2.1 2.1 0 011.52 3zm8-8.83l.11-.23 1.43-3a.33.33 0 00-.05-.39q-2.4-3-4.78-6.07a.35.35 0 00-.31-.15h-3.68a1.12 1.12 0 00-.36 0l-3.86 1.21a.55.55 0 00-.29.23c-.39.66-.76 1.34-1.14 2s-.65 1.12-.95 1.69a.88.88 0 00.28 1.23.94.94 0 00.4.13.89.89 0 00.91-.52l1.56-2.76a.68.68 0 01.72-.38c1 .08 1.92.14 2.88.2a1.1 1.1 0 01.74.33Q20.85 12.89 24 16a1.32 1.32 0 01.16.25zm-20.65-4L8.64 6 6.27 4.48l-4.86 6zM21.87 6l4.66 5.93 2.07-1.78-4.35-5.67zM8.18 20.72a1 1 0 00.52.94.83.83 0 001-.12c.51-.48 1-1 1.48-1.48a.89.89 0 00-1.3-1.23c-.47.46-.94.91-1.38 1.39a1.89 1.89 0 00-.28.5zm2.93 3.15a1 1 0 00.79-.33c.41-.41.82-.81 1.23-1.23a2.11 2.11 0 00.19-.23.9.9 0 00-.15-1.18.87.87 0 00-1.17 0c-.51.49-1 1-1.5 1.51a.8.8 0 00-.12.94.84.84 0 00.73.52zm-3.77-4.5a1.35 1.35 0 00.44-.2 6.57 6.57 0 00.88-.87.89.89 0 00-1.27-1.24 11.09 11.09 0 00-.84.84.83.83 0 00-.12 1 .94.94 0 00.91.52zm6.33 6.35a1.14 1.14 0 00.39-.14 9.26 9.26 0 001-1 .84.84 0 00-.14-1.14.87.87 0 00-1.14-.05 9.66 9.66 0 00-.9.91.8.8 0 00-.07.93.9.9 0 00.87.49z"/></symbol><symbol fill="currentColor" viewBox="0 0 24 24" id="chevron-down" xmlns="http://www.w3.org/2000/svg"><path d="M13 15.6c-.3.3-.6.4-1 .4s-.7-.1-1-.4l-5.6-5.3c-.5-.5-.5-1.4 0-1.9s1.4-.5 2 0l4.6 4.4 4.6-4.4c.5-.5 1.4-.5 2 0 .5.5.5 1.4 0 1.9L13 15.6z"/></symbol><symbol fill="#0061AD" viewBox="0 0 24 24" id="chevron-down--blue" xmlns="http://www.w3.org/2000/svg"><path d="M13 15.6c-.3.3-.6.4-1 .4s-.7-.1-1-.4l-5.6-5.3c-.5-.5-.5-1.4 0-1.9s1.4-.5 2 0l4.6 4.4 4.6-4.4c.5-.5 1.4-.5 2 0 .5.5.5 1.4 0 1.9L13 15.6z"/></symbol><symbol fill="currentColor" viewBox="0 0 24 24" id="chevron-up" xmlns="http://www.w3.org/2000/svg"><path d="M13 8.4c-.3-.3-.6-.4-1-.4s-.7.1-1 .4l-5.6 5.3c-.5.5-.5 1.4 0 1.9s1.4.5 2 0l4.6-4.4 4.6 4.4c.5.5 1.4.5 2 0 .5-.5.5-1.4 0-1.9L13 8.4z"/></symbol><symbol fill="#0061AD" viewBox="0 0 24 24" id="chevron-up--blue" xmlns="http://www.w3.org/2000/svg"><path d="M13 8.4c-.3-.3-.6-.4-1-.4s-.7.1-1 .4l-5.6 5.3c-.5.5-.5 1.4 0 1.9s1.4.5 2 0l4.6-4.4 4.6 4.4c.5.5 1.4.5 2 0 .5-.5.5-1.4 0-1.9L13 8.4z"/></symbol><symbol fill="currentColor" viewBox="0 0 30 30" id="close"><path d="M30 3.7L26.3 0 15 11.3 3.7 0 0 3.7 11.3 15 0 26.3 3.7 30 15 18.7 26.3 30l3.7-3.7L18.7 15 30 3.7z"/></symbol><symbol fill="currentColor" viewBox="0 0 30 30" id="contact-info" xmlns="http://www.w3.org/2000/svg"><defs><style>.hcls-1{fill:#0061ad}</style></defs><g id="hGroup_156" data-name="Group 156"><path id="hPath_95" data-name="Path 95" class="hcls-1" d="M9.51 13.73a4.42 4.42 0 10-7.52 0A3.35 3.35 0 000 17v4.34A1.67 1.67 0 001.68 23h8.13a1.67 1.67 0 001.67-1.67V17a3.36 3.36 0 00-1.97-3.27zm-6.64-2.31a2.88 2.88 0 112.88 2.87 2.89 2.89 0 01-2.88-2.87zM10 21.33a.13.13 0 01-.13.13H1.68a.13.13 0 01-.13-.13V17a1.87 1.87 0 01.89-1.76 2.8 2.8 0 01.67-.24 4.4 4.4 0 005.28 0 2.87 2.87 0 01.68.28A1.88 1.88 0 0110 17z"/><circle id="hEllipse_3" data-name="Ellipse 3" class="hcls-1" cx="15.75" cy="10.74" r="1.54"/><path id="hRectangle_607" data-name="Rectangle 607" class="hcls-1" d="M18.79 9.96h8.74v1.55h-8.74z"/><circle id="hEllipse_4" data-name="Ellipse 4" class="hcls-1" cx="15.75" cy="15.41" r="1.54"/><path id="hRectangle_608" data-name="Rectangle 608" class="hcls-1" d="M18.79 14.64H30v1.54H18.79z"/><path id="hRectangle_609" data-name="Rectangle 609" class="hcls-1" d="M14.22 19.26H30v1.54H14.22z"/></g></symbol><symbol fill="currentColor" viewBox="0 0 30 30" id="customers" xmlns="http://www.w3.org/2000/svg"><defs><style>.icls-1{fill:#0061ad}</style></defs><path id="iPath_92" data-name="Path 92" class="icls-1" d="M27.89 13.79a4.09 4.09 0 10-7.31-2.54 4 4 0 00.88 2.54 3.14 3.14 0 00-1.91 1.86 3.31 3.31 0 00-1.39-1 4.1 4.1 0 10-6.43 0 3.46 3.46 0 00-1.18.74 3.1 3.1 0 00-2-2.19 4.09 4.09 0 10-7.32-2.5 4 4 0 00.89 2.53A3.15 3.15 0 000 16.37v4A1.58 1.58 0 001.56 22H9.1a1.54 1.54 0 00.52-.09 1.55 1.55 0 001.55 1.54h7.55a1.56 1.56 0 001.47-1.07 1.36 1.36 0 00.71.17h7.54A1.56 1.56 0 0030 21v-4a3.15 3.15 0 00-2.11-3.21zm-3.22-5.2a2.67 2.67 0 11-1.39 4.94 2.66 2.66 0 011.39-4.94zM15 9.48a2.67 2.67 0 011.39 4.95 2.67 2.67 0 01-2.78 0A2.67 2.67 0 0115 9.48zM5.33 8a2.66 2.66 0 011.39 5A2.6 2.6 0 014 13a2.66 2.66 0 011.33-5zm3.9 12.36a.12.12 0 01-.12.13H1.56a.12.12 0 01-.12-.13v-4a1.72 1.72 0 01.82-1.63 2.44 2.44 0 011.15-.34h.18a4.1 4.1 0 003.49 0h.18a2.44 2.44 0 011.15.34 1.72 1.72 0 01.82 1.63zm9.62 1.46a.13.13 0 01-.13.12h-7.54a.12.12 0 01-.13-.12v-4a1.73 1.73 0 01.82-1.63 2.6 2.6 0 011.13-.34h.18a4.08 4.08 0 001.75.4 4 4 0 001.74-.4h.19a2.56 2.56 0 011.14.34 1.76 1.76 0 01.83 1.63zm9.72-.9a.13.13 0 01-.12.13H20.9a.14.14 0 01-.13-.13v-4a1.77 1.77 0 01.83-1.64 2.55 2.55 0 011.14-.28h.19a4 4 0 001.74.39 4.07 4.07 0 001.75-.39h.18a2.59 2.59 0 011.15.33 1.75 1.75 0 01.82 1.64z"/></symbol><symbol fill="currentColor" viewBox="0 0 30 29.99" id="delete" xmlns="http://www.w3.org/2000/svg"><path d="M7.21 30l-.62-.16a3.72 3.72 0 01-2.71-3.64V10.33l-.32-.06A1.86 1.86 0 012 8.42a20.5 20.5 0 01.06-2.22 2.73 2.73 0 012.73-2.44H7.65a10.42 10.42 0 010-1.25A2.79 2.79 0 0110.52 0h9.2a2.82 2.82 0 012.9 2.91v.84h2.45a5.63 5.63 0 01.82 0 2.7 2.7 0 012.29 2.37 16.3 16.3 0 010 2.42c0 .95-.72 1.55-1.85 1.74V26a3.79 3.79 0 01-3.19 4H23zM5.74 10.32v15.82a1.87 1.87 0 002 2H22.5a1.88 1.88 0 002-2V10.32zm20.64-1.89V6.78c0-.84-.33-1.17-1.17-1.17H4.74a.9.9 0 00-.86.78v2zm-5.63-4.69v-.87a.94.94 0 00-1-1H10.5a.91.91 0 00-1 .75 8.51 8.51 0 000 1.13z"/><path d="M7.87 19.22V14c0-.66.31-1 1-1h1.45a.83.83 0 01.89.9v10.65a.83.83 0 01-.89.89H8.77a.83.83 0 01-.9-.91zM13.47 19.22V14a.85.85 0 011-1h1.43a.84.84 0 01.9.91v10.63a.84.84 0 01-.91.9h-1.5a.83.83 0 01-.9-.91zM22.38 19.24v5.23a.85.85 0 01-1 1H20a.83.83 0 01-.89-.87V13.87a.83.83 0 01.87-.87h1.55a.84.84 0 01.89.9z"/></symbol><symbol fill="currentColor" viewBox="0 0 30 29.99" id="edit" xmlns="http://www.w3.org/2000/svg"><path class="kcls-1" d="M27.31 0A2.44 2.44 0 0129 .8c2.05 2.06-.32 4.11-.32 4.11l-.7.71-3.68-3.71.63-.63A3.57 3.57 0 0127.31 0m-4.6 3.49l3.73 3.73-12.73 12.87-5.06 1.26 1.26-5.06 12.8-12.8"/><path class="kcls-1" d="M27.44 8.21l-.3.32v19.13a1 1 0 01-1.06 1.06H2.34a1 1 0 01-1.06-1.06V3.92a1 1 0 011.06-1.06h19l.36-.37.59-.58.21-.21.11-.11H2.12A2.12 2.12 0 000 3.7v24.18A2.13 2.13 0 002.12 30h24.17a2.13 2.13 0 002.12-2.12V7.23l-.39.4z"/></symbol><symbol fill="currentColor" viewBox="0 0 30 30" id="expand" xmlns="http://www.w3.org/2000/svg"><defs><style>.lcls-1{fill:#e93171}</style></defs><path id="lPath_129" data-name="Path 129" class="lcls-1" d="M0 0h30v30H0zm28.23 1.77H1.77v26.46h26.46z"/><path id="lPath_130" data-name="Path 130" class="lcls-1" d="M26.57 8.56h-1.74v-2.1l-4.87 5-1.27-1.27 4.88-4.93h-2.11v-1.8h5.12z"/><path id="lPath_131" data-name="Path 131" class="lcls-1" d="M24.82 23.47v-2h1.75v5.1h-5.11V24.8h2.05l-4.84-4.89 1.26-1.26 4.8 4.88z"/><path id="lPath_132" data-name="Path 132" class="lcls-1" d="M5.18 6.52v2H3.43V3.46h5.11V5.2h-2l4.84 4.88-1.26 1.26-4.86-4.87z"/><path id="lPath_133" data-name="Path 133" class="lcls-1" d="M6.41 24.8h2.14v1.73H3.43v-5.09h1.73v2l4.9-4.87 1.21 1.21z"/></symbol><symbol fill="currentColor" viewBox="0 0 30 30" id="fees" xmlns="http://www.w3.org/2000/svg"><defs><style>.mcls-1{fill:#0061ad}</style></defs><g id="mGroup_153" data-name="Group 153"><path id="mPath_93" data-name="Path 93" class="mcls-1" d="M20.49 5.49a9.51 9.51 0 00-7.24 3.34H2.14a.73.73 0 00-.73.73v1.5a.73.73 0 00.73.73h9.39c-.08.23-.15.46-.22.7H.73a.73.73 0 00-.73.73v1.5a.73.73 0 00.73.73H11c0 .27 0 .53.07.8H1.58a.72.72 0 00-.73.75v1.49a.73.73 0 00.73.73H12c.13.26.26.51.41.75H1.58a.73.73 0 00-.73.73v1.49a.73.73 0 00.73.74h13.63a9.51 9.51 0 105.28-17.44zm0 17A7.52 7.52 0 1128 15a7.53 7.53 0 01-7.51 7.52z"/><path id="mPath_94" data-name="Path 94" class="mcls-1" d="M19.59 12.29a1.81 1.81 0 011.27-.45 2.71 2.71 0 01.8.11 6.26 6.26 0 01.82.31l.62-1.48a5.08 5.08 0 00-2.24-.52 3.8 3.8 0 00-2.57.9A3.85 3.85 0 0017 13.58h-.85v1.12h.74v.3a2.55 2.55 0 000 .39h-.75v1.13h.87a3.63 3.63 0 003.82 3.18 4 4 0 001.87-.37v-1.59a4.43 4.43 0 01-1.75.37 1.83 1.83 0 01-2-1.55h2.15v-1.13h-2.26v-.73h2.66v-1.12h-2.56a2.14 2.14 0 01.65-1.29z"/></g></symbol><symbol fill="currentColor" viewBox="0 0 24 24" id="link-list" xmlns="http://www.w3.org/2000/svg"><path d="M8.713 7.23a1.01 1.01 0 01-.01-1.418l.107-.107a.993.993 0 011.41.003l5.073 5.084a1 1 0 010 1.416l-5.073 5.084a1.001 1.001 0 01-1.41.003l-.106-.107a.998.998 0 01.009-1.419l4.26-4.269-4.26-4.27z"/></symbol><symbol fill="currentColor" viewBox="0 0 24 24" id="menu" xmlns="http://www.w3.org/2000/svg"><path d="M23 6H1a1 1 0 010-2h22a1 1 0 010 2zm0 7H1a1 1 0 010-2h22a1 1 0 010 2zm0 7H1a1 1 0 010-2h22a1 1 0 010 2z"/></symbol><symbol fill="currentColor" viewBox="0 0 30 30" id="more-information" xmlns="http://www.w3.org/2000/svg"><defs><style>.pcls-1{fill:#0061ad}</style></defs><path id="pPath_104" data-name="Path 104" class="pcls-1" d="M25.61 4.39A14.93 14.93 0 0015 0a15 15 0 1010.61 4.39zm-1 20.22a13.59 13.59 0 01-19.22 0A13.59 13.59 0 0115 1.41a13.59 13.59 0 019.61 23.2z"/><circle id="pEllipse_9" data-name="Ellipse 9" class="pcls-1" cx="8.58" cy="15" r="2.03"/><circle id="pEllipse_10" data-name="Ellipse 10" class="pcls-1" cx="15" cy="15" r="2.03"/><circle id="pEllipse_11" data-name="Ellipse 11" class="pcls-1" cx="21.42" cy="15" r="2.03"/></symbol><symbol fill="currentColor" viewBox="0 0 30 30" id="print" xmlns="http://www.w3.org/2000/svg"><path d="M24.38 30H5.63a1.15 1.15 0 01-.72-1.21v-5.32H2.77a2.81 2.81 0 01-2.66-2.08A3.58 3.58 0 000 21V9.9a6.68 6.68 0 01.37-1 2.73 2.73 0 012.4-1.4h2.15V1.09A1 1 0 016 0h18a1 1 0 011.07 1.09V7.5h2.15a2.8 2.8 0 012.66 2c0 .12.07.24.11.36V21a1.27 1.27 0 00-.06.18A2.85 2.85 0 0128.69 23a2.79 2.79 0 01-1.49.44h-2.12v5.38a1.15 1.15 0 01-.7 1.18zm.7-8.48H27a1 1 0 001.09-1.09v-10a.94.94 0 00-1-1Q15 9.36 3 9.38a1 1 0 00-1.08 1.08v10.09a.89.89 0 00.78 1h2.26v-5.46A1 1 0 016 15h18a.94.94 0 011 1v5.49zM6.82 16.89V28.1h16.37V16.89zm0-9.41h16.36V1.89H6.81z"/><path d="M24.38 12.17a.93.93 0 00.93.95.94.94 0 10-.93-.95z"/><path d="M24.38 12.17a.94.94 0 11.93.95.93.93 0 01-.93-.95zM15 20.64H9.64a.93.93 0 01-.91-1.22.94.94 0 011-.65h10.59a.93.93 0 011 .81.91.91 0 01-1 1.07zM15 24.39H9.67a.9.9 0 01-.88-.51.93.93 0 01.11-1 1 1 0 01.83-.35h10.7a.94.94 0 01.41 1.77 1.62 1.62 0 01-.54.1z"/></symbol><symbol fill="currentColor" viewBox="0 0 30 30" id="search" xmlns="http://www.w3.org/2000/svg"><defs><style>.rcls-1{fill:#fff}</style></defs><path id="ricon-search" class="rcls-1" d="M11.25 2.52A8.74 8.74 0 1020 11.25a8.73 8.73 0 00-8.74-8.73M20 18.26l9.59 9.58a1.25 1.25 0 01-1.72 1.82l-.05-.05L18.26 20A11.24 11.24 0 1120 18.26z"/></symbol><symbol fill="currentColor" viewBox="0 0 30 30" id="service-instructions" xmlns="http://www.w3.org/2000/svg"><defs><style>.scls-1{fill:#0061ad}</style></defs><path id="sPath_101" data-name="Path 101" class="scls-1" d="M25.61 4.39A14.93 14.93 0 0015 0a15 15 0 1010.61 4.39zm-1 20.22a13.59 13.59 0 01-19.22 0 13.59 13.59 0 010-19.22 13.48 13.48 0 019.61-4A13.59 13.59 0 0128.59 15a13.48 13.48 0 01-3.98 9.61z"/><path id="sPath_102" data-name="Path 102" class="scls-1" d="M10.94 24.73h8.12v-2.19h-2.22V12.16h-5.9v2.19h2.23v8.19h-2.23z"/><circle id="sEllipse_5" data-name="Ellipse 5" class="scls-1" cx="15" cy="8.03" r="2.76"/></symbol><symbol fill="currentColor" viewBox="0 0 30 30" id="service-package" xmlns="http://www.w3.org/2000/svg"><defs><style>.tcls-1{fill:#0061ad}</style></defs><path id="tPath_97" data-name="Path 97" class="tcls-1" d="M20 6.45a15.35 15.35 0 00-3.69-.58c-.58 0-.47 0-.48-.5a.74.74 0 000-.21c0-.23.07-.33.29-.41a1.89 1.89 0 001.16-2.16 1.84 1.84 0 00-1.68-1.53 2 2 0 00-2.1.84 2 2 0 00.57 2.68 1.54 1.54 0 00.34.17.34.34 0 01.26.38c0 .72 0 .7-.72.75a13.1 13.1 0 00-8 3 11.23 11.23 0 00-3.7 6.48v.14c0 .04 0 0-.07.07-.22-.23-.45-.46-.69-.67a.83.83 0 00-.53-.2.55.55 0 00-.5.61.58.58 0 00.13.3A2.74 2.74 0 003 16.84H6.28c-.23.52-.44 1-.67 1.51a.36.36 0 01-.15.12l-1.16.48-.43-.86a.55.55 0 00-.7-.35H3.1c-.87.3-1.74.59-2.59.91-.19.07-.32.26-.48.4v9.49A.64.64 0 00.8 29a.69.69 0 00.19-.1L6.88 26c.48-.23.57-.51.34-1l-.46-.95.24-.13 3.71-1.85a7.07 7.07 0 012.82-.7A37.52 37.52 0 0020 20.32c.66-.16 1.34-.28 2-.45a14.94 14.94 0 001.75-.58 1.84 1.84 0 001.1-2.29 1.49 1.49 0 00-.05-.21H27.49a2.49 2.49 0 002.28-1.12 3.4 3.4 0 01.23-.3V15c-.41-.53-.76-.53-1.18 0-.14.18-.31.34-.51.56-.09-.4-.16-.72-.24-1a11.48 11.48 0 00-3.24-5.47A12.91 12.91 0 0020 6.45zM24.11 10a9.31 9.31 0 012.11 3c.34.76.56 1.57.83 2.37a1.55 1.55 0 010 .31h-8.9a.42.42 0 01-.42-.22 1.77 1.77 0 00-1.56-.89h-5.45a5.56 5.56 0 00-3.13 1 .66.66 0 01-.32.12H3.42a10.18 10.18 0 011-3 10 10 0 017.11-5.29 17.67 17.67 0 014.35-.4 12.77 12.77 0 013.74.54A15 15 0 0124.11 10zM4.77 20c.45-.19.86-.38 1.27-.53a1 1 0 00.65-.69 6.61 6.61 0 01.72-1.43 4.06 4.06 0 013.47-1.63h5.18a.71.71 0 01.78.63v.06a.72.72 0 01-.7.72h-4.75a.58.58 0 00-.59.57.59.59 0 00.58.59 1.76 1.76 0 00.23 0H16A1.85 1.85 0 0017.93 17a.3.3 0 01.19-.16h4.95a.71.71 0 01.68.73.45.45 0 010 .16.75.75 0 01-.5.52 16.07 16.07 0 01-2.87.79 39 39 0 01-7 1.17 8.8 8.8 0 00-3.71 1.05c-1 .54-2.11 1.06-3.16 1.59l-.3.14zm-3.6 7.46v-7.64a.28.28 0 01.1-.21L3 19l3 6.11zM15.28 3.71c-.57 0-.84-.19-.89-.63a.69.69 0 01.47-.83c.61-.12 1 0 1.2.34.3.56-.09 1.12-.78 1.12z"/></symbol><symbol fill="currentColor" viewBox="0 0 30 30" id="software" xmlns="http://www.w3.org/2000/svg"><defs><style>.ucls-1{fill:#0061ad}</style></defs><path id="uPath_105" data-name="Path 105" class="ucls-1" d="M28.59 20.51h-.26v-.09V6.71c0-1.49-.77-2.32-2.13-2.32H3.77c-1.36 0-2.11.84-2.11 2.35v13.51a1.15 1.15 0 000 .26h-.41A1.16 1.16 0 000 21.59a3.61 3.61 0 003.2 4 2.26 2.26 0 00.45 0h22.69A3.56 3.56 0 0030 22.13v-.19c0-1-.42-1.43-1.41-1.43zm-25.66-6.7V6.65c0-.34.07-.65.39-.78a1.42 1.42 0 01.54-.08h22.31c.72 0 .91.21.91 1V20a2.33 2.33 0 000 .46h-6.33a.6.6 0 00-.08-.47v-.05c-.17-.28-.05-.51.28-.52h.53a1.35 1.35 0 001.39-1.32v-.06-.71-.86a1.33 1.33 0 00-1.29-1.25h-.65a.4.4 0 01-.29-.2.41.41 0 01.07-.34 6.14 6.14 0 01.43-.45 1.33 1.33 0 000-1.89c-.34-.36-.69-.71-1-1.05a1.36 1.36 0 00-1.93 0c-.14.14-.28.28-.43.41a.41.41 0 01-.34.06.44.44 0 01-.19-.29 5.86 5.86 0 010-.59 1.35 1.35 0 00-1.34-1.35h-1.66a1.33 1.33 0 00-1.35 1.37 5.72 5.72 0 010 .59.42.42 0 01-.19.29.41.41 0 01-.34-.07 4.07 4.07 0 01-.42-.41 1.39 1.39 0 00-1.93 0c-.36.35-.72.7-1.07 1.07a1.34 1.34 0 000 1.87 4.44 4.44 0 01.43.44.45.45 0 01.08.37.46.46 0 01-.3.19h-.63a1.32 1.32 0 00-1.34 1.29v1.6a1.3 1.3 0 001.08 1.27 7.5 7.5 0 00.82 0c.34 0 .46.24.28.54a.68.68 0 00-.11.5H2.9a1.53 1.53 0 000-.3zm7.4 6.7a1.38 1.38 0 00-1-2.11h-.71a.3.3 0 01-.32-.27.09.09 0 010-.07v-1.4a.28.28 0 01.25-.32.11.11 0 01.08 0h.59a1.33 1.33 0 001.25-.85 1.31 1.31 0 00-.3-1.49c-.13-.15-.29-.29-.43-.44a.28.28 0 01-.06-.4l.06-.06c.33-.33.65-.66 1-1a.31.31 0 01.43-.06l.06.07c.16.15.32.32.49.47a1.31 1.31 0 001.39.21 1.29 1.29 0 00.87-1.1A5.56 5.56 0 0014 11c0-.24.09-.37.35-.36h1.36c.24 0 .34.11.34.34v.71a1.31 1.31 0 00.88 1.13 1.33 1.33 0 001.39-.23c.17-.14.32-.3.47-.45a.32.32 0 01.44-.08.23.23 0 01.07.07l1 1a.29.29 0 01.07.42l-.07.06c-.14.14-.29.28-.42.42a1.3 1.3 0 00-.26 1.48 1.32 1.32 0 001.24.86h.59a.29.29 0 01.34.25.14.14 0 010 .09V18a.31.31 0 01-.34.35 6 6 0 00-.74 0 1.29 1.29 0 00-1.11.89 1.24 1.24 0 00.12 1.21h-9.39zm16.08 3.83H3.75a2.3 2.3 0 01-2.44-2.16v-.38h27.37a2.28 2.28 0 01-2 2.53z"/><path id="uPath_106" data-name="Path 106" class="ucls-1" d="M17.66 17.35A2.66 2.66 0 1015 20a2.65 2.65 0 002.66-2.65zM15 18.93a1.57 1.57 0 110-3.14 1.57 1.57 0 011.57 1.58A1.59 1.59 0 0115 18.93z"/><path id="uPath_107" data-name="Path 107" class="ucls-1" d="M17.48 22.43h-5a.66.66 0 00-.71.61.65.65 0 00.68.62h4.95a.65.65 0 00.72-.59.66.66 0 00-.68-.64z"/></symbol><symbol fill="currentColor" viewBox="0 0 30 30" id="tag" xmlns="http://www.w3.org/2000/svg"><path data-name="Path 99" class="vcls-1" d="M30 12.89a4.55 4.55 0 01-1.55 2.51Q21.87 22 15.31 28.53A4.2 4.2 0 0112.83 30h-.59a3.47 3.47 0 01-2-1Q5.62 24.38 1 19.75a3.17 3.17 0 01-.85-1.37C.08 18.17 0 18 0 17.75v-.58c.05-.21.08-.42.14-.63A3.27 3.27 0 011 15.17Q8.07 8.11 15.12 1a3.84 3.84 0 012-1h11.24c.29.12.57.26.85.41A2.12 2.12 0 0130 1.64zm-1.18-5.62V2.15a.84.84 0 00-1-1H17.64a2.27 2.27 0 00-1.7.71L1.84 16a2 2 0 00-.19 2.76 1.89 1.89 0 00.2.2l9.21 9.21a2 2 0 002.76.19l.17-.18q7.08-7.05 14.13-14.12a2.31 2.31 0 00.7-1.71V7.28z"/><path data-name="Path 100" class="vcls-1" d="M24.65 2.89a2.15 2.15 0 11-2.14 2.18V5a2.15 2.15 0 012.14-2.11zm1 2.14a1 1 0 00-1-1 1 1 0 00-1 .95 1 1 0 001 1 1 1 0 00.98-.98z"/></symbol><symbol fill="currentColor" viewBox="0 0 224 89.2" id="turku" xmlns="http://www.w3.org/2000/svg"><path class="wst0" d="M220.2 63.6c-2.5 2.2-6 3.3-10.4 3.3-4.5 0-8-1.1-10.5-3.3-2.5-2.2-3.7-5.5-3.7-10.1V32.9h7.3v20.7c0 .9.1 1.8.2 2.7.2.9.5 1.6 1 2.3.5.7 1.2 1.2 2.1 1.6.9.4 2.1.6 3.6.6 2.6 0 4.4-.6 5.4-1.7 1-1.2 1.5-3 1.5-5.5V32.9h7.3v20.7c0 4.4-1.2 7.8-3.8 10m-50.3-30.7v13.8l13-13.8h9.1L179 46l14.3 20.1h-9.2l-10-15-4.2 4.2V66h-7.3V32.9h7.3zm-25.2 15c1.7 0 2.9-.4 3.8-1.1.8-.7 1.3-2 1.3-3.6s-.4-2.8-1.3-3.5c-.8-.7-2.1-1.1-3.8-1.1h-8V48h8zm2.6-15c1.5 0 2.8.2 4 .7 1.2.5 2.2 1.1 3.1 2 .9.8 1.5 1.8 2 2.9.4 1.1.7 2.3.7 3.6 0 2-.4 3.7-1.2 5.1-.8 1.4-2.2 2.5-4 3.3v.1c.9.2 1.6.6 2.2 1.1.6.5 1.1 1.1 1.4 1.8.4.7.6 1.5.8 2.3.2.8.3 1.7.4 2.5 0 .5.1 1.1.1 1.9 0 .7.1 1.4.2 2.2.1.7.2 1.5.4 2.1.2.7.4 1.2.8 1.7h-7.3c-.4-1.1-.7-2.3-.7-3.8-.1-1.5-.2-2.9-.4-4.2-.2-1.7-.8-3-1.6-3.8-.8-.8-2.1-1.2-4-1.2h-7.3v13h-7.3V32.9h17.7zm-27.5 30.7c-2.5 2.2-6 3.3-10.4 3.3-4.5 0-8-1.1-10.5-3.3-2.5-2.2-3.7-5.5-3.7-10.1V32.9h7.3v20.7c0 .9.1 1.8.2 2.7.2.9.5 1.6 1 2.3.5.7 1.2 1.2 2.1 1.6.9.4 2.1.6 3.6.6 2.6 0 4.4-.6 5.4-1.7 1-1.2 1.5-3 1.5-5.5V32.9h7.3v20.7c0 4.4-1.2 7.8-3.8 10M64.3 39v-6.1h27.3V39h-10v27.1h-7.3V39h-10zm-12 35.7c0 5.3-4.3 9.6-9.6 9.6h-8.3c-2.3 0-4.3.9-5.5 2.3-1.2-1.4-3.2-2.3-5.5-2.3h-8.3c-5.3 0-9.6-4.3-9.6-9.6V28.8c0-.4.3-.7.7-.7H51.6c.4 0 .7.3.7.7v45.9zm-.7-48.8H6.4c-1.6 0-2.9 1.3-2.9 2.9v45.9c0 6.5 5.3 11.8 11.8 11.8h8.3c1.1 0 2.2.3 2.9.8.6.4 1.1.8 1.6 1.4.2.3.6.5 1 .5s.7-.1 1-.5c.4-.6 1-1 1.6-1.4.8-.5 1.8-.8 2.9-.8h8.3c6.5 0 11.8-5.3 11.8-11.8V28.8c-.1-1.6-1.4-2.9-3.1-2.9m-2.5 30.6c.2-.3.6-1.4 0-2.3-.3-.5-1-.9-1.8-.6-.4.2-1.2.5-1.8 1.7-.2.4-.5 1.2-.6 1.7-.1.4-.2 1-.2 1h.2s.2-1 .7-1.7c.3-.5.9-.9 1.5-.4.3.3.6.9.2 1.5-.1.2-.3.5-.4.7-.2.2-.4.9 0 1.3.2.2.5.5 1.1.3.3-.1.4-.5.4-.5s-.5.3-.9-.1c-.1-.2-.3-.5.3-1.2.2-.1 1-1 1.3-1.4M47 51.9s-.4 0-.7.1c-.4.2-.5.4-.5.4s0 .6-.1 1l-.2 1s.4-.5.7-.8c.3-.3.7-.4.7-.4s0-.4.1-.7v-.6m-2.2 3.5c.5-2 .5-3 .3-4-.1-.8-.8-1.6-.8-1.6s-.7.9-.8 1.6c-.2 1-.2 2 .3 4 .1.5.6 2.6.6 2.6s.3-2.1.4-2.6m-.1 15s-.1.2-1.2.5c-1.2.3-1.5-.9-1.6-1.2-.4-1.2-1.2-1.3-1.9-1.6-.7-.2-2.8-.8-3.1-.9-1.1-.3-1-.6-.9-.8.2-.3 1 0 1.5.2.8.3 1.4.4 1.8.3.8-.1.9-1 .7-1.6-.2-.5-5.3-14.6-5.3-14.6H36s.5-2.1.9-3c.8-2.2 1.7-3.1 1.9-3.3 1.3-.8 1.7 0 1.8.2.3.8-.2 1.2-.2 1.2s.2.1.5.1c.4 0 .7-.2 1-.5.7-.8.1-1.7.1-1.7s1-.2 1.4-1.5c.5-1.6-1.2-2.8-1.2-2.8s.1.1-.1.9c-.1.8-1.5 1.1-2.1 1.3-1.5.4-2.6 1.5-3.2 2.2-.8.9-1.4 3-1.4 3H22.9s-.6-2.1-1.4-3c-.6-.7-1.7-1.9-3.2-2.2-.6-.2-2-.5-2.1-1.3-.1-.8-.1-.9-.1-.9s-1.7 1.2-1.2 2.8c.4 1.3 1.4 1.5 1.4 1.5s-.6 1 .1 1.7c.3.3.6.5 1 .5.2 0 .5-.1.5-.1s-.5-.4-.2-1.2c.1-.2.5-1.1 1.8-.2.3.2 1.1 1 1.9 3.3.3.9.9 3 .9 3h1.4s-5.1 14.1-5.3 14.6c-.2.6-.1 1.5.7 1.6.4.1 1 0 1.8-.3.5-.2 1.3-.5 1.5-.2.1.2.2.5-.9.8-.4.1-2.4.7-3.1.9-.7.3-1.5.4-1.9 1.6-.1.3-.5 1.5-1.6 1.2-1.1-.3-1.2-.5-1.2-.5s.7 1.7 1.7 2.2c1.9 1 3.1-.6 3.1-.6s.5.6 1.5.3c.4-.1.7-.3 1-.6.1-.1.2-.3.2-.3s-1.1 0-1.3-.5c-.1-.3-.1-.7.9-1.4.3-.2 1.9-1.1 2.6-1.5.7-.5 1.6-1.1 1.1-2-.3-.7-1-.9-1-.9l2.6-10 3.2 5.2 3.2-5.2 2.6 10s-.7.3-1 .9c-.4.8.5 1.5 1.1 2 .7.4 2.2 1.3 2.6 1.5 1 .7 1 1.1.9 1.4-.2.5-1.3.5-1.3.5s.1.2.2.3c.2.3.6.5 1 .6 1 .2 1.5-.3 1.5-.3s1.2 1.6 3.1.6c.8-.5 1.5-2.2 1.5-2.2M32.1 50.2L29 55.7l-3.1-5.4h6.2zm1.8-13.7c.2-.3.6-1.4 0-2.3-.3-.5-1-.9-1.8-.6-.4.2-1.2.5-1.8 1.7-.2.4-.5 1.2-.6 1.7-.1.4-.2 1-.2 1h.2s.2-1 .7-1.7c.3-.5.9-.9 1.5-.4.3.3.6.9.2 1.5-.1.2-.3.5-.4.7-.2.2-.4.9 0 1.3.2.2.5.5 1.1.3.3-.1.4-.5.4-.5s-.5.3-.9-.1c-.1-.2-.3-.5.3-1.2.1 0 1-.9 1.3-1.4m-4.3-1c.5-2 .5-3 .3-4-.2-.8-.8-1.6-.8-1.6s-.7.9-.8 1.6c-.2 1-.2 2 .3 4 0 .5.4 2.5.4 2.5s.5-2 .6-2.5m-1.9 7.2c.1-.1.5-.6.7-1.3.1-.4.1-.8.1-.8l-.3-.1s0 .9-.7 1.4c-.4.3-.8.5-1.4.1-.1-.1-.7-.6-1.1-.4-.1.1-.3.2-.2.4 0 .1.1.3.1.3s.1-.3.4-.3c.3 0 .5.5.6.7.1.1.5.6.8.6.2-.1.6-.1 1-.6m2.3.1s-.3-.3-.5-.8c-.3-.7-.2-1.4-.2-1.4h-.1-.1-.1-.1s.1.7-.2 1.4c-.2.5-.5.8-.5.8s.1.5.3.9c.3.5.6.9.6.9s.4-.4.6-.9c.2-.4.3-.9.3-.9m-1-2.7c.7 0 1.3-.4 1.3-.9s-.6-.9-1.3-.9c-.7 0-1.3.4-1.3.9.1.6.6.9 1.3.9m1.6 1.8c-.7-.5-.7-1.4-.7-1.4l-.3.1s0 .4.1.8c.2.6.6 1.1.7 1.3.4.5.7.6.9.6.4 0 .7-.5.8-.6.1-.1.3-.6.6-.7.3 0 .4.3.4.3s.1-.2.1-.3c0-.2-.1-.4-.2-.4-.4-.2-1 .3-1.1.4-.5.4-1 .2-1.3-.1M26 33.6c-.8-.3-1.5.1-1.8.6-.6 1-.2 2 0 2.3.3.4 1.1 1.3 1.3 1.6.6.7.4 1.1.3 1.2-.3.4-.9.1-.9.1s.1.3.4.5c.6.2.9 0 1.1-.3.4-.4.1-1 0-1.3-.2-.2-.3-.6-.4-.7-.3-.6-.1-1.2.2-1.5.6-.5 1.2-.1 1.5.4.4.7.7 1.7.7 1.7h.2s-.1-.6-.2-1c-.1-.6-.4-1.3-.6-1.7-.6-1.4-1.5-1.7-1.8-1.9M14.3 55.4c.5-2 .5-3 .3-4-.2-.8-.8-1.6-.8-1.6s-.7.9-.8 1.6c-.2 1-.2 2 .3 4 .1.5.6 2.6.6 2.6s.3-2.1.4-2.6m-1.7-1s-.2-.5-.2-1c-.1-.4-.1-1-.1-1s-.2-.2-.5-.4c-.4-.2-.7-.1-.7-.1s.1.3.1.6c.1.3.1.7.1.7s.4.1.7.4c.2.3.6.8.6.8m-1.9-.8c-.8-.3-1.5.1-1.8.6-.6 1-.2 2 0 2.3.3.4 1.1 1.3 1.3 1.6.6.7.4 1.1.3 1.2-.3.4-.9.1-.9.1s.1.3.4.5c.6.2.9 0 1.1-.3.4-.4.1-1 0-1.3-.2-.2-.3-.6-.4-.7-.3-.6-.1-1.2.2-1.5.6-.5 1.2-.1 1.5.4.4.7.7 1.7.7 1.7h.2s-.1-.6-.2-1c-.1-.6-.4-1.3-.6-1.7-.6-1.4-1.4-1.8-1.8-1.9m-1.2 8.3c0 .1.1.3.1.3s.1-.3.4-.3c.3 0 .5.5.6.7.1.1.5.6.8.6.2 0 .5-.1.9-.6.1-.1.5-.6.7-1.3.1-.4.1-.8.1-.8l-.3-.1s0 .9-.7 1.4c-.4.3-.8.5-1.4.1-.1-.1-.7-.6-1.1-.4 0 .1-.1.2-.1.4m8.5 0c0-.2-.1-.4-.2-.4-.4-.2-1 .3-1.1.4-.6.4-1 .2-1.4-.1-.7-.5-.7-1.4-.7-1.4l-.3.1s0 .4.1.8c.2.6.6 1.1.7 1.3.4.5.7.6.9.6.4 0 .7-.5.8-.6.1-.1.3-.6.6-.7.3 0 .4.3.4.3s.2-.2.2-.3m-3-2.7c0-.5-.6-.9-1.3-.9-.7 0-1.3.4-1.3.9s.6.9 1.3.9c.8 0 1.3-.4 1.3-.9m1.4-6.7c.1-.3.1-.6.1-.6s-.4 0-.7.1c-.4.2-.5.4-.5.4s0 .6-.1 1l-.2 1s.4-.5.7-.8c.3-.3.7-.4.7-.4s-.1-.4 0-.7m.4 1.1c-.4.2-1.2.5-1.8 1.7-.2.4-.5 1.2-.6 1.7-.1.4-.2 1-.2 1h.2s.2-1 .7-1.7c.3-.5.9-.9 1.5-.4.3.3.6.9.2 1.5-.1.2-.3.5-.4.7-.2.2-.4.9 0 1.3.2.2.5.5 1.1.3.3-.1.4-.5.4-.5s-.5.3-.9-.1c-.1-.2-.3-.5.3-1.2.2-.2 1-1.1 1.3-1.6.2-.3.6-1.4 0-2.3-.3-.3-1-.8-1.8-.4m-4 9.2s.1.5.3.9c.3.5.6.9.6.9s.4-.4.6-.9c.2-.4.3-.9.3-.9s-.3-.3-.5-.8c-.3-.7-.2-1.4-.2-1.4h-.1-.1-.1-.1s.1.7-.2 1.4c-.2.4-.5.8-.5.8m14.3 8c.3.3.7.8.7.8s-.2-.5-.2-1c-.1-.4-.1-1-.1-1s-.2-.2-.5-.4c-.4-.2-.7-.1-.7-.1s.1.3.1.6c.1.3.1.7.1.7l.6.4m-2.9.5c-.6 1-.2 2 0 2.3.3.4 1.1 1.3 1.3 1.6.6.7.4 1.1.3 1.2-.3.4-.9.1-.9.1s.1.3.4.5c.6.2.9 0 1.1-.3.4-.4.1-1 0-1.3-.2-.2-.3-.6-.4-.7-.3-.6-.1-1.2.2-1.5.6-.5 1.2-.1 1.5.4.4.7.7 1.7.7 1.7h.2s-.1-.6-.2-1c-.1-.6-.4-1.3-.6-1.7-.6-1.2-1.4-1.5-1.8-1.7-.8-.5-1.5 0-1.8.4m.6 7.8c0 .1.1.3.1.3s.1-.3.4-.3c.3 0 .5.5.6.7.1.1.5.6.8.6.2 0 .5-.1.9-.6.1-.1.5-.6.7-1.3.1-.4.1-.8.1-.8l-.3-.1s0 .9-.7 1.4c-.4.3-.8.5-1.4.1 0-.1-.6-.5-1-.4-.1.1-.3.2-.2.4m3.3.9s.1.5.3.9c.3.5.6.9.6.9s.4-.4.6-.9c.3-.4.4-.9.4-.9s-.3-.3-.5-.8c-.3-.7-.2-1.4-.2-1.4h-.1-.1-.1-.1s.1.7-.2 1.4l-.6.8m2.3-.2c.4.5.7.6.9.6.4 0 .7-.5.8-.6.1-.1.3-.6.6-.7.3 0 .4.3.4.3s.1-.2.1-.3c0-.2-.1-.4-.2-.4-.4-.2-1 .3-1.1.4-.6.4-1 .2-1.4-.1-.7-.5-.7-1.4-.7-1.4l-.3.1s0 .4.1.8c.2.7.6 1.2.8 1.3M29 75.6c-.7 0-1.3.4-1.3.9s.6.9 1.3.9c.7 0 1.3-.4 1.3-.9s-.6-.9-1.3-.9m0-.4s.4-2.1.6-2.6c.5-2 .5-3 .3-4-.2-.7-.9-1.6-.9-1.6s-.7.9-.8 1.6c-.2 1-.2 2 .3 4 .1.5.5 2.6.5 2.6m2.7-5.5c.1-.3.1-.6.1-.6s-.4 0-.7.1c-.4.2-.5.4-.5.4s0 .6-.1 1l-.2 1s.4-.5.7-.8c.3-.3.7-.4.7-.4s-.1-.4 0-.7m2.2 4c.2-.3.6-1.4 0-2.3-.3-.5-1-.9-1.8-.6-.4.2-1.2.5-1.8 1.7-.2.4-.5 1.2-.6 1.7-.1.4-.2 1-.2 1h.2s.2-1 .7-1.7c.3-.5.9-.9 1.5-.4.3.3.6.9.2 1.5-.1.2-.3.5-.4.7-.2.2-.4.9 0 1.3.2.2.5.5 1.1.3.3-.1.4-.5.4-.5s-.5.3-.9-.1c-.1-.2-.3-.5.3-1.2.1-.1 1-1 1.3-1.4m11-10.1c.2-.4.3-.9.3-.9s-.3-.3-.5-.8c-.3-.7-.2-1.4-.2-1.4h-.1-.1-.1-.1s.1.7-.2 1.4c-.2.5-.5.8-.5.8s.1.5.3.9c.3.5.6.9.6.9s.3-.4.6-.9m-.6-5.2c-.7 0-1.3.4-1.3.9s.6.9 1.3.9c.7 0 1.3-.4 1.3-.9-.1-.6-.6-.9-1.3-.9m-4.1 3.1c-.1.1-.3.2-.2.4 0 .1.1.3.1.3s.1-.3.4-.3c.3 0 .5.5.6.7.1.1.5.6.8.6.2 0 .5-.1.9-.6.1-.1.5-.6.7-1.3.1-.4.1-.8.1-.8l-.3-.1s0 .9-.7 1.4c-.4.3-.8.5-1.4.1 0-.1-.5-.5-1-.4m2.2-7.9c.3.3.7.8.7.8s-.2-.5-.2-1c-.1-.4-.1-1-.1-1s-.2-.2-.5-.4c-.4-.2-.7-.1-.7-.1s.1.3.1.6c.1.3.1.7.1.7l.6.4m1.2 3.4c-.1-.6-.4-1.3-.6-1.7-.6-1.2-1.4-1.5-1.8-1.7-.8-.3-1.5.1-1.8.6-.6 1-.2 2 0 2.3.3.4 1.1 1.3 1.3 1.6.6.7.4 1.1.3 1.2-.3.4-.9.1-.9.1s.1.3.4.5c.6.2.9 0 1.1-.3.4-.4.1-1 0-1.3-.2-.2-.3-.6-.4-.7-.3-.6-.1-1.2.2-1.5.6-.5 1.2-.1 1.5.4.4.7.7 1.7.7 1.7h.2s-.1-.8-.2-1.2m2 5.6c.4.5.7.6.9.6.4 0 .7-.5.8-.6.1-.1.3-.6.6-.7.3 0 .4.3.4.3s.1-.2.1-.3c0-.2-.1-.4-.2-.4-.4-.2-1 .3-1.1.4-.6.4-1 .2-1.4-.1-.7-.5-.7-1.4-.7-1.4l-.3.1s0 .4.1.8c.3.7.7 1.2.8 1.3M31.8 32s-.4 0-.7.1c-.4.2-.5.4-.5.4s0 .6-.1 1l-.2 1s.4-.5.7-.8c.3-.3.7-.4.7-.4s0-.4.1-.7c-.1-.3 0-.6 0-.6m-4 2.5s-.2-.5-.2-1c-.1-.4-.1-1-.1-1s-.2-.2-.5-.4c-.4-.1-.8-.1-.8-.1s.1.3.1.6c.1.3.1.7.1.7s.4.1.7.4c.4.3.7.8.7.8M53.3 10c.2-.1.3 0 .5 0 .5.2.8 1.1.5 1.9-.2.6-.6 1.1-1.1 1.1l-2.3 5c1.1 0 2 .9 2 2s-.9 2-2 2H7c-1.1 0-2-.9-2-2s.9-2 2-2l-2.3-5c-.3 0-.8-.4-1-1-.3-.8-.1-1.7.5-1.9.1-.1.3-.1.4-.1-.2-4.4-.4-6.2-2.8-7.1 2.1-1.3 4-1 5.1 1.7.3-.7.4-1 1.1-1.3.6 2.4-.1 4.3-1.7 6.3C8 7.9 10.2 7.4 12 7.4c0 .3-.1.8-.6 1.1 1.4 1.1 2 1.7 2.5 2.8-.6 1.1-1.1 1.7-2.5 2.8.4.3.6.8.6 1.1-1.9 0-4.1-.6-5.7-2.2.8 1.9 3.3 3.6 4.4 3.6.9 0 3.4-1.4 5.2-3.9-.5-.3-.9-.9-.9-1.5 0-1 .9-1.9 2-1.8.8.1 1.5.8 1.6 1.6.1.7-.3 1.4-.9 1.7 1.8 2.4 4.3 3.9 5.2 3.9 1.1 0 3.9-1.4 4.4-3.6-1.7 1.7-3.9 2.2-5.7 2.2 0-.3.1-.8.6-1.1-1.4-1.1-2-1.7-2.5-2.8.6-1.1 1.1-1.7 2.5-2.8-.4-.3-.6-.8-.6-1.1 1.9 0 4.1.6 5.7 2.2-1.7-1.7-2.2-3.9-2.2-5.7.3 0 .8.1 1.1.6 1.1-1.4 1.7-2 2.8-2.5 1.1.6 1.7 1.1 2.8 2.5.3-.4.8-.6 1.1-.6 0 1.9-.6 4.1-2.2 5.7 1.7-1.7 3.9-2.2 5.7-2.2 0 .3-.1.8-.6 1.1 1.4 1.1 2 1.7 2.5 2.8-.6 1.1-1.1 1.7-2.5 2.8.4.3.6.8.6 1.1-1.9 0-4.1-.6-5.7-2.2.6 2.2 3.3 3.6 4.4 3.6.9 0 3.4-1.4 5.2-3.9-.5-.3-.9-.9-.9-1.5 0-1 .9-1.9 2-1.8.8.1 1.5.8 1.6 1.6.1.7-.3 1.4-.9 1.7 1.8 2.4 4.3 3.9 5.2 3.9 1.1 0 3.6-1.8 4.4-3.6-1.7 1.7-3.9 2.2-5.7 2.2 0-.3.1-.8.6-1.1-1.4-1.1-2-1.7-2.5-2.8.6-1.1 1.1-1.7 2.5-2.8-.4-.3-.6-.8-.6-1.1 1.9 0 4.1.6 5.7 2.2-1.5-2-2.2-3.9-1.7-6.3.7.3.8.7 1.1 1.3 1.1-2.7 3-3 5.1-1.7-2.4.9-2.8 2.7-2.9 7.1m3.9-8.6C56.1.7 55 .4 54 .4c-.8 0-2 .2-3.1 1.3-.5-.3-1.1-.3-1.6 0-.5.2-.9.7-1 1.3-.2 1-.3 1.9-.2 2.8-.7-.1-1.4-.2-2.1-.2-1 0-1.8.8-1.8 1.8 0 .2 0 .4.1.6l-.5.5c-.6-.5-1.3-.9-2.1-1h-.4c-1 0-1.8.4-2.5 1l-.5-.5c0-.2.1-.4.1-.6 0-1-.8-1.8-1.8-1.8-.6 0-1.2 0-1.8.1.1-.6.1-1.2.1-1.8 0-1-.8-1.8-1.8-1.8-.2 0-.4 0-.6.1-.7-.8-1.4-1.3-2.4-1.9-.5-.3-1.1-.3-1.6 0-1 .5-1.7 1-2.4 1.9-.5-.2-.7-.2-1-.2-1 0-1.8.8-1.8 1.8 0 .6.1 1.2.1 1.8-.6-.1-1.2-.1-1.8-.1-1 0-1.8.8-1.8 1.8 0 .2 0 .4.1.6l-.5.5c-.6-.5-1.3-.9-2.1-1h-.4c-1 0-1.8.4-2.5 1l-.5-.5c0-.2.1-.4.1-.6 0-1-.8-1.8-1.8-1.8-.7 0-1.4.1-2.1.2.1-.9 0-1.9-.2-2.8-.1-.6-.5-1-1-1.3-.5-.2-1.1-.2-1.6 0C6.1.6 4.8.3 4.1.3c-1 0-2.1.4-3.2 1-.6.5-1 1.2-.9 1.9.1.7.6 1.3 1.2 1.5 1 .3 1.3.8 1.5 4.2-.9.8-1.2 2.2-.7 3.7.3.8.8 1.5 1.4 1.9l1.2 2.6c-.8.7-1.4 1.7-1.4 2.9v.1c0 2.1 1.7 3.8 3.8 3.8h44c2.1 0 3.8-1.7 3.8-3.8 0-1.2-.6-2.2-1.4-2.9l1.2-2.6c.6-.4 1.1-1.1 1.4-1.9.5-1.5.2-3-.8-3.8.1-3.4.6-3.7 1.6-4.1.7-.2 1.1-.8 1.2-1.5s-.2-1.5-.8-1.9"/></symbol><symbol fill="currentColor" viewBox="0 0 30 30" id="user" xmlns="http://www.w3.org/2000/svg"><g data-name="Group 266"><path data-name="Path 134" d="M25.61 4.39A14.93 14.93 0 0015 0a15 15 0 1010.61 4.39zm-1 20.22a13.59 13.59 0 01-19.22 0 13.59 13.59 0 010-19.22 13.48 13.48 0 019.61-4A13.59 13.59 0 0128.59 15a13.48 13.48 0 01-4 9.61z"/><path data-name="Path 135" d="M18.48 13.82a4.08 4.08 0 10-7.56-2.14 4 4 0 00.61 2.14 3.12 3.12 0 00-1.84 3v4a1.54 1.54 0 001.55 1.55h7.52a1.54 1.54 0 001.55-1.55v-4a3.13 3.13 0 00-1.83-3zm-6.14-2.14a2.66 2.66 0 015.32 0A2.65 2.65 0 0115 14.35a2.67 2.67 0 01-2.66-2.67zm6.55 9.17a.13.13 0 01-.13.13h-7.52a.13.13 0 01-.13-.13v-4a1.78 1.78 0 01.82-1.63 2.44 2.44 0 01.63-.25 4.08 4.08 0 004.88 0 2.44 2.44 0 01.63.25 1.76 1.76 0 01.82 1.63z"/></g></symbol></svg>