<svg xmlns="http://www.w3.org/2000/svg" xmlns:xlink="http://www.w3.org/1999/xlink"><symbol viewBox="0 0 50 50" id="twitter-logo"><path fill="currentColor" class="ast1" d="M15.7 45.3c18.9 0 29.2-15.6 29.2-29.2v-1.3c2-1.5 3.7-3.3 5.1-5.3-1.9.8-3.9 1.4-5.9 1.6 2.1-1.3 3.7-3.3 4.5-5.7-2 1.2-4.2 2-6.5 2.5-3.9-4.1-10.4-4.3-14.5-.4-2.7 2.5-3.8 6.2-3 9.8C16.4 16.9 8.7 13 3.5 6.6.8 11.3 2.2 17.3 6.7 20.3 5 20.2 3.4 19.8 2 19v.1c0 4.9 3.4 9.1 8.2 10.1-1.5.4-3.1.5-4.6.2 1.3 4.2 5.2 7 9.6 7.1-3.6 2.9-8.1 4.4-12.7 4.4-.8 0-1.6-.1-2.4-.1 4.6 2.9 10 4.5 15.6 4.5"/></symbol></svg>