<svg xmlns="http://www.w3.org/2000/svg" xmlns:xlink="http://www.w3.org/1999/xlink"><symbol id="business" viewBox="0 0 30 30" xmlns="http://www.w3.org/2000/svg"><defs><style>.acls-1{fill:#0061ad}</style></defs><path id="aPath_96" data-name="Path 96" class="acls-1" d="M30 10.37a3.81 3.81 0 01-.37.43c-.84.74-1.7 1.47-2.54 2.2a.9.9 0 00-.25.33c-.59 1.21-1.17 2.43-1.74 3.65a.31.31 0 000 .25 2.08 2.08 0 01-.77 2.83 2 2 0 01-.95.27h-.12a2.12 2.12 0 01-.61 1.48 2 2 0 01-1.5.62A2.1 2.1 0 0119 24.56a2 2 0 01-1.35 2 2.09 2.09 0 01-2.29-.56 2.15 2.15 0 01-2.26.87A2.05 2.05 0 0111.5 25a2.11 2.11 0 01-2.4-2.1A2.1 2.1 0 017 20.55 2.1 2.1 0 015.72 17l-1.65-2.19a7.52 7.52 0 01-.47-.64 8.78 8.78 0 00-1.79-1.76c-.51-.46-1-.89-1.55-1.34a2.27 2.27 0 01-.26-.35v-.31c.49-.62 1-1.25 1.48-1.87l4.08-5.06.07-.08a.6.6 0 01.83-.21l.07.06 3.09 2a1.08 1.08 0 00.29.13c1 .29 2.05.57 3.08.84a.69.69 0 00.35 0l3-.84a1.68 1.68 0 01.5-.07h3.81a.93.93 0 00.4-.12C22 4.53 23 3.9 24 3.28a.63.63 0 01.88 0 .66.66 0 01.12.17l4.84 6.29c.08.1.14.21.21.31zM16.13 25.08l.27.22a.88.88 0 001 .08.86.86 0 00.47-.83 1.1 1.1 0 00-.37-.73c-.43-.42-.85-.85-1.27-1.28a.59.59 0 01-.1-.73.58.58 0 01.67-.25.87.87 0 01.32.22c.45.44.88.89 1.32 1.32a.89.89 0 001.27 0 1 1 0 00.2-.29.94.94 0 00-.26-1.08l-1.55-1.56-.9-.91a.57.57 0 01-.2-.56.59.59 0 01.7-.44.57.57 0 01.32.2c.6.59 1.2 1.2 1.8 1.81.25.25.49.51.75.75a.89.89 0 001.26 0 .75.75 0 00.18-.28.92.92 0 00-.27-1.07q-1.84-1.84-3.67-3.71a.58.58 0 01-.12-.83L18 15a.59.59 0 01.83 0 .19.19 0 01.06.07L21.7 18c.32.32.63.65 1 1a.89.89 0 001.26 0 .83.83 0 00.2-.32.93.93 0 00-.3-1l-6.77-6.77a.6.6 0 00-.31-.15c-.72-.06-1.44-.09-2.17-.16a.39.39 0 00-.44.25c-.41.76-.85 1.52-1.28 2.28a2.11 2.11 0 01-2.25 1.07A2.09 2.09 0 019 11.6a1.79 1.79 0 01.26-.66c.44-.8.89-1.58 1.34-2.38L11.46 7l-1.61-.45a.28.28 0 00-.23.11L4.4 13a.2.2 0 000 .28c.36.47.71.95 1.06 1.43l1.1 1.47A2.09 2.09 0 0110 17.43a2.09 2.09 0 012.54 2.05c1.63.35 2.15 1 2.06 2.56a2.1 2.1 0 011.52 3zm8-8.83l.11-.23 1.43-3a.33.33 0 00-.05-.39q-2.4-3-4.78-6.07a.35.35 0 00-.31-.15h-3.68a1.12 1.12 0 00-.36 0l-3.86 1.21a.55.55 0 00-.29.23c-.39.66-.76 1.34-1.14 2s-.65 1.12-.95 1.69a.88.88 0 00.28 1.23.94.94 0 00.4.13.89.89 0 00.91-.52l1.56-2.76a.68.68 0 01.72-.38c1 .08 1.92.14 2.88.2a1.1 1.1 0 01.74.33Q20.85 12.89 24 16a1.32 1.32 0 01.16.25zm-20.65-4L8.64 6 6.27 4.48l-4.86 6zM21.87 6l4.66 5.93 2.07-1.78-4.35-5.67zM8.18 20.72a1 1 0 00.52.94.83.83 0 001-.12c.51-.48 1-1 1.48-1.48a.89.89 0 00-1.3-1.23c-.47.46-.94.91-1.38 1.39a1.89 1.89 0 00-.28.5zm2.93 3.15a1 1 0 00.79-.33c.41-.41.82-.81 1.23-1.23a2.11 2.11 0 00.19-.23.9.9 0 00-.15-1.18.87.87 0 00-1.17 0c-.51.49-1 1-1.5 1.51a.8.8 0 00-.12.94.84.84 0 00.73.52zm-3.77-4.5a1.35 1.35 0 00.44-.2 6.57 6.57 0 00.88-.87.89.89 0 00-1.27-1.24 11.09 11.09 0 00-.84.84.83.83 0 00-.12 1 .94.94 0 00.91.52zm6.33 6.35a1.14 1.14 0 00.39-.14 9.26 9.26 0 001-1 .84.84 0 00-.14-1.14.87.87 0 00-1.14-.05 9.66 9.66 0 00-.9.91.8.8 0 00-.07.93.9.9 0 00.87.49z"/></symbol><symbol fill="currentColor" viewBox="0 0 24 24" id="chevron-down" xmlns="http://www.w3.org/2000/svg"><path d="M13 15.6c-.3.3-.6.4-1 .4s-.7-.1-1-.4l-5.6-5.3c-.5-.5-.5-1.4 0-1.9s1.4-.5 2 0l4.6 4.4 4.6-4.4c.5-.5 1.4-.5 2 0 .5.5.5 1.4 0 1.9L13 15.6z"/></symbol><symbol id="contact-info" viewBox="0 0 30 30" xmlns="http://www.w3.org/2000/svg"><defs><style>.ccls-1{fill:#0061ad}</style></defs><g id="cGroup_156" data-name="Group 156"><path id="cPath_95" data-name="Path 95" class="ccls-1" d="M9.51 13.73a4.42 4.42 0 10-7.52 0A3.35 3.35 0 000 17v4.34A1.67 1.67 0 001.68 23h8.13a1.67 1.67 0 001.67-1.67V17a3.36 3.36 0 00-1.97-3.27zm-6.64-2.31a2.88 2.88 0 112.88 2.87 2.89 2.89 0 01-2.88-2.87zM10 21.33a.13.13 0 01-.13.13H1.68a.13.13 0 01-.13-.13V17a1.87 1.87 0 01.89-1.76 2.8 2.8 0 01.67-.24 4.4 4.4 0 005.28 0 2.87 2.87 0 01.68.28A1.88 1.88 0 0110 17z"/><circle id="cEllipse_3" data-name="Ellipse 3" class="ccls-1" cx="15.75" cy="10.74" r="1.54"/><path id="cRectangle_607" data-name="Rectangle 607" class="ccls-1" d="M18.79 9.96h8.74v1.55h-8.74z"/><circle id="cEllipse_4" data-name="Ellipse 4" class="ccls-1" cx="15.75" cy="15.41" r="1.54"/><path id="cRectangle_608" data-name="Rectangle 608" class="ccls-1" d="M18.79 14.64H30v1.54H18.79z"/><path id="cRectangle_609" data-name="Rectangle 609" class="ccls-1" d="M14.22 19.26H30v1.54H14.22z"/></g></symbol><symbol id="customers" viewBox="0 0 30 30" xmlns="http://www.w3.org/2000/svg"><defs><style>.dcls-1{fill:#0061ad}</style></defs><path id="dPath_92" data-name="Path 92" class="dcls-1" d="M27.89 13.79a4.09 4.09 0 10-7.31-2.54 4 4 0 00.88 2.54 3.14 3.14 0 00-1.91 1.86 3.31 3.31 0 00-1.39-1 4.1 4.1 0 10-6.43 0 3.46 3.46 0 00-1.18.74 3.1 3.1 0 00-2-2.19 4.09 4.09 0 10-7.32-2.5 4 4 0 00.89 2.53A3.15 3.15 0 000 16.37v4A1.58 1.58 0 001.56 22H9.1a1.54 1.54 0 00.52-.09 1.55 1.55 0 001.55 1.54h7.55a1.56 1.56 0 001.47-1.07 1.36 1.36 0 00.71.17h7.54A1.56 1.56 0 0030 21v-4a3.15 3.15 0 00-2.11-3.21zm-3.22-5.2a2.67 2.67 0 11-1.39 4.94 2.66 2.66 0 011.39-4.94zM15 9.48a2.67 2.67 0 011.39 4.95 2.67 2.67 0 01-2.78 0A2.67 2.67 0 0115 9.48zM5.33 8a2.66 2.66 0 011.39 5A2.6 2.6 0 014 13a2.66 2.66 0 011.33-5zm3.9 12.36a.12.12 0 01-.12.13H1.56a.12.12 0 01-.12-.13v-4a1.72 1.72 0 01.82-1.63 2.44 2.44 0 011.15-.34h.18a4.1 4.1 0 003.49 0h.18a2.44 2.44 0 011.15.34 1.72 1.72 0 01.82 1.63zm9.62 1.46a.13.13 0 01-.13.12h-7.54a.12.12 0 01-.13-.12v-4a1.73 1.73 0 01.82-1.63 2.6 2.6 0 011.13-.34h.18a4.08 4.08 0 001.75.4 4 4 0 001.74-.4h.19a2.56 2.56 0 011.14.34 1.76 1.76 0 01.83 1.63zm9.72-.9a.13.13 0 01-.12.13H20.9a.14.14 0 01-.13-.13v-4a1.77 1.77 0 01.83-1.64 2.55 2.55 0 011.14-.28h.19a4 4 0 001.74.39 4.07 4.07 0 001.75-.39h.18a2.59 2.59 0 011.15.33 1.75 1.75 0 01.82 1.64z"/></symbol><symbol id="expand" viewBox="0 0 30 30" xmlns="http://www.w3.org/2000/svg"><defs><style>.ecls-1{fill:#e93171}</style></defs><path id="ePath_129" data-name="Path 129" class="ecls-1" d="M0 0h30v30H0zm28.23 1.77H1.77v26.46h26.46z"/><path id="ePath_130" data-name="Path 130" class="ecls-1" d="M26.57 8.56h-1.74v-2.1l-4.87 5-1.27-1.27 4.88-4.93h-2.11v-1.8h5.12z"/><path id="ePath_131" data-name="Path 131" class="ecls-1" d="M24.82 23.47v-2h1.75v5.1h-5.11V24.8h2.05l-4.84-4.89 1.26-1.26 4.8 4.88z"/><path id="ePath_132" data-name="Path 132" class="ecls-1" d="M5.18 6.52v2H3.43V3.46h5.11V5.2h-2l4.84 4.88-1.26 1.26-4.86-4.87z"/><path id="ePath_133" data-name="Path 133" class="ecls-1" d="M6.41 24.8h2.14v1.73H3.43v-5.09h1.73v2l4.9-4.87 1.21 1.21z"/></symbol><symbol id="fees" viewBox="0 0 30 30" xmlns="http://www.w3.org/2000/svg"><defs><style>.fcls-1{fill:#0061ad}</style></defs><g id="fGroup_153" data-name="Group 153"><path id="fPath_93" data-name="Path 93" class="fcls-1" d="M20.49 5.49a9.51 9.51 0 00-7.24 3.34H2.14a.73.73 0 00-.73.73v1.5a.73.73 0 00.73.73h9.39c-.08.23-.15.46-.22.7H.73a.73.73 0 00-.73.73v1.5a.73.73 0 00.73.73H11c0 .27 0 .53.07.8H1.58a.72.72 0 00-.73.75v1.49a.73.73 0 00.73.73H12c.13.26.26.51.41.75H1.58a.73.73 0 00-.73.73v1.49a.73.73 0 00.73.74h13.63a9.51 9.51 0 105.28-17.44zm0 17A7.52 7.52 0 1128 15a7.53 7.53 0 01-7.51 7.52z"/><path id="fPath_94" data-name="Path 94" class="fcls-1" d="M19.59 12.29a1.81 1.81 0 011.27-.45 2.71 2.71 0 01.8.11 6.26 6.26 0 01.82.31l.62-1.48a5.08 5.08 0 00-2.24-.52 3.8 3.8 0 00-2.57.9A3.85 3.85 0 0017 13.58h-.85v1.12h.74v.3a2.55 2.55 0 000 .39h-.75v1.13h.87a3.63 3.63 0 003.82 3.18 4 4 0 001.87-.37v-1.59a4.43 4.43 0 01-1.75.37 1.83 1.83 0 01-2-1.55h2.15v-1.13h-2.26v-.73h2.66v-1.12h-2.56a2.14 2.14 0 01.65-1.29z"/></g></symbol><symbol fill="currentColor" viewBox="0 0 24 24" id="menu" xmlns="http://www.w3.org/2000/svg"><path d="M23 6H1a1 1 0 010-2h22a1 1 0 010 2zm0 7H1a1 1 0 010-2h22a1 1 0 010 2zm0 7H1a1 1 0 010-2h22a1 1 0 010 2z"/></symbol><symbol id="more-information" viewBox="0 0 30 30" xmlns="http://www.w3.org/2000/svg"><defs><style>.hcls-1{fill:#0061ad}</style></defs><path id="hPath_104" data-name="Path 104" class="hcls-1" d="M25.61 4.39A14.93 14.93 0 0015 0a15 15 0 1010.61 4.39zm-1 20.22a13.59 13.59 0 01-19.22 0A13.59 13.59 0 0115 1.41a13.59 13.59 0 019.61 23.2z"/><circle id="hEllipse_9" data-name="Ellipse 9" class="hcls-1" cx="8.58" cy="15" r="2.03"/><circle id="hEllipse_10" data-name="Ellipse 10" class="hcls-1" cx="15" cy="15" r="2.03"/><circle id="hEllipse_11" data-name="Ellipse 11" class="hcls-1" cx="21.42" cy="15" r="2.03"/></symbol><symbol id="search" viewBox="0 0 30 30" xmlns="http://www.w3.org/2000/svg"><defs><style>.icls-1{fill:#fff}</style></defs><path id="iicon-search" class="icls-1" d="M11.25 2.52A8.74 8.74 0 1020 11.25a8.73 8.73 0 00-8.74-8.73M20 18.26l9.59 9.58a1.25 1.25 0 01-1.72 1.82l-.05-.05L18.26 20A11.24 11.24 0 1120 18.26z"/></symbol><symbol id="service-instructions" viewBox="0 0 30 30" xmlns="http://www.w3.org/2000/svg"><defs><style>.jcls-1{fill:#0061ad}</style></defs><path id="jPath_101" data-name="Path 101" class="jcls-1" d="M25.61 4.39A14.93 14.93 0 0015 0a15 15 0 1010.61 4.39zm-1 20.22a13.59 13.59 0 01-19.22 0 13.59 13.59 0 010-19.22 13.48 13.48 0 019.61-4A13.59 13.59 0 0128.59 15a13.48 13.48 0 01-3.98 9.61z"/><path id="jPath_102" data-name="Path 102" class="jcls-1" d="M10.94 24.73h8.12v-2.19h-2.22V12.16h-5.9v2.19h2.23v8.19h-2.23z"/><circle id="jEllipse_5" data-name="Ellipse 5" class="jcls-1" cx="15" cy="8.03" r="2.76"/></symbol><symbol id="service-package" viewBox="0 0 30 30" xmlns="http://www.w3.org/2000/svg"><defs><style>.kcls-1{fill:#0061ad}</style></defs><path id="kPath_97" data-name="Path 97" class="kcls-1" d="M20 6.45a15.35 15.35 0 00-3.69-.58c-.58 0-.47 0-.48-.5a.74.74 0 000-.21c0-.23.07-.33.29-.41a1.89 1.89 0 001.16-2.16 1.84 1.84 0 00-1.68-1.53 2 2 0 00-2.1.84 2 2 0 00.57 2.68 1.54 1.54 0 00.34.17.34.34 0 01.26.38c0 .72 0 .7-.72.75a13.1 13.1 0 00-8 3 11.23 11.23 0 00-3.7 6.48v.14c0 .04 0 0-.07.07-.22-.23-.45-.46-.69-.67a.83.83 0 00-.53-.2.55.55 0 00-.5.61.58.58 0 00.13.3A2.74 2.74 0 003 16.84H6.28c-.23.52-.44 1-.67 1.51a.36.36 0 01-.15.12l-1.16.48-.43-.86a.55.55 0 00-.7-.35H3.1c-.87.3-1.74.59-2.59.91-.19.07-.32.26-.48.4v9.49A.64.64 0 00.8 29a.69.69 0 00.19-.1L6.88 26c.48-.23.57-.51.34-1l-.46-.95.24-.13 3.71-1.85a7.07 7.07 0 012.82-.7A37.52 37.52 0 0020 20.32c.66-.16 1.34-.28 2-.45a14.94 14.94 0 001.75-.58 1.84 1.84 0 001.1-2.29 1.49 1.49 0 00-.05-.21H27.49a2.49 2.49 0 002.28-1.12 3.4 3.4 0 01.23-.3V15c-.41-.53-.76-.53-1.18 0-.14.18-.31.34-.51.56-.09-.4-.16-.72-.24-1a11.48 11.48 0 00-3.24-5.47A12.91 12.91 0 0020 6.45zM24.11 10a9.31 9.31 0 012.11 3c.34.76.56 1.57.83 2.37a1.55 1.55 0 010 .31h-8.9a.42.42 0 01-.42-.22 1.77 1.77 0 00-1.56-.89h-5.45a5.56 5.56 0 00-3.13 1 .66.66 0 01-.32.12H3.42a10.18 10.18 0 011-3 10 10 0 017.11-5.29 17.67 17.67 0 014.35-.4 12.77 12.77 0 013.74.54A15 15 0 0124.11 10zM4.77 20c.45-.19.86-.38 1.27-.53a1 1 0 00.65-.69 6.61 6.61 0 01.72-1.43 4.06 4.06 0 013.47-1.63h5.18a.71.71 0 01.78.63v.06a.72.72 0 01-.7.72h-4.75a.58.58 0 00-.59.57.59.59 0 00.58.59 1.76 1.76 0 00.23 0H16A1.85 1.85 0 0017.93 17a.3.3 0 01.19-.16h4.95a.71.71 0 01.68.73.45.45 0 010 .16.75.75 0 01-.5.52 16.07 16.07 0 01-2.87.79 39 39 0 01-7 1.17 8.8 8.8 0 00-3.71 1.05c-1 .54-2.11 1.06-3.16 1.59l-.3.14zm-3.6 7.46v-7.64a.28.28 0 01.1-.21L3 19l3 6.11zM15.28 3.71c-.57 0-.84-.19-.89-.63a.69.69 0 01.47-.83c.61-.12 1 0 1.2.34.3.56-.09 1.12-.78 1.12z"/></symbol><symbol id="software" viewBox="0 0 30 30" xmlns="http://www.w3.org/2000/svg"><defs><style>.lcls-1{fill:#0061ad}</style></defs><path id="lPath_105" data-name="Path 105" class="lcls-1" d="M28.59 20.51h-.26v-.09V6.71c0-1.49-.77-2.32-2.13-2.32H3.77c-1.36 0-2.11.84-2.11 2.35v13.51a1.15 1.15 0 000 .26h-.41A1.16 1.16 0 000 21.59a3.61 3.61 0 003.2 4 2.26 2.26 0 00.45 0h22.69A3.56 3.56 0 0030 22.13v-.19c0-1-.42-1.43-1.41-1.43zm-25.66-6.7V6.65c0-.34.07-.65.39-.78a1.42 1.42 0 01.54-.08h22.31c.72 0 .91.21.91 1V20a2.33 2.33 0 000 .46h-6.33a.6.6 0 00-.08-.47v-.05c-.17-.28-.05-.51.28-.52h.53a1.35 1.35 0 001.39-1.32v-.06-.71-.86a1.33 1.33 0 00-1.29-1.25h-.65a.4.4 0 01-.29-.2.41.41 0 01.07-.34 6.14 6.14 0 01.43-.45 1.33 1.33 0 000-1.89c-.34-.36-.69-.71-1-1.05a1.36 1.36 0 00-1.93 0c-.14.14-.28.28-.43.41a.41.41 0 01-.34.06.44.44 0 01-.19-.29 5.86 5.86 0 010-.59 1.35 1.35 0 00-1.34-1.35h-1.66a1.33 1.33 0 00-1.35 1.37 5.72 5.72 0 010 .59.42.42 0 01-.19.29.41.41 0 01-.34-.07 4.07 4.07 0 01-.42-.41 1.39 1.39 0 00-1.93 0c-.36.35-.72.7-1.07 1.07a1.34 1.34 0 000 1.87 4.44 4.44 0 01.43.44.45.45 0 01.08.37.46.46 0 01-.3.19h-.63a1.32 1.32 0 00-1.34 1.29v1.6a1.3 1.3 0 001.08 1.27 7.5 7.5 0 00.82 0c.34 0 .46.24.28.54a.68.68 0 00-.11.5H2.9a1.53 1.53 0 000-.3zm7.4 6.7a1.38 1.38 0 00-1-2.11h-.71a.3.3 0 01-.32-.27.09.09 0 010-.07v-1.4a.28.28 0 01.25-.32.11.11 0 01.08 0h.59a1.33 1.33 0 001.25-.85 1.31 1.31 0 00-.3-1.49c-.13-.15-.29-.29-.43-.44a.28.28 0 01-.06-.4l.06-.06c.33-.33.65-.66 1-1a.31.31 0 01.43-.06l.06.07c.16.15.32.32.49.47a1.31 1.31 0 001.39.21 1.29 1.29 0 00.87-1.1A5.56 5.56 0 0014 11c0-.24.09-.37.35-.36h1.36c.24 0 .34.11.34.34v.71a1.31 1.31 0 00.88 1.13 1.33 1.33 0 001.39-.23c.17-.14.32-.3.47-.45a.32.32 0 01.44-.08.23.23 0 01.07.07l1 1a.29.29 0 01.07.42l-.07.06c-.14.14-.29.28-.42.42a1.3 1.3 0 00-.26 1.48 1.32 1.32 0 001.24.86h.59a.29.29 0 01.34.25.14.14 0 010 .09V18a.31.31 0 01-.34.35 6 6 0 00-.74 0 1.29 1.29 0 00-1.11.89 1.24 1.24 0 00.12 1.21h-9.39zm16.08 3.83H3.75a2.3 2.3 0 01-2.44-2.16v-.38h27.37a2.28 2.28 0 01-2 2.53z"/><path id="lPath_106" data-name="Path 106" class="lcls-1" d="M17.66 17.35A2.66 2.66 0 1015 20a2.65 2.65 0 002.66-2.65zM15 18.93a1.57 1.57 0 110-3.14 1.57 1.57 0 011.57 1.58A1.59 1.59 0 0115 18.93z"/><path id="lPath_107" data-name="Path 107" class="lcls-1" d="M17.48 22.43h-5a.66.66 0 00-.71.61.65.65 0 00.68.62h4.95a.65.65 0 00.72-.59.66.66 0 00-.68-.64z"/></symbol><symbol id="tag" viewBox="0 0 30 30" xmlns="http://www.w3.org/2000/svg"><defs><style>.mcls-1{fill:#0061ad}</style></defs><path id="mPath_98" data-name="Path 98" class="mcls-1" d="M16.6.27a3.69 3.69 0 00-2 1L.49 15.43a3.26 3.26 0 00-.86 1.38 6.19 6.19 0 00-.13.62"/><path id="mPath_99" data-name="Path 99" class="mcls-1" d="M30 12.89a4.55 4.55 0 01-1.55 2.51Q21.87 22 15.31 28.53A4.2 4.2 0 0112.83 30h-.59a3.47 3.47 0 01-2-1Q5.62 24.38 1 19.75a3.17 3.17 0 01-.85-1.37C.08 18.17 0 18 0 17.75v-.58c.05-.21.08-.42.14-.63A3.27 3.27 0 011 15.17Q8.07 8.11 15.12 1a3.84 3.84 0 012-1h11.24c.29.12.57.26.85.41A2.12 2.12 0 0130 1.64zm-1.18-5.62V2.15a.84.84 0 00-1-1H17.64a2.27 2.27 0 00-1.7.71L1.84 16a2 2 0 00-.19 2.76 1.89 1.89 0 00.2.2l9.21 9.21a2 2 0 002.76.19l.17-.18q7.08-7.05 14.13-14.12a2.31 2.31 0 00.7-1.71V7.28z"/><path id="mPath_100" data-name="Path 100" class="mcls-1" d="M24.65 2.89a2.15 2.15 0 11-2.14 2.18V5a2.15 2.15 0 012.14-2.11zm1 2.14a1 1 0 00-1-1 1 1 0 00-1 .95 1 1 0 001 1 1 1 0 00.98-.98z"/></symbol><symbol viewBox="0 0 30 30" id="user" xmlns="http://www.w3.org/2000/svg"><g data-name="Group 266"><path data-name="Path 134" d="M25.61 4.39A14.93 14.93 0 0015 0a15 15 0 1010.61 4.39zm-1 20.22a13.59 13.59 0 01-19.22 0 13.59 13.59 0 010-19.22 13.48 13.48 0 019.61-4A13.59 13.59 0 0128.59 15a13.48 13.48 0 01-4 9.61z"/><path data-name="Path 135" d="M18.48 13.82a4.08 4.08 0 10-7.56-2.14 4 4 0 00.61 2.14 3.12 3.12 0 00-1.84 3v4a1.54 1.54 0 001.55 1.55h7.52a1.54 1.54 0 001.55-1.55v-4a3.13 3.13 0 00-1.83-3zm-6.14-2.14a2.66 2.66 0 015.32 0A2.65 2.65 0 0115 14.35a2.67 2.67 0 01-2.66-2.67zm6.55 9.17a.13.13 0 01-.13.13h-7.52a.13.13 0 01-.13-.13v-4a1.78 1.78 0 01.82-1.63 2.44 2.44 0 01.63-.25 4.08 4.08 0 004.88 0 2.44 2.44 0 01.63.25 1.76 1.76 0 01.82 1.63z"/></g></symbol></svg>