<?xml version="1.0" standalone="no"?>
<!DOCTYPE svg PUBLIC "-//W3C//DTD SVG 20010904//EN"
 "http://www.w3.org/TR/2001/REC-SVG-20010904/DTD/svg10.dtd">
<svg version="1.0" xmlns="http://www.w3.org/2000/svg"
 width="2480.000000pt" height="2480.000000pt" viewBox="0 0 2480.000000 2480.000000"
 preserveAspectRatio="xMidYMid meet">
<metadata>
Created by potrace 1.11, written by Peter Selinger 2001-2013
</metadata>
<g transform="translate(0.000000,2480.000000) scale(0.100000,-0.100000)"
fill="#000000" stroke="none">
<path d="M12312 24382 c-188 -108 -335 -242 -531 -485 l-103 -128 -40 39 c-47
47 -109 79 -183 95 -64 13 -75 6 -69 -47 1 -17 5 -76 8 -131 4 -55 8 -111 10
-125 3 -14 10 -59 16 -100 31 -201 105 -431 199 -617 43 -86 188 -316 210
-333 3 -3 17 -18 31 -35 18 -21 9 -16 -30 16 -79 65 -127 99 -138 99 -6 0 -12
4 -14 8 -9 22 -232 140 -362 192 -192 76 -450 133 -661 146 -55 3 -116 7 -136
9 -58 4 -64 -4 -51 -68 15 -76 47 -140 93 -186 l39 -39 -29 -23 c-15 -13 -48
-40 -72 -59 -283 -227 -421 -380 -528 -584 l-31 -59 36 -66 c93 -168 232 -331
398 -469 45 -37 90 -74 101 -84 11 -9 44 -35 73 -58 l53 -41 -37 -37 c-49 -49
-94 -146 -97 -208 l-2 -49 40 1 c547 10 1047 195 1400 517 27 25 51 44 52 43
2 -1 -12 -42 -31 -90 -111 -281 -373 -544 -716 -717 -220 -110 -383 -141 -521
-99 -372 112 -867 497 -1190 925 l-42 56 24 16 c50 34 129 124 157 180 94 186
58 399 -92 546 -282 276 -767 89 -790 -304 -9 -160 80 -342 204 -418 l31 -18
-69 -89 c-318 -411 -806 -786 -1161 -894 -129 -40 -254 -18 -436 76 -244 125
-507 347 -676 569 -48 63 -126 189 -148 240 l-12 29 28 -28 c46 -47 163 -139
245 -194 218 -147 487 -252 782 -307 114 -21 180 -27 391 -40 50 -3 53 1 43
61 -11 71 -40 132 -90 189 -22 25 -39 47 -37 49 2 2 62 50 134 107 146 117
286 253 358 347 59 77 157 240 157 262 0 22 -97 185 -156 262 -85 110 -299
310 -446 416 -27 19 -48 36 -48 39 0 3 18 25 39 49 22 25 48 64 59 88 25 52
42 142 30 154 -11 11 -126 6 -298 -14 -403 -46 -804 -212 -1082 -448 -38 -31
-68 -54 -68 -51 0 4 15 25 34 48 79 98 218 342 279 492 100 245 137 503 114
785 -7 78 -35 251 -42 258 -2 2 -22 -6 -46 -19 -71 -35 -149 -123 -200 -225
l-46 -90 -41 87 c-102 213 -239 371 -403 462 -110 61 -275 87 -419 65 -128
-20 -304 -88 -438 -170 l-34 -21 92 -38 c185 -77 342 -209 428 -357 95 -166
161 -391 187 -642 3 -30 8 -71 10 -90 11 -83 23 -299 31 -541 l5 -177 -65 -4
c-90 -5 -139 -40 -183 -129 -97 -194 -12 -508 171 -633 28 -19 63 -38 78 -41
20 -5 32 -21 54 -68 15 -34 42 -93 60 -132 17 -38 89 -196 159 -350 70 -154
139 -307 154 -340 15 -33 64 -141 108 -240 l81 -180 -2 -92 -1 -93 -51 -52
c-70 -74 -100 -118 -140 -203 -63 -136 -78 -270 -47 -424 17 -88 35 -136 80
-213 95 -163 264 -281 460 -321 96 -19 10781 -21 10883 -1 222 42 419 199 503
399 42 102 52 150 51 265 0 152 -11 204 -67 315 -35 70 -103 162 -150 202
l-34 28 2 105 3 105 264 580 c146 319 277 608 293 642 23 49 34 63 56 68 15 4
47 20 71 37 198 141 278 467 163 663 -38 66 -92 98 -171 103 l-65 4 6 172 c9
305 23 513 46 681 67 497 227 768 546 924 43 21 96 44 117 51 l39 13 -24 18
c-33 24 -192 103 -259 128 -117 43 -182 54 -305 54 -103 0 -132 -4 -202 -27
-198 -65 -384 -250 -504 -503 -22 -46 -40 -83 -42 -83 -2 0 -23 39 -47 86 -25
48 -62 106 -82 129 -36 41 -136 115 -155 115 -12 0 -32 -106 -47 -253 -47
-449 80 -859 403 -1302 l36 -50 -74 64 c-304 260 -748 435 -1188 466 -43 3
-107 7 -142 9 l-64 4 6 -57 c6 -71 39 -143 92 -197 l41 -43 -130 -103 c-156
-124 -305 -270 -379 -369 -60 -83 -147 -229 -147 -249 0 -20 87 -167 148 -250
75 -101 221 -243 379 -369 l131 -103 -32 -29 c-49 -43 -97 -140 -103 -209 l-6
-58 64 4 c301 16 490 50 716 128 246 86 486 226 649 379 54 50 63 55 52 31
-51 -117 -177 -291 -305 -420 -73 -74 -217 -199 -273 -237 -185 -125 -295
-185 -413 -222 -147 -47 -250 -29 -472 80 -327 161 -723 498 -973 829 l-52 69
27 17 c123 76 205 230 206 385 0 180 -89 331 -243 414 -259 138 -572 14 -666
-266 -63 -186 12 -416 170 -524 20 -13 36 -26 36 -29 0 -16 -188 -240 -284
-339 -285 -292 -611 -521 -892 -626 -168 -63 -332 -38 -586 90 -359 182 -640
482 -729 779 l-9 29 28 -25 c15 -13 38 -35 52 -47 213 -194 557 -365 876 -435
159 -35 259 -48 487 -60 67 -4 68 -1 42 99 -17 65 -44 111 -94 162 l-32 31 98
78 c269 214 408 365 517 559 l48 85 -48 85 c-108 193 -257 354 -523 564 l-94
75 31 27 c61 55 111 165 108 238 -1 24 -5 26 -41 25 -273 -5 -556 -58 -794
-149 -176 -67 -396 -192 -530 -303 -38 -31 -36 -27 27 57 134 178 229 362 302
581 40 123 83 311 94 420 3 30 8 71 11 90 2 19 5 78 7 130 3 92 2 95 -20 98
-31 5 -128 -25 -172 -53 -21 -13 -51 -38 -68 -56 l-29 -31 -99 123 c-197 246
-354 389 -538 492 -45 26 -85 47 -87 47 -2 0 -41 -21 -87 -48z"/>
<path d="M9710 18420 c-2583 -5 -2697 -6 -2750 -23 -112 -38 -249 -122 -305
-188 -88 -105 -137 -193 -165 -303 -18 -69 -18 -254 -18 -5531 0 -4508 2
-5480 13 -5577 80 -698 390 -1292 925 -1774 297 -267 723 -488 1145 -593 102
-25 127 -30 365 -67 25 -3 554 -8 1175 -10 1158 -3 1205 -5 1366 -44 251 -61
497 -214 671 -416 103 -120 156 -149 268 -149 101 0 169 33 236 113 202 243
467 405 763 467 119 25 189 26 1341 30 602 1 1113 6 1135 9 22 3 74 11 115 17
349 49 712 181 1030 374 470 285 872 747 1085 1245 97 226 178 520 201 725 3
27 9 61 12 75 4 14 8 2496 9 5515 3 4848 2 5499 -12 5565 -54 269 -286 489
-565 536 -53 9 -4225 11 -8040 4z m2739 -1003 c85 -132 125 -230 147 -367 14
-83 20 -317 10 -400 -6 -58 -18 -138 -26 -185 -5 -27 -12 -63 -14 -80 -13 -80
-162 -745 -167 -745 -3 0 -13 37 -22 83 -9 45 -35 165 -57 267 -85 386 -93
425 -116 590 -30 205 -12 497 37 622 41 104 141 278 159 278 4 0 26 -28 49
-63z m-502 -459 c95 -46 99 -55 107 -183 5 -94 30 -237 52 -310 4 -10 -17 10
-47 45 -29 36 -67 78 -84 93 -37 35 -130 97 -145 97 -5 0 -10 3 -11 8 -5 48
-46 254 -56 278 -6 15 0 16 58 10 39 -5 88 -19 126 -38z m1089 25 c-6 -14 -16
-67 -52 -258 -2 -13 -19 -28 -41 -38 -65 -28 -164 -122 -237 -222 -13 -17 -13
-11 0 45 29 126 35 166 40 270 5 102 6 106 36 132 57 50 147 85 222 87 32 1
37 -2 32 -16z m-1387 -349 c186 -53 352 -196 446 -384 50 -100 132 -342 168
-495 31 -134 33 -151 18 -157 -33 -14 -39 -6 -70 90 -70 211 -161 356 -254
401 -149 72 -301 -54 -302 -249 0 -74 1 -78 60 -180 121 -214 140 -268 122
-344 -11 -43 -66 -105 -117 -131 -63 -33 -172 -14 -228 38 -26 24 -51 64 -34
53 6 -3 32 -10 58 -15 96 -18 159 36 158 134 -2 85 -25 121 -229 355 -162 186
-200 246 -230 360 -40 155 5 333 112 435 94 90 209 122 322 89z m1701 -10
c165 -64 260 -230 247 -428 -9 -147 -51 -225 -233 -434 -156 -180 -212 -256
-229 -317 -41 -139 61 -225 200 -169 41 16 -30 -60 -78 -85 -83 -41 -162 -30
-234 35 -49 45 -66 88 -61 155 4 60 18 92 122 276 67 119 78 176 52 264 -44
154 -170 227 -290 169 -96 -46 -184 -186 -256 -402 -18 -54 -35 -98 -39 -98
-3 0 -16 3 -27 6 -20 5 -21 9 -12 47 65 299 155 558 239 687 73 113 165 197
279 255 125 64 226 76 320 39z m-797 -1147 c132 -60 171 -169 96 -260 -105
-127 -363 -134 -485 -13 -56 56 -66 108 -32 174 27 52 100 104 172 121 69 17
188 6 249 -22z m-3152 -382 c13 -97 25 -121 86 -175 78 -68 189 -115 443 -184
121 -33 291 -118 400 -200 140 -105 318 -286 386 -394 71 -111 167 -324 249
-553 l17 -46 1420 1 1420 1 38 105 c126 354 216 512 397 695 220 225 399 334
664 405 294 80 436 165 468 284 6 22 15 79 19 125 l7 84 45 -39 c152 -131 250
-314 250 -467 0 -170 -127 -378 -272 -445 -40 -19 -57 -32 -54 -42 2 -8 14
-41 25 -72 45 -122 21 -237 -65 -322 -58 -58 -102 -83 -167 -95 -36 -6 -123 2
-134 13 -2 2 9 27 24 57 24 46 28 65 27 134 0 100 -29 165 -93 210 -38 26 -51
30 -110 29 -56 -1 -80 -7 -142 -37 -41 -19 -93 -52 -116 -71 -82 -71 -212
-269 -299 -453 -113 -242 -177 -432 -283 -841 -16 -62 -32 -116 -35 -119 -4
-4 -78 -6 -165 -6 l-159 1 8 -27 c4 -14 66 -188 138 -386 72 -198 171 -472
220 -610 50 -137 148 -407 217 -600 144 -397 251 -696 419 -1165 64 -179 121
-334 125 -345 20 -47 91 -254 102 -298 24 -97 0 -215 -55 -275 -79 -87 -239
-80 -556 24 -237 79 -299 83 -325 22 -21 -51 5 -92 84 -129 53 -25 58 -27 246
-80 77 -21 169 -48 205 -58 540 -158 647 -201 734 -289 49 -49 103 -145 130
-228 22 -66 78 -160 119 -197 49 -45 111 -69 176 -69 64 1 208 40 282 77 27
14 49 24 49 22 0 -16 -74 -150 -125 -227 -97 -146 -185 -225 -303 -273 -88
-36 -139 -47 -232 -48 -129 -2 -272 56 -376 153 -52 49 -63 56 -74 43 -17 -20
-107 -61 -155 -70 -132 -24 -287 24 -381 119 -15 16 -64 89 -64 97 0 3 28 9
63 12 226 21 304 161 169 303 -72 75 -108 100 -372 254 -276 162 -388 232
-474 298 -180 138 -234 262 -171 389 33 66 109 144 179 183 41 23 55 37 52 49
-3 9 -21 79 -41 156 -20 77 -108 412 -196 745 -87 333 -205 778 -260 990 -56
212 -104 388 -108 392 -3 4 -170 -263 -371 -593 -201 -329 -367 -599 -370
-599 -3 0 -49 71 -101 158 -53 86 -153 252 -224 367 -70 116 -191 314 -269
442 -77 128 -144 229 -147 225 -4 -4 -52 -182 -109 -397 -56 -214 -148 -565
-205 -780 -56 -214 -144 -547 -194 -740 -51 -192 -94 -357 -97 -366 -3 -12 11
-26 52 -48 117 -66 204 -189 204 -286 0 -158 -137 -277 -670 -585 -299 -173
-391 -245 -425 -335 -45 -116 41 -203 220 -221 33 -3 62 -8 64 -10 13 -12 -78
-119 -131 -154 -139 -92 -336 -95 -453 -5 l-31 23 -47 -47 c-125 -124 -298
-181 -471 -154 -229 35 -374 157 -529 444 -26 47 -47 89 -47 92 0 3 21 -5 48
-18 71 -36 220 -76 282 -77 132 -2 245 103 300 277 41 132 135 247 246 303 84
42 310 115 684 222 325 93 412 124 449 164 31 34 31 76 1 106 -37 37 -105 26
-340 -55 -126 -43 -231 -66 -328 -70 -132 -6 -187 19 -235 110 -18 33 -22 56
-21 135 1 104 -18 44 224 715 34 94 72 199 84 235 13 36 76 211 141 390 201
556 267 739 460 1275 103 286 202 561 221 611 78 213 102 284 96 288 -4 2 -76
3 -160 3 -84 0 -155 3 -158 6 -3 3 -23 74 -45 159 -97 372 -165 573 -271 796
-101 214 -235 410 -321 474 -122 89 -261 118 -338 71 -107 -67 -142 -249 -70
-365 l29 -46 -36 -8 c-112 -22 -202 10 -288 102 -56 60 -69 99 -69 199 1 75 5
99 27 147 l26 57 -29 6 c-51 11 -146 83 -193 146 -138 184 -148 409 -25 600
22 34 46 67 52 74 7 6 28 29 47 51 20 21 51 52 70 68 l35 29 3 -34 c1 -19 7
-70 13 -114z m2843 -91 c12 -5 16 -20 16 -60 0 -83 -18 -151 -65 -249 -100
-205 -252 -327 -360 -289 -66 22 -104 59 -205 200 -61 85 -130 105 -179 52
-16 -16 -22 -18 -25 -7 -15 44 -9 77 19 104 48 49 147 25 264 -64 67 -50 109
-64 175 -59 69 6 140 42 201 103 59 59 93 125 108 213 11 61 18 69 51 56z
m360 -48 c21 -161 165 -312 312 -324 66 -5 108 9 175 59 115 87 212 112 264
67 28 -25 38 -89 17 -110 -9 -9 -12 -9 -12 0 0 7 -15 20 -34 29 -63 29 -106 3
-189 -115 -109 -156 -182 -192 -292 -143 -111 49 -261 262 -294 419 -15 72
-14 159 2 165 36 15 45 7 51 -47z m-163 27 c0 -5 2 -39 4 -77 2 -38 9 -92 15
-120 17 -71 72 -184 120 -244 l39 -51 -15 -53 c-9 -29 -31 -84 -50 -121 -37
-73 -138 -217 -153 -217 -20 0 -134 166 -170 245 -24 53 -51 149 -43 155 21
14 86 116 111 172 43 95 53 147 60 306 1 13 80 18 82 5z m-3526 -2189 c46 -72
98 -177 119 -239 68 -208 55 -559 -36 -949 -11 -50 -29 -129 -38 -176 -10 -47
-35 -163 -56 -259 l-38 -174 -48 219 c-27 120 -50 228 -52 239 -2 11 -20 94
-39 185 -51 234 -69 364 -72 525 -4 134 9 268 36 370 25 96 158 333 180 320 5
-4 25 -31 44 -61z m7069 -1 c129 -200 169 -358 161 -633 -4 -149 -6 -161 -31
-315 -12 -71 -166 -801 -177 -839 -2 -5 -22 78 -45 185 -23 107 -59 275 -81
374 -61 282 -83 433 -87 600 -5 221 20 362 88 500 39 78 111 194 121 195 4 0
27 -30 51 -67z m-7649 -429 c56 -14 113 -42 159 -78 14 -12 19 -32 22 -93 5
-117 20 -216 50 -333 5 -20 -1 -17 -32 20 -69 82 -138 145 -196 178 -55 32
-56 34 -63 85 -4 28 -15 89 -26 135 -10 46 -19 88 -19 93 0 13 38 11 105 -7z
m1154 -52 c-17 -66 -20 -83 -34 -184 -4 -27 -11 -48 -17 -48 -17 0 -112 -66
-153 -106 -22 -21 -58 -60 -79 -87 -21 -26 -40 -46 -42 -45 -1 2 6 39 16 83
23 98 28 134 35 254 7 106 10 111 100 155 55 28 112 43 161 45 l30 1 -17 -68z
m5967 37 c28 -11 68 -34 89 -52 l37 -32 4 -95 c2 -52 8 -115 14 -140 5 -25 12
-56 14 -70 2 -14 9 -45 15 -70 5 -24 9 -46 7 -47 -1 -2 -26 26 -56 61 -60 74
-129 133 -188 161 l-41 20 -12 85 c-6 47 -20 114 -29 149 l-18 63 56 -7 c31
-4 80 -16 108 -26z m1114 24 c0 -7 -13 -67 -48 -235 -1 -5 -2 -18 -2 -30 -1
-18 -13 -29 -53 -48 -55 -27 -154 -117 -205 -189 -37 -51 -39 -46 -13 57 20
80 31 165 35 270 3 67 15 87 74 124 60 37 212 74 212 51z m-8400 -380 c179
-73 303 -192 393 -374 89 -180 216 -620 185 -640 -32 -21 -43 -8 -71 84 -42
134 -119 286 -174 343 -104 105 -215 111 -306 17 -63 -64 -93 -178 -72 -272 4
-18 42 -94 86 -169 115 -201 125 -281 42 -365 -49 -51 -88 -70 -143 -70 -65 0
-114 19 -156 61 -38 38 -33 50 14 34 61 -20 131 5 160 59 8 14 11 47 9 80 -4
72 -40 133 -156 266 -168 194 -240 285 -264 336 -102 218 -45 473 131 586 98
63 209 71 322 24z m1652 7 c166 -62 270 -266 238 -468 -23 -143 -74 -222 -310
-484 -147 -164 -191 -273 -141 -354 33 -53 84 -68 169 -49 32 7 33 6 23 -13
-39 -73 -179 -109 -260 -67 -36 18 -99 88 -106 117 -21 84 -5 147 68 271 106
178 117 206 110 292 -8 101 -82 210 -160 236 -40 13 -110 6 -151 -15 -40 -21
-99 -84 -138 -147 -38 -63 -106 -229 -125 -301 -11 -48 -27 -59 -57 -39 -32
20 119 522 201 671 42 78 64 107 127 174 61 65 107 99 195 144 119 62 213 71
317 32z m5360 15 c47 -10 176 -77 231 -119 90 -69 168 -168 224 -286 52 -108
116 -296 151 -440 49 -201 48 -186 13 -198 -28 -10 -29 -9 -36 26 -12 64 -84
243 -126 314 -88 149 -196 207 -302 163 -67 -28 -127 -107 -143 -190 -18 -92
-4 -147 66 -267 109 -184 129 -244 109 -324 -12 -45 -64 -106 -113 -131 -49
-26 -136 -21 -189 10 -53 31 -108 104 -59 78 31 -16 95 -19 129 -5 45 19 73
63 73 117 0 79 -43 154 -172 299 -216 244 -272 328 -293 438 -59 317 160 575
437 515z m1688 -6 c188 -60 299 -278 253 -500 -27 -131 -46 -162 -253 -403
-171 -199 -202 -248 -208 -327 -4 -52 -1 -63 22 -94 15 -20 41 -38 60 -43 33
-9 101 -3 124 12 25 15 10 -15 -23 -48 -40 -40 -109 -65 -167 -60 -109 9 -198
121 -183 226 9 58 23 89 98 215 35 59 69 124 75 143 33 104 5 225 -69 298
-126 124 -283 60 -392 -161 -47 -95 -107 -255 -107 -286 0 -14 -6 -17 -26 -13
-14 2 -28 10 -30 16 -9 24 64 305 118 456 105 290 214 429 421 533 103 51 199
64 287 36z m-7853 -1154 c95 -43 136 -94 135 -168 -2 -141 -225 -233 -414
-171 -179 59 -213 232 -62 320 100 59 238 67 341 19z m7028 17 c105 -32 175
-103 175 -174 0 -176 -282 -265 -478 -152 -106 62 -125 183 -40 260 30 28 98
62 145 73 45 10 156 6 198 -7z m-7330 -492 c17 0 13 -107 -6 -185 -25 -105
-112 -249 -202 -337 -80 -77 -165 -100 -235 -64 -42 22 -104 85 -148 152 -46
69 -90 112 -125 119 -31 7 -82 -15 -97 -42 -8 -13 -11 -7 -17 26 -12 74 34
117 115 108 50 -6 95 -29 177 -90 92 -69 169 -77 268 -31 111 53 190 160 215
292 10 48 16 62 27 58 8 -4 21 -6 28 -6z m359 -60 c27 -120 75 -194 166 -256
112 -77 229 -73 326 12 44 37 143 84 180 84 73 0 113 -46 100 -115 l-7 -35
-23 27 c-19 22 -33 28 -65 28 -48 0 -81 -28 -144 -120 -154 -226 -292 -224
-465 10 -87 118 -129 229 -134 352 -2 47 2 67 12 73 29 19 38 9 54 -60z m6709
55 c30 -30 2 -196 -50 -300 -83 -163 -204 -281 -307 -299 -65 -12 -152 52
-236 173 -57 81 -62 86 -97 104 -42 22 -54 21 -96 -7 -30 -20 -36 -22 -41 -9
-16 41 4 95 41 112 58 27 127 5 238 -75 111 -79 184 -87 287 -32 113 60 174
143 206 281 16 68 28 79 55 52z m356 -45 c20 -99 68 -188 129 -237 65 -52 137
-84 195 -84 67 -1 95 10 179 72 118 85 197 101 249 50 28 -29 35 -54 23 -98
-6 -22 -6 -22 -29 4 -17 20 -31 27 -62 27 -51 0 -88 -29 -139 -107 -80 -124
-175 -194 -245 -181 -72 14 -133 59 -209 153 -91 113 -147 249 -154 374 -3 54
-1 69 13 77 30 18 38 10 50 -50z m-7229 -28 c0 -130 50 -271 138 -387 l38 -50
-28 -80 c-34 -95 -62 -145 -136 -244 l-55 -74 -24 29 c-67 81 -142 208 -168
286 l-28 84 37 49 c92 120 140 261 138 408 l0 47 44 0 44 0 0 -68z m7073 -29
c8 -136 46 -241 129 -351 44 -60 45 -68 1 -174 -27 -67 -73 -144 -135 -226
-31 -40 -44 -50 -54 -41 -29 24 -140 198 -165 259 -44 109 -45 124 -11 168 85
108 131 229 139 365 l6 97 42 0 42 0 6 -97z m-3541 -1455 c105 -161 135 -243
164 -438 11 -81 6 -313 -11 -425 -21 -142 -40 -235 -121 -605 -36 -168 -67
-311 -67 -318 -1 -39 -20 33 -77 298 -35 162 -69 322 -77 355 -15 69 -39 210
-48 273 -3 23 -7 60 -11 82 -17 128 -2 378 31 504 23 88 150 326 174 326 5 0
24 -24 43 -52z m-522 -456 c30 -12 71 -35 91 -51 l36 -30 7 -113 c5 -96 30
-240 52 -313 4 -11 -11 3 -33 30 -70 88 -116 131 -191 179 -64 42 -72 51 -73
79 0 18 -3 43 -5 56 -6 36 -34 153 -40 175 -6 17 -2 18 47 14 30 -3 79 -15
109 -26z m1116 12 c-9 -24 -45 -205 -48 -241 -1 -23 -9 -36 -28 -45 -83 -42
-146 -97 -232 -203 -23 -27 -38 -41 -35 -30 34 116 47 197 54 315 3 58 11 111
17 119 36 45 162 99 235 100 35 1 42 -2 37 -15z m-1324 -370 c186 -82 307
-203 398 -397 54 -115 115 -299 154 -470 30 -128 32 -143 17 -149 -33 -14 -38
-6 -71 93 -68 209 -158 351 -252 400 -40 20 -111 25 -152 9 -70 -26 -135 -120
-151 -218 -13 -78 2 -122 90 -277 122 -216 127 -291 26 -383 -89 -81 -227 -68
-300 27 -23 30 -23 34 -6 26 11 -5 45 -11 75 -13 46 -3 60 0 84 19 39 31 57
78 50 131 -7 49 -58 147 -103 196 -80 86 -250 289 -283 338 -83 122 -109 280
-69 413 34 113 73 169 160 231 93 66 218 75 333 24z m1665 0 c97 -46 171 -139
207 -258 31 -103 12 -260 -44 -365 -28 -51 -175 -235 -270 -337 -152 -163
-186 -300 -94 -373 30 -23 110 -29 146 -10 32 17 32 4 -2 -34 -51 -59 -153
-85 -223 -58 -49 19 -95 61 -118 108 -17 36 -21 56 -16 103 5 61 7 66 123 270
59 104 59 105 58 185 0 66 -5 89 -26 130 -83 158 -232 181 -356 54 -51 -53
-129 -206 -172 -339 -17 -52 -32 -96 -34 -98 -2 -1 -15 0 -29 3 l-24 7 18 85
c48 214 122 440 184 563 54 107 139 211 225 275 56 41 176 102 227 115 61 15
156 4 220 -26z m-813 -1143 c75 -37 112 -79 122 -137 12 -80 -57 -163 -168
-200 -80 -26 -210 -16 -284 22 -106 54 -144 131 -106 216 56 127 278 177 436
99z m-320 -467 c19 -7 22 -86 5 -166 -33 -156 -176 -361 -290 -416 -107 -52
-189 -13 -295 140 -81 117 -130 146 -193 114 -17 -9 -31 -21 -31 -26 0 -6 -5
-10 -11 -10 -6 0 -9 20 -7 51 2 43 8 56 29 72 54 40 136 18 249 -66 101 -75
176 -86 277 -38 115 55 203 174 219 297 6 54 14 61 48 48z m360 -45 c17 -126
104 -245 219 -300 104 -49 174 -39 279 39 111 83 193 105 247 65 20 -15 27
-30 29 -63 2 -23 -2 -48 -7 -53 -8 -8 -11 -8 -11 1 0 15 -52 42 -81 42 -33 0
-84 -44 -131 -113 -111 -163 -196 -207 -305 -158 -84 39 -216 204 -263 329
-39 103 -54 245 -27 255 35 15 44 7 51 -44z m-169 29 c2 -2 7 -39 10 -82 3
-43 10 -100 16 -125 17 -67 73 -181 119 -240 l40 -51 -21 -62 c-11 -35 -34
-89 -50 -122 -34 -67 -134 -206 -149 -206 -12 0 -90 104 -134 180 -18 30 -45
90 -59 133 l-27 77 40 51 c80 101 129 234 136 367 1 37 3 72 3 77 1 10 67 12
76 3z"/>
<path d="M11680 12773 c0 -2 109 -193 242 -426 132 -232 293 -513 357 -624 63
-112 118 -203 121 -203 5 0 128 208 186 315 6 11 109 191 229 400 120 209 228
398 240 420 12 22 32 56 43 75 12 19 22 38 22 41 0 3 -324 6 -720 6 -396 0
-720 -2 -720 -4z"/>
<path d="M7085 2418 l1 -203 330 -3 329 -2 0 -895 0 -895 245 2 244 3 1 890 0
890 330 5 330 5 0 203 0 202 -905 0 -905 0 0 -202z"/>
<path d="M9151 1883 c0 -412 5 -769 10 -808 47 -337 220 -552 525 -650 121
-38 231 -53 399 -53 269 -1 452 45 618 155 166 110 260 258 307 480 17 81 18
152 19 851 l1 762 -243 0 -244 0 -1 -727 c0 -437 -4 -752 -10 -788 -32 -188
-123 -284 -296 -314 -69 -12 -210 -16 -256 -6 -14 2 -38 7 -55 11 -127 27
-239 140 -264 266 -19 94 -20 123 -20 846 l-1 712 -245 0 -245 0 1 -737z"/>
<path d="M11405 1520 l0 -1100 246 0 246 0 0 418 c0 231 2 423 6 428 5 10 556
10 587 1 8 -2 29 -8 45 -12 110 -25 189 -159 210 -355 3 -30 8 -66 10 -80 2
-14 7 -65 10 -115 7 -102 10 -123 32 -217 l15 -68 244 0 c134 0 244 2 244 5 0
3 -9 24 -20 45 -27 53 -47 154 -54 275 -17 276 -26 347 -57 437 -41 122 -127
221 -223 257 l-49 18 63 34 c123 65 198 154 247 290 23 66 26 90 27 214 1 122
-2 149 -23 213 -59 179 -192 310 -386 379 l-80 28 -670 3 -670 3 0 -1101z
m1212 681 c88 -45 133 -134 133 -266 0 -165 -63 -256 -200 -291 -49 -12 -122
-16 -351 -17 -159 0 -292 2 -295 6 -5 4 -9 508 -5 589 1 16 23 18 264 20 281
3 387 -6 454 -41z"/>
<path d="M13620 1520 l0 -1100 245 0 245 0 0 354 0 353 128 131 c71 72 134
132 139 134 6 2 153 -211 328 -472 175 -261 323 -481 329 -488 9 -9 81 -12
315 -10 l302 3 -187 265 c-317 449 -510 722 -668 942 -42 59 -76 111 -76 116
0 8 270 284 678 695 l177 177 -307 0 c-244 0 -309 -3 -320 -13 -17 -18 -264
-280 -302 -321 -33 -36 -113 -120 -308 -326 -75 -80 -157 -167 -182 -194 l-46
-48 0 451 0 451 -245 0 -245 0 0 -1100z"/>
<path d="M15832 1888 c0 -764 4 -841 45 -978 108 -360 428 -547 921 -539 229
4 406 47 554 136 218 131 334 337 356 629 4 54 7 410 7 789 l0 690 -246 3
-246 2 -1 -732 c0 -763 -2 -810 -43 -906 -45 -104 -104 -151 -227 -183 -89
-23 -237 -26 -322 -8 -153 32 -257 132 -288 274 -20 91 -22 155 -22 858 l0
697 -244 0 -243 0 -1 -732z"/>
</g>
</svg>
